<?xml version="1.0" encoding="utf-8"?>
<!-- Generator: Adobe Illustrator 19.2.1, SVG Export Plug-In . SVG Version: 6.00 Build 0)  -->
<svg version="1.1" id="Layer_1" xmlns="http://www.w3.org/2000/svg" xmlns:xlink="http://www.w3.org/1999/xlink" x="0px" y="0px"
	 viewBox="0 0 392 225.9" style="enable-background:new 0 0 392 225.9;" xml:space="preserve">
<style type="text/css">
	.st0{opacity:5.000000e-02;fill:#5D2E66;}
	.st1{opacity:0.1;fill:#5D2E66;}
	.st2{opacity:0.5;fill:#7E3D8E;}
	.st3{fill:#FFFFFF;stroke:#5D2E66;stroke-width:3;stroke-linecap:round;stroke-linejoin:round;stroke-miterlimit:10;}
	.st4{fill:#709DC9;stroke:#5D2E66;stroke-width:3;stroke-linecap:round;stroke-linejoin:round;stroke-miterlimit:10;}
	.st5{font-family:'DroidSans-Bold';}
	.st6{font-size:85.6587px;}
	.st7{fill:#F2F2F2;stroke:#5D2E66;stroke-width:3;stroke-linecap:round;stroke-linejoin:round;stroke-miterlimit:10;}
	.st8{font-size:191.04px;}
</style>
<circle class="st0" cx="195" cy="106.9" r="79.8"/>
<circle class="st1" cx="195.4" cy="106.8" r="71.9"/>
<path class="st2" d="M292.2,12.1c-1.2-1.1-3.1-1-4.2,0.2l-7.6,8.5c-1.1,1.2-1,3.1,0.2,4.2c1.2,1.1,3.1,1,4.2-0.2l7.6-8.5
	C293.5,15,293.4,13.2,292.2,12.1z"/>
<path class="st2" d="M254.6,2.8c-0.1-1.6-1.5-2.9-3.1-2.8c-1.6,0.1-2.9,1.5-2.8,3.1l0.6,11.4c0.1,1.6,1.5,2.9,3.1,2.8
	c1.6-0.1,2.9-1.5,2.8-3.1L254.6,2.8z"/>
<path class="st2" d="M305.5,48.5l-11.4,0.6c-1.6,0.1-2.9,1.5-2.8,3.1c0.1,1.6,1.5,2.9,3.1,2.8l11.4-0.6c1.6-0.1,2.9-1.5,2.8-3.1
	C308.6,49.6,307.2,48.4,305.5,48.5z"/>
<path class="st3" d="M249.8,134l18.6-86.5c1.1-4.7-0.6-10.6-5.3-11.7l-85.4-19.6c-4.7-1.1-9.4,1.9-10.5,6.6l-19.6,85.2
	c-1.1,4.7,1.9,9.4,6.6,10.5l25.8,5.9c0,0-0.7,13.9-11.2,21.2c-10.5,7.3,23.6,11.4,38.9-14.8l32.4,7.5
	C244.9,139.3,248.7,138.7,249.8,134z"/>
<text transform="matrix(0.9794 0.2021 -0.2021 0.9794 183.4881 106.2022)" class="st4 st5 st6">?</text>
<g>
	<text transform="matrix(1 0 0 1 2.6182 168.4058)" class="st7 st5 st8">4</text>
</g>
<g>
	<text transform="matrix(1 0 0 1 285.3119 168.4056)" class="st7 st5 st8">4</text>
</g>
</svg>
