<svg id="Layer_1" xmlns="http://www.w3.org/2000/svg" viewBox="0 0 178.1 177.1"><style>.st0{opacity:5e-2;fill:#5d2e66}.st1{opacity:.1;fill:#5d2e66}.st2{fill:#FFF;stroke-linejoin:round}.st2,.st3{stroke:#5d2e66;stroke-width:3;stroke-miterlimit:10}.st3{fill:#709dc9}.st4{opacity:.5;fill:#7e3d8e}.st5{fill:#709dc9;stroke-width:3;stroke-linejoin:round;stroke-miterlimit:10}.st5,.st6{stroke:#5d2e66}.st6{fill:#FFF}.st6,.st7{stroke-width:3;stroke-linecap:round;stroke-linejoin:round;stroke-miterlimit:10}.st7{fill:none;stroke:#a054b2}</style><ellipse class="st0" cx="83.7" cy="93.1" rx="83.7" ry="84"/><ellipse class="st1" cx="84.1" cy="93" rx="75.4" ry="75.7"/><path class="st2" d="M147 132.6l-91.2 21.1c-4.7 1.1-9.4-1.9-10.4-6.6L31.8 87.8c-1.1-4.7 1.9-9.4 6.5-10.5l91.2-21.1c4.7-1.1 9.4 1.9 10.4 6.6l13.6 59.3c1.1 4.7-1.8 9.5-6.5 10.5z"/><path class="st1" d="M86.1 86.8l-11 39.8-10-12-12.6 6.9L62 91.7M34.1 97.6l108.1-25-2.3-9.8-108.1 25zM91.6 86l26 32.1 4.3-15.1 14.4 1.3-20.7-23.5"/><path class="st3" d="M112.5 139.8l-20.8 4.8-15.2-66.4 20.7-4.8z"/><path class="st4" d="M163.7.6c-.8-.4-1.8-.1-2.2.7l-2.8 5.6c-.4.8-.1 1.8.7 2.2.8.4 1.8.1 2.2-.7l2.8-5.6c.4-.8.1-1.8-.7-2.2zM142.6 1.1c-.3-.9-1.2-1.3-2-1-.8.3-1.3 1.2-1 2.1l2 6c.3.9 1.2 1.3 2 1 .8-.3 1.3-1.2 1-2.1l-2-6zM176 18l-5.9 2c-.8.3-1.3 1.2-1 2.1.3.9 1.2 1.3 2 1l5.9-2c.8-.3 1.3-1.2 1-2.1-.3-.9-1.2-1.3-2-1z"/><path class="st5" d="M83.5 76.5l-11 39.9-10-12-12.6 6.9 9.5-29.8M89.2 74.7l26 32 4.4-15 14.3 1.2-20.7-23.4"/><path class="st2" d="M146.5 61.4L27 89c-3.1.7-6.2-1.2-7-4.4l-3.8-16.7c-.7-3.1 1.2-6.3 4.4-7l119.5-27.6c3.1-.7 6.2 1.2 7 4.4l3.8 16.7c.7 3.1-1.3 6.2-4.4 7z"/><path class="st3" d="M101.4 71.8l-29.3 6.7-6.4-28L95 43.7zM110.7 11.2c4 4 .2 14.3-8.5 23s-22.9 8.5-22.9 8.5-.2-14.3 8.5-23 18.9-12.5 22.9-8.5zM37.2 26.9c1.8-5.3 12.7-6.4 24.3-2.4s17.6 16.9 17.6 16.9-12.7 6.4-24.3 2.4-19.4-11.5-17.6-16.9z"/><ellipse class="st3" cx="79.1" cy="42" rx="4.8" ry="4.8"/><path class="st1" d="M150.3 45.2c-.1-.5-.1-1-.1-1.5-.2-4.8 1.6-9.2 4.6-12.7-2.7-4.1-7.3-6.8-12.5-6.8-2.4 0-4.6.6-6.7 1.6.1 2.4-.9 4.8-3.1 6-.6 2.1-2.2 3.9-4.9 4.2-.2 1-.4 2.1-.4 3.2 0 8.3 6.7 15 15 15 2.8 0 5.4-.8 7.6-2.1-1-2.1-.8-4.9.5-6.9z"/><ellipse class="st6" cx="146.1" cy="34.6" rx="15" ry="15"/><path class="st7" d="M139.7 37.5l4.6 2.9 7.6-11.8"/></svg>