<svg id="Layer_1" xmlns="http://www.w3.org/2000/svg" viewBox="0 0 214.1 200.1"><style>.st0{opacity:5e-2;fill:#5d2e66}.st1{opacity:.1;fill:#5d2e66}.st2{fill:#fea0a2}.st2,.st3{stroke:#5d2e66;stroke-width:3;stroke-miterlimit:10}.st3{fill:#f2f2f2;stroke-linecap:round;stroke-linejoin:round}.st4{opacity:.5;fill:#7e3d8e}.st5{fill:none}.st5,.st6{stroke:#5d2e66;stroke-width:3;stroke-linecap:round;stroke-linejoin:round;stroke-miterlimit:10}.st6{fill:#FFF}.st7{fill:#709dc9}.st7,.st8{stroke:#5d2e66;stroke-width:3;stroke-miterlimit:10}.st8{fill:#ffcf40}</style><circle class="st0" cx="79.8" cy="117.1" r="79.8"/><circle class="st1" cx="80.2" cy="116.9" r="71.9"/><path class="st2" d="M125.4 49.2c13.2-13.2 45.3-26.4 52.1-19.6 7.1 7.1-7.9 41.7-19 52.7l-16.8 16.8-63.3 63.3-33.1-33.2 64.9-64.9 15.2-15.1"/><path class="st3" d="M100.1 130.1c6.6-6.6 21-14.7 23.3-12.4 2.4 2.4-6.7 18-12.2 23.5l-8.4 8.4L71.4 181l-11.1-11.2 32.3-32.3 7.5-7.4"/><path class="st3" d="M123.4 117.7c-2.1-2.1-11.5 3.7-11.5 3.7l7.9 7.9s5.7-9.5 3.6-11.6zM66.7 96.6c6.6-6.6 21-14.7 23.3-12.4 2.4 2.4-6.7 18-12.2 23.5l-8.4 8.4L38 147.6l-11.1-11.2 32.3-32.3 7.5-7.5"/><path class="st3" d="M90 84.3C87.9 82.2 78.5 88 78.5 88l7.9 7.9c-.1 0 5.7-9.5 3.6-11.6z"/><path class="st4" d="M202.7 8.6c-.8-.8-2.2-.7-2.9.1l-5.4 5.9c-.8.8-.7 2.2.1 2.9.8.8 2.2.7 2.9-.1l5.4-5.9c.8-.8.8-2.2-.1-2.9zM176.4 2c-.1-1.1-1-2-2.2-2-1.1.1-2 1-2 2.2l.4 8c.1 1.1 1 2 2.2 2 1.1-.1 2-1 2-2.2l-.4-8zM211.9 34.1l-8 .4c-1.1.1-2 1-2 2.2.1 1.1 1 2 2.2 2l8-.4c1.1-.1 2-1 2-2.2 0-1.1-1-2-2.2-2z"/><path class="st3" d="M147.3 60.7c-4.6-4.6-24.5 2.6-31.6 9.7L35 151.1 56.9 173l80.7-80.7c8.1-8.1 14.4-27 9.7-31.6z"/><path class="st5" d="M118.7 76.1s7-1.3 10.8 2.4 2.4 10.8 2.4 10.8"/><path class="st6" d="M93.4 136.5s-9.7 18.7-7.4 32c2.3 13.4-7.8 18.4-7.8 18.4l-17.6-17.6 32.8-32.8zM71 115.1s-18.7 9.7-32 7.4-18.4 7.8-18.4 7.8l17.6 17.6L71 115.1z"/><path class="st7" d="M38.4 155.1l-5.7 9.1 11.1 11.1 9.6-5.2zM24.2 134l-3.7 6.1 7.3 7.4 6.4-3.5zM63.9 172.8l-3.8 6.1 7.4 7.4 6.4-3.5z"/><path class="st8" d="M21.6 141.3S7.5 158.9 8.3 159.7s18.4-13.3 18.4-13.3l-5.1-5.1zM61.4 180.1s-14.1 17.6-13.3 18.4c.9.9 18.4-13.3 18.4-13.3l-5.1-5.1zM34.5 166.6s-19.8 24.7-18.6 25.9c1.2 1.2 25.9-18.6 25.9-18.6l-7.3-7.3z"/><path class="st3" d="M177.5 29.5c-6.2-6.2-26.9 3.7-26.9 3.7L174 56.7s9.7-20.9 3.5-27.2z"/></svg>