<?xml version="1.0" encoding="utf-8"?>
<!-- Generator: Adobe Illustrator 19.2.1, SVG Export Plug-In . SVG Version: 6.00 Build 0)  -->
<svg version="1.1" id="Layer_1" xmlns="http://www.w3.org/2000/svg" xmlns:xlink="http://www.w3.org/1999/xlink" x="0px" y="0px"
	 viewBox="0 0 214.1 200.1" style="enable-background:new 0 0 214.1 200.1;" xml:space="preserve">
<style type="text/css">
	.st0{opacity:5.000000e-02;fill:#5D2E66;}
	.st1{opacity:0.1;fill:#5D2E66;}
	.st2{fill:#FEA0A2;stroke:#5D2E66;stroke-width:3;stroke-miterlimit:10;}
	.st3{fill:#F2F2F2;stroke:#5D2E66;stroke-width:3;stroke-linecap:round;stroke-linejoin:round;stroke-miterlimit:10;}
	.st4{opacity:0.5;fill:#7E3D8E;}
	.st5{fill:none;stroke:#5D2E66;stroke-width:3;stroke-linecap:round;stroke-linejoin:round;stroke-miterlimit:10;}
	.st6{fill:#FFFFFF;stroke:#5D2E66;stroke-width:3;stroke-linecap:round;stroke-linejoin:round;stroke-miterlimit:10;}
	.st7{fill:#709DC9;stroke:#5D2E66;stroke-width:3;stroke-miterlimit:10;}
	.st8{fill:#FFCF40;stroke:#5D2E66;stroke-width:3;stroke-miterlimit:10;}
</style>
<circle class="st0" cx="79.8" cy="117.1" r="79.8"/>
<circle class="st1" cx="80.2" cy="116.9" r="71.9"/>
<path class="st2" d="M125.4,49.2c13.2-13.2,45.3-26.4,52.1-19.6c7.1,7.1-7.9,41.7-19,52.7c-11,11-16.8,16.8-16.8,16.8l-63.3,63.3
	l-33.1-33.2l64.9-64.9L125.4,49.2"/>
<path class="st3" d="M100.1,130.1c6.6-6.6,21-14.7,23.3-12.4c2.4,2.4-6.7,18-12.2,23.5s-8.4,8.4-8.4,8.4L71.4,181l-11.1-11.2
	l32.3-32.3L100.1,130.1"/>
<path class="st3" d="M123.4,117.7c-2.1-2.1-11.5,3.7-11.5,3.7l7.9,7.9C119.8,129.3,125.5,119.8,123.4,117.7z"/>
<path class="st3" d="M66.7,96.6c6.6-6.6,21-14.7,23.3-12.4c2.4,2.4-6.7,18-12.2,23.5c-5.5,5.5-8.4,8.4-8.4,8.4L38,147.6l-11.1-11.2
	l32.3-32.3L66.7,96.6"/>
<path class="st3" d="M90,84.3C87.9,82.2,78.5,88,78.5,88l7.9,7.9C86.3,95.9,92.1,86.4,90,84.3z"/>
<path class="st4" d="M202.7,8.6c-0.8-0.8-2.2-0.7-2.9,0.1l-5.4,5.9c-0.8,0.8-0.7,2.2,0.1,2.9c0.8,0.8,2.2,0.7,2.9-0.1l5.4-5.9
	C203.6,10.7,203.6,9.3,202.7,8.6z"/>
<path class="st4" d="M176.4,2c-0.1-1.1-1-2-2.2-2c-1.1,0.1-2,1-2,2.2l0.4,8c0.1,1.1,1,2,2.2,2c1.1-0.1,2-1,2-2.2L176.4,2z"/>
<path class="st4" d="M211.9,34.1l-8,0.4c-1.1,0.1-2,1-2,2.2c0.1,1.1,1,2,2.2,2l8-0.4c1.1-0.1,2-1,2-2.2
	C214.1,35,213.1,34.1,211.9,34.1z"/>
<path class="st3" d="M147.3,60.7c-4.6-4.6-24.5,2.6-31.6,9.7S35,151.1,35,151.1L56.9,173c0,0,72.6-72.6,80.7-80.7
	S152,65.3,147.3,60.7z"/>
<path class="st5" d="M118.7,76.1c0,0,7-1.3,10.8,2.4s2.4,10.8,2.4,10.8"/>
<path class="st6" d="M93.4,136.5c0,0-9.7,18.7-7.4,32c2.3,13.4-7.8,18.4-7.8,18.4l-17.6-17.6L93.4,136.5z"/>
<path class="st6" d="M71,115.1c0,0-18.7,9.7-32,7.4s-18.4,7.8-18.4,7.8l17.6,17.6L71,115.1z"/>
<polygon class="st7" points="38.4,155.1 32.7,164.2 43.8,175.3 53.4,170.1 "/>
<polygon class="st7" points="24.2,134 20.5,140.1 27.8,147.5 34.2,144 "/>
<polygon class="st7" points="63.9,172.8 60.1,178.9 67.5,186.3 73.9,182.8 "/>
<path class="st8" d="M21.6,141.3c0,0-14.1,17.6-13.3,18.4s18.4-13.3,18.4-13.3L21.6,141.3z"/>
<path class="st8" d="M61.4,180.1c0,0-14.1,17.6-13.3,18.4c0.9,0.9,18.4-13.3,18.4-13.3L61.4,180.1z"/>
<path class="st8" d="M34.5,166.6c0,0-19.8,24.7-18.6,25.9c1.2,1.2,25.9-18.6,25.9-18.6L34.5,166.6z"/>
<path class="st2" d="M177.1,29.2"/>
<path class="st3" d="M177.5,29.5c-6.2-6.2-26.9,3.7-26.9,3.7L174,56.7C174,56.7,183.7,35.8,177.5,29.5z"/>
</svg>
