<?xml version="1.0" encoding="utf-8"?>
<!-- Generator: Adobe Illustrator 19.2.1, SVG Export Plug-In . SVG Version: 6.00 Build 0)  -->
<svg version="1.1" id="Layer_1" xmlns="http://www.w3.org/2000/svg" xmlns:xlink="http://www.w3.org/1999/xlink" x="0px" y="0px"
	 viewBox="0 0 178.1 177.1" style="enable-background:new 0 0 178.1 177.1;" xml:space="preserve">
<style type="text/css">
	.st0{opacity:5.000000e-02;fill:#5D2E66;}
	.st1{opacity:0.1;fill:#5D2E66;}
	.st2{fill:#FFFFFF;stroke:#5D2E66;stroke-width:3;stroke-linejoin:round;stroke-miterlimit:10;}
	.st3{fill:#709DC9;stroke:#5D2E66;stroke-width:3;stroke-miterlimit:10;}
	.st4{opacity:0.5;fill:#7E3D8E;}
	.st5{fill:#709DC9;stroke:#5D2E66;stroke-width:3;stroke-linejoin:round;stroke-miterlimit:10;}
	.st6{fill:#FFFFFF;stroke:#5D2E66;stroke-width:3;stroke-linecap:round;stroke-linejoin:round;stroke-miterlimit:10;}
	.st7{fill:none;stroke:#A054B2;stroke-width:3;stroke-linecap:round;stroke-linejoin:round;stroke-miterlimit:10;}
</style>
<ellipse class="st0" cx="83.7" cy="93.1" rx="83.7" ry="84"/>
<ellipse class="st1" cx="84.1" cy="93" rx="75.4" ry="75.7"/>
<path class="st2" d="M147,132.6l-91.2,21.1c-4.7,1.1-9.4-1.9-10.4-6.6L31.8,87.8c-1.1-4.7,1.9-9.4,6.5-10.5l91.2-21.1
	c4.7-1.1,9.4,1.9,10.4,6.6l13.6,59.3C154.6,126.8,151.7,131.6,147,132.6z"/>
<polyline class="st1" points="86.1,86.8 75.1,126.6 65.1,114.6 52.5,121.5 62,91.7 "/>
<polygon class="st1" points="34.1,97.6 142.2,72.6 139.9,62.8 31.8,87.8 "/>
<polyline class="st1" points="91.6,86 117.6,118.1 121.9,103 136.3,104.3 115.6,80.8 "/>
<polygon class="st3" points="112.5,139.8 91.7,144.6 76.5,78.2 97.2,73.4 "/>
<path class="st4" d="M163.7,0.6c-0.8-0.4-1.8-0.1-2.2,0.7l-2.8,5.6c-0.4,0.8-0.1,1.8,0.7,2.2c0.8,0.4,1.8,0.1,2.2-0.7l2.8-5.6
	C164.8,2,164.5,1,163.7,0.6z"/>
<path class="st4" d="M142.6,1.1c-0.3-0.9-1.2-1.3-2-1c-0.8,0.3-1.3,1.2-1,2.1l2,6c0.3,0.9,1.2,1.3,2,1c0.8-0.3,1.3-1.2,1-2.1
	L142.6,1.1z"/>
<path class="st4" d="M176,18l-5.9,2c-0.8,0.3-1.3,1.2-1,2.1c0.3,0.9,1.2,1.3,2,1l5.9-2c0.8-0.3,1.3-1.2,1-2.1
	C177.7,18.1,176.8,17.7,176,18z"/>
<polyline class="st5" points="83.5,76.5 72.5,116.4 62.5,104.4 49.9,111.3 59.4,81.5 "/>
<polyline class="st5" points="89.2,74.7 115.2,106.7 119.6,91.7 133.9,92.9 113.2,69.5 "/>
<path class="st2" d="M146.5,61.4L27,89c-3.1,0.7-6.2-1.2-7-4.4l-3.8-16.7c-0.7-3.1,1.2-6.3,4.4-7l119.5-27.6c3.1-0.7,6.2,1.2,7,4.4
	l3.8,16.7C151.6,57.5,149.6,60.6,146.5,61.4z"/>
<polygon class="st3" points="101.4,71.8 72.1,78.5 65.7,50.5 95,43.7 "/>
<path class="st3" d="M110.7,11.2c4,4,0.2,14.3-8.5,23s-22.9,8.5-22.9,8.5s-0.2-14.3,8.5-23S106.7,7.2,110.7,11.2z"/>
<path class="st3" d="M37.2,26.9c1.8-5.3,12.7-6.4,24.3-2.4s17.6,16.9,17.6,16.9s-12.7,6.4-24.3,2.4S35.4,32.3,37.2,26.9z"/>
<ellipse class="st3" cx="79.1" cy="42" rx="4.8" ry="4.8"/>
<path class="st1" d="M150.3,45.2c-0.1-0.5-0.1-1-0.1-1.5c-0.2-4.8,1.6-9.2,4.6-12.7c-2.7-4.1-7.3-6.8-12.5-6.8
	c-2.4,0-4.6,0.6-6.7,1.6c0.1,2.4-0.9,4.8-3.1,6c-0.6,2.1-2.2,3.9-4.9,4.2c-0.2,1-0.4,2.1-0.4,3.2c0,8.3,6.7,15,15,15
	c2.8,0,5.4-0.8,7.6-2.1C148.8,50,149,47.2,150.3,45.2z"/>
<ellipse class="st6" cx="146.1" cy="34.6" rx="15" ry="15"/>
<polyline class="st7" points="139.7,37.5 144.3,40.4 151.9,28.6 "/>
</svg>
