<?xml version="1.0" encoding="UTF-8" standalone="no"?>
<!-- Created with Inkscape (http://www.inkscape.org/) -->

<svg
   xmlns:dc="http://purl.org/dc/elements/1.1/"
   xmlns:cc="http://creativecommons.org/ns#"
   xmlns:rdf="http://www.w3.org/1999/02/22-rdf-syntax-ns#"
   xmlns:svg="http://www.w3.org/2000/svg"
   xmlns="http://www.w3.org/2000/svg"
   xmlns:sodipodi="http://sodipodi.sourceforge.net/DTD/sodipodi-0.dtd"
   xmlns:inkscape="http://www.inkscape.org/namespaces/inkscape"
   width="104.05004mm"
   height="70.67691mm"
   viewBox="0 0 368.68125 250.43"
   id="svg2"
   version="1.1"
   inkscape:version="0.91 r13725"
   sodipodi:docname="Zeichnung.svg">
  <defs
     id="defs4" />
  <sodipodi:namedview
     id="base"
     pagecolor="#ffffff"
     bordercolor="#666666"
     borderopacity="1.0"
     inkscape:pageopacity="0.0"
     inkscape:pageshadow="2"
     inkscape:zoom="0.35"
     inkscape:cx="-375.65937"
     inkscape:cy="-111.92781"
     inkscape:document-units="px"
     inkscape:current-layer="layer1"
     showgrid="false"
     fit-margin-top="0"
     fit-margin-left="0"
     fit-margin-right="0"
     fit-margin-bottom="0"
     inkscape:window-width="1920"
     inkscape:window-height="1148"
     inkscape:window-x="1272"
     inkscape:window-y="-8"
     inkscape:window-maximized="1" />
  <metadata
     id="metadata7">
    <rdf:RDF>
      <cc:Work
         rdf:about="">
        <dc:format>image/svg+xml</dc:format>
        <dc:type
           rdf:resource="http://purl.org/dc/dcmitype/StillImage" />
        <dc:title></dc:title>
      </cc:Work>
    </rdf:RDF>
  </metadata>
  <g
     inkscape:label="Ebene 1"
     inkscape:groupmode="layer"
     id="layer1"
     transform="translate(-249.2308,-170.00439)">
    <g
       transform="matrix(1.25,0,0,-1.25,63.16705,808.20314)"
       inkscape:label="ink_ext_XXXXXX"
       id="g4144">
      <g
         transform="scale(0.1,0.1)"
         id="g4146">
        <path
           inkscape:connector-curvature="0"
           id="path4148"
           style="fill:#ffffff;fill-opacity:1;fill-rule:nonzero;stroke:none"
           d="m 1488.51,3102.15 2949.45,0 0,2003.44 -2949.45,0 0,-2003.44 z" />
        <path
           inkscape:connector-curvature="0"
           id="path4150"
           style="fill:#254aa5;fill-opacity:1;fill-rule:nonzero;stroke:none"
           d="m 1545.23,3159.96 2836.01,0 0,1890.7 -2836.01,0 0,-1890.7 z" />
        <path
           inkscape:connector-curvature="0"
           id="path4152"
           style="fill:#fff200;fill-opacity:1;fill-rule:nonzero;stroke:none"
           d="m 2902.8,4638.71 59.84,43.67 59.85,-43.67 -22.77,70.63 60.78,43.67 -74.93,0 -22.93,71.48 -22.92,-71.56 -74.88,0.08 60.73,-43.67 -22.77,-70.63" />
        <path
           inkscape:connector-curvature="0"
           id="path4154"
           style="fill:#fff200;fill-opacity:1;fill-rule:nonzero;stroke:none"
           d="m 2593.11,4555.51 59.85,43.67 59.81,-43.67 -22.74,70.62 60.74,43.67 -74.92,0 -22.93,71.57 -22.93,-71.64 -74.88,0.07 60.74,-43.67 -22.74,-70.62" />
        <path
           inkscape:connector-curvature="0"
           id="path4156"
           style="fill:#fff200;fill-opacity:1;fill-rule:nonzero;stroke:none"
           d="m 2426.36,4514.26 -22.93,-71.64 -74.88,0.08 60.74,-43.68 -22.77,-70.62 59.84,43.67 59.84,-43.67 -22.77,70.62 60.74,43.68 -74.88,0 -22.93,71.56" />
        <path
           inkscape:connector-curvature="0"
           id="path4158"
           style="fill:#fff200;fill-opacity:1;fill-rule:nonzero;stroke:none"
           d="m 2343.23,4062.77 59.81,-43.67 -22.74,70.63 60.75,43.67 -74.89,0 -22.93,71.56 -22.93,-71.72 -74.92,0.16 60.78,-43.67 -22.77,-70.63 59.84,43.67" />
        <path
           inkscape:connector-curvature="0"
           id="path4160"
           style="fill:#fff200;fill-opacity:1;fill-rule:nonzero;stroke:none"
           d="m 2449.29,3823.16 -22.93,71.57 -22.93,-71.64 -74.88,0.07 60.74,-43.67 -22.77,-70.62 59.84,43.75 59.84,-43.75 -22.77,70.62 60.74,43.67 -74.88,0" />
        <path
           inkscape:connector-curvature="0"
           id="path4162"
           style="fill:#fff200;fill-opacity:1;fill-rule:nonzero;stroke:none"
           d="m 2676.32,3596.13 -22.93,71.49 -22.89,-71.57 -74.93,0.08 60.75,-43.67 -22.73,-70.62 59.84,43.67 59.8,-43.67 -22.73,70.62 60.74,43.67 -74.92,0" />
        <path
           inkscape:connector-curvature="0"
           id="path4164"
           style="fill:#fff200;fill-opacity:1;fill-rule:nonzero;stroke:none"
           d="m 2985.61,3513.87 -22.92,71.56 -22.89,-71.64 -74.92,0.08 60.73,-43.67 -22.73,-70.63 59.85,43.67 59.8,-43.67 -22.77,70.63 60.78,43.67 -74.93,0" />
        <path
           inkscape:connector-curvature="0"
           id="path4166"
           style="fill:#fff200;fill-opacity:1;fill-rule:nonzero;stroke:none"
           d="m 3294.91,3596.13 -22.89,71.49 -22.97,-71.57 -74.84,0.08 60.7,-43.67 -22.73,-70.62 59.84,43.67 59.84,-43.67 -22.81,70.62 60.79,43.67 -74.93,0" />
        <path
           inkscape:connector-curvature="0"
           id="path4168"
           style="fill:#fff200;fill-opacity:1;fill-rule:nonzero;stroke:none"
           d="m 3522.02,3823.16 -22.97,71.57 -22.96,-71.64 -74.85,0.07 60.78,-43.67 -22.81,-70.62 59.84,43.75 59.84,-43.75 -22.8,70.62 60.77,43.67 -74.84,0" />
        <path
           inkscape:connector-curvature="0"
           id="path4170"
           style="fill:#fff200;fill-opacity:1;fill-rule:nonzero;stroke:none"
           d="m 3679.13,4134.26 -74.92,0 -22.97,71.56 -22.89,-71.64 -74.92,0.08 60.78,-43.67 -22.73,-70.63 59.76,43.75 59.85,-43.75 -22.74,70.63 60.78,43.67" />
        <path
           inkscape:connector-curvature="0"
           id="path4172"
           style="fill:#fff200;fill-opacity:1;fill-rule:nonzero;stroke:none"
           d="m 3439.21,4329.34 59.84,43.67 59.84,-43.67 -22.8,70.62 60.77,43.59 -74.84,0 -22.97,71.57 -22.96,-71.64 -74.85,0.07 60.78,-43.59 -22.81,-70.62" />
        <path
           inkscape:connector-curvature="0"
           id="path4174"
           style="fill:#fff200;fill-opacity:1;fill-rule:nonzero;stroke:none"
           d="m 3272.88,4741.29 -22.89,-71.64 -74.92,0.15 60.7,-43.75 -22.73,-70.62 59.92,43.75 59.77,-43.75 -22.74,70.62 60.78,43.75 -75,0 -22.89,71.49" />
      </g>
    </g>
  </g>
</svg>
