<svg id="Laag_1" xmlns="http://www.w3.org/2000/svg" viewBox="0 0 198.3 200"><style>.st0{fill:#231f20}.st1{fill:#7d3c8c}.st2{fill:#333;stroke:#231f20;stroke-width:.8183;stroke-miterlimit:10}.st3{fill:none}.st4{fill:#FFF}.st5{fill:#ff5072}.st6{fill:#231f20;stroke:#231f20;stroke-width:.8146}.st7{fill:#84cd1a}.st8{fill:#231f20;stroke:#231f20;stroke-miterlimit:10}</style><circle class="st1" cx="99.1" cy="95.4" r="88.2"/><path class="st4" d="M60.4 143.4c4-.7 7.9-1.4 11.9-2.1 2.7-.5 5.5-.5 7.6-2.4 4.3-3.7 8.1-8.4 12-12.5l43.7-45.5c3.9-4.1 7.9-8.2 11.8-12.3 1.7-1.7 1.8-4.6 0-6.4l-15.2-14.6c-1.7-1.7-4.6-1.8-6.4 0-22.4 23.4-45.5 46.2-67.3 70.2-1.8 2-2.1 4.2-2.3 6.8-.5 4.8-.9 9.6-1.4 14.4-.6 5.8 8.4 5.7 9 0 .6-5.8 1.1-11.5 1.7-17.3-.4 1.1-.9 2.1-1.3 3.2C84 104.3 103.8 83.6 123.6 63c2.9-3 5.8-6 8.6-9h-6.4L141 68.6v-6.4c-9.9 10.3-19.8 20.6-29.7 31-12.2 12.7-25.2 25-36.7 38.3-.2.2-1.2 1-1.2 1.2-.1-.9 2.7-.6 1.3-1-.6-.2-2.1.4-2.7.5-4.7.8-9.3 1.6-14 2.5-5.6 1-3.2 9.7 2.4 8.7z"/><path class="st4" d="M81.2 123.6c-2.7-2.5-5.4-5-8.2-7.6-1.8-1.7-4.6-1.8-6.4 0-1.7 1.7-1.8 4.7 0 6.4 2.7 2.5 5.4 5 8.2 7.6 1.8 1.7 4.6 1.8 6.4 0 1.7-1.7 1.8-4.8 0-6.4zM129.1 81.4l-15.2-14.6c-4.2-4-10.6 2.3-6.4 6.4l15.2 14.6c4.2 3.9 10.6-2.4 6.4-6.4z"/></svg>