<svg id="Laag_1" xmlns="http://www.w3.org/2000/svg" viewBox="0 0 192.8 192.8"><style>.st0{fill:#231f20}.st1{fill:#7d3c8c}.st2{fill:#333;stroke:#231f20;stroke-width:.8183;stroke-miterlimit:10}.st3{fill:none}.st4{fill:#FFF}.st5{fill:#ff5072}.st6{fill:#231f20;stroke:#231f20;stroke-width:.8146}.st7{fill:#84cd1a}.st8{fill:#231f20;stroke:#231f20;stroke-miterlimit:10}</style><path class="st0" d="M19.5 67.8V176c0 2.4 2.1 4.5 4.5 4.5h144.8c2.4 0 4.5-2.1 4.5-4.5V81.3 67.8c0-2.4-2.1-4.5-4.5-4.5H24c-5.8 0-5.8 9 0 9h144.8l-4.5-4.5V176l4.5-4.5H24l4.5 4.5V81.3 67.8c0-5.8-9-5.8-9 0z"/><path class="st0" d="M92 73v100.5c0 5.8 9 5.8 9 0V85.6 73c0-5.8-9-5.8-9 0z"/><path class="st0" d="M165.2 118.5H26.7c-5.8 0-5.8 9 0 9h138.5c5.7 0 5.8-9 0-9zM98.7 62.9C93.2 60.1 88 57 82.9 53.7c-7.6-5-17.2-11.2-21.3-19.7-1.2-2.5-1.5-5.1-.5-7.2.4-1 1.4-2.1 2.6-2.6 1.2-.5 3.1-.4 5.1.3 2.7 1 5 3 6.9 5C85.4 39.6 89.3 54.7 92 67.9c1.2 5.7 9.9 3.3 8.7-2.4-3-14.4-7.6-29.8-17.5-41.2-5-5.7-12.6-10.9-20.6-9.2-6.5 1.4-10.8 7.1-11.1 13.6-.6 11.2 10 20.2 18 26.3 7.7 5.9 16 11.1 24.6 15.5 5.2 2.7 9.7-5 4.6-7.6z"/><path class="st0" d="M103.1 70.6c7.3-3.7 14.4-8 21.1-12.8 8.5-6.1 19.8-14.6 21.4-25.9.9-6.7-2.4-13.9-9.1-16.2-7.3-2.6-14.9 1.3-20.2 6.3-11.6 11-16.6 28.4-19.7 43.6-1.2 5.7 7.5 8.1 8.7 2.4 2.6-12.4 6.1-25.6 14-35.8 3.3-4.3 8.6-8.8 13.4-8.2 1.2.2 2.5 1.1 3.1 1.9 1.1 1.5 1.4 3.1 1 5.5-1.6 8.5-12.2 15.5-18.7 20-6.1 4.3-12.6 8.2-19.3 11.6-5.4 2.5-.9 10.2 4.3 7.6z"/></svg>