<svg id="Laag_1" xmlns="http://www.w3.org/2000/svg" viewBox="0 0 198.3 200"><style>.st0{fill:#231f20}.st1{fill:#7d3c8c}.st2{fill:#333;stroke:#231f20;stroke-width:.8183;stroke-miterlimit:10}.st3{fill:none}.st4{fill:#FFF}.st5{fill:#ff5072}.st6{fill:#231f20;stroke:#231f20;stroke-width:.8146}.st7{fill:#84cd1a}.st8{fill:#231f20;stroke:#231f20;stroke-miterlimit:10}</style><path class="st0" d="M16.8 154.3c13 6.2 28 8.7 42.3 9.4 3.4.2 5.7-4 3.9-6.8-10.2-16.2-20.5-32.4-30.7-48.7-1.6-2.5-6.4-3.3-7.8 0-5.5 13.1-10 27.8-9.9 42.2 0 5.8 9 5.8 9 0 0-12.8 3.8-26 8.7-37.6h-7.8C34.7 129 45 145.2 55.2 161.4c1.3-2.3 2.6-4.5 3.9-6.8-12.5-.6-26.9-3-37.8-8.1-5.2-2.5-9.7 5.3-4.5 7.8z"/><path class="st0" d="M70 55.5C54 65.8 40.4 79.3 30.8 95.7c-2.5 4.2-8.5 12.3-6.2 17.2 1.1 2.4 3 4.7 4.4 7l18 28.5c2.3 3.6 4.6 7.2 6.8 10.9.4.7.8 1.4 1.3 2 2.1 2.7 4.8 2.4 8 2.4 39.3.1 76.9-20.4 99-52.8 4.4-6.5 8.2-13.4 11.3-20.6 1.7-4 .4-5.8-1.7-9-5.7-9.1-11.5-18.2-17.2-27.3-2.7-4.2-5.3-8.4-8-12.6-.5-.7-.9-1.6-1.4-2.3-2.7-3.4-8-2.4-11.9-2.4-22.4.4-44.1 7-63.2 18.8-4.9 3-.4 10.8 4.5 7.8 20.2-12.5 43-18.4 66.7-17.4-1.3-.7-2.6-1.5-3.9-2.2l28.8 45.6v-4.5c-18.1 42.8-60.2 71.4-107.1 70 1.3.7 2.6 1.5 3.9 2.2-10.2-16.2-20.5-32.4-30.7-48.7v4.5c9-20.5 23.5-37.4 42.3-49.5 4.9-3.1.4-10.9-4.5-7.8z"/><path class="st0" d="M133.5 95.7c-3-4.8-6-9.5-9-14.3-1.3-2-4-3-6.2-1.6-7.9 5-15.7 9.9-23.6 14.9-2 1.3-3 4-1.6 6.2 3 4.8 6 9.5 9 14.3 3.1 4.9 10.9.4 7.8-4.5-3-4.8-6-9.5-9-14.3-1.3-2-4-3-6.2-1.6-7.4 4.7-14.8 9.4-22.2 14-2 1.3-3 4-1.6 6.2 3 4.8 6 9.5 9 14.3 3.1 4.9 10.9.4 7.8-4.5-3-4.8-6-9.5-9-14.3-1.3-2-4-3-6.2-1.6-4.4 2.8-8.7 5.5-13.1 8.3-4.9 3.1-.4 10.9 4.5 7.8 4.4-2.8 8.7-5.5 13.1-8.3 2-1.3 3-4 1.6-6.2-3-4.8-6-9.5-9-14.3-3.1-4.9-10.9-.4-7.8 4.5 3 4.8 6 9.5 9 14.3 1.3 2 4 3 6.2 1.6 7.4-4.7 14.8-9.4 22.2-14 2-1.3 3-4 1.6-6.2-3-4.8-6-9.5-9-14.3-3.1-4.9-10.9-.4-7.8 4.5 3 4.8 6 9.5 9 14.3 1.3 2 4 3 6.2 1.6 7.9-5 15.7-9.9 23.6-14.9 2-1.3 3-4 1.6-6.2-3-4.8-6-9.5-9-14.3-3.1-4.9-10.9-.4-7.8 4.5 3 4.8 6 9.5 9 14.3 1.3 2 4 3 6.2 1.6 4.7-3 9.4-5.9 14-8.9 4.9-3.1.4-10.9-4.5-7.8-4.7 3-9.4 5.9-14 8.9-2 1.3-3 4-1.6 6.2 3 4.8 6 9.5 9 14.3 3.1 4.9 10.9.4 7.8-4.5-3-4.8-6-9.5-9-14.3-.5 2.1-1.1 4.1-1.6 6.2 4.7-3 9.4-5.9 14-8.9 4.9-3.1.4-10.9-4.5-7.8-4.7 3-9.4 5.9-14 8.9 2.1.5 4.1 1.1 6.2 1.6-3-4.8-6-9.5-9-14.3-3.1-4.9-10.9-.4-7.8 4.5 3 4.8 6 9.5 9 14.3.5-2.1 1.1-4.1 1.6-6.2-7.9 5-15.7 9.9-23.6 14.9 2.1.5 4.1 1.1 6.2 1.6-3-4.8-6-9.5-9-14.3-3.1-4.9-10.9-.4-7.8 4.5 3 4.8 6 9.5 9 14.3.5-2.1 1.1-4.1 1.6-6.2-7.4 4.7-14.8 9.4-22.2 14 2.1.5 4.1 1.1 6.2 1.6-3-4.8-6-9.5-9-14.3-3.1-4.9-10.9-.4-7.8 4.5 3 4.8 6 9.5 9 14.3.5-2.1 1.1-4.1 1.6-6.2-4.4 2.8-8.7 5.5-13.1 8.3-4.9 3.1-.4 10.9 4.5 7.8 4.4-2.8 8.7-5.5 13.1-8.3-2.1-.5-4.1-1.1-6.2-1.6 3 4.8 6 9.5 9 14.3 3.1 4.9 10.9.4 7.8-4.5-3-4.8-6-9.5-9-14.3-.5 2.1-1.1 4.1-1.6 6.2 7.4-4.7 14.8-9.4 22.2-14-2.1-.5-4.1-1.1-6.2-1.6 3 4.8 6 9.5 9 14.3 3.1 4.9 10.9.4 7.8-4.5-3-4.8-6-9.5-9-14.3-.5 2.1-1.1 4.1-1.6 6.2 7.9-5 15.7-9.9 23.6-14.9-2.1-.5-4.1-1.1-6.2-1.6 3 4.8 6 9.5 9 14.3 3.1 4.9 10.9.4 7.8-4.5z"/><g><path class="st0" d="M137.4 43.6l28.8 45.6c2.2 3.5 6.8 2.4 8.2-1.1 5-12.2 8.9-25.6 9.3-38.8 0-1.4-.9-3.3-2.2-3.9-12.5-5.5-26.6-7.8-40.2-8.5-5.8-.3-5.8 8.7 0 9 8.9.5 17.6 1.8 26.2 4.2 2.4.7 4.8 1.4 7.1 2.2.8.3 3.5 1.4 2.3.9-.7-1.3-1.5-2.6-2.2-3.9-.4 12.4-4.3 25-9 36.4 2.7-.4 5.5-.7 8.2-1.1L145.1 39c-3-4.8-10.8-.3-7.7 4.6z"/></g></svg>