<svg id="Layer_1" xmlns="http://www.w3.org/2000/svg" viewBox="0 0 25 25"><style>.st0{fill:none;stroke:#231f20;stroke-linecap:round;stroke-linejoin:round;stroke-miterlimit:10}.st1{fill:#231f20}.st2{fill:#ff5072}.st3{fill:#231f20;stroke-miterlimit:10}.st3,.st4{stroke:#231f20;stroke-linecap:round;stroke-linejoin:round}.st4{fill:none}.st5{fill:#7d3c8c;stroke:#7d3c8c}.st5,.st6{stroke-miterlimit:10}.st6{fill:none;stroke:#FFF;stroke-linecap:round;stroke-linejoin:round}.st7{fill:#1ed761;stroke:#1ed761;stroke-width:8.835321e-2}.st7,.st8{stroke-miterlimit:10}.st8{fill:#FFF}.st8,.st9{stroke:#231f20;stroke-linecap:round;stroke-linejoin:round}.st9{fill:#231f20}.st10{stroke-width:.8713}.st10,.st11{fill:none;stroke:#231f20;stroke-linecap:round;stroke-linejoin:round;stroke-miterlimit:10}.st11,.st12{stroke-width:.9352}.st12,.st13{fill:#231f20;stroke:#231f20;stroke-linecap:round;stroke-linejoin:round;stroke-miterlimit:10}.st13{stroke-width:.8065}.st14{fill:#7d3c8c}.st15{fill:none}.st16{stroke:#231f20;stroke-width:.8581;stroke-linecap:round;stroke-linejoin:round;stroke-miterlimit:10}.st16,.st17{fill:none}.st17,.st18{stroke:#231f20;stroke-width:.9197;stroke-linecap:round;stroke-linejoin:round;stroke-miterlimit:10}.st18{fill:#231f20}</style><path class="st17" d="M11.5 13.7L8.7 8.6l1.2-.8 3.3 5.9z"/><ellipse transform="rotate(-28.98 7.928 6.168)" class="st17" cx="7.9" cy="6.2" rx="2.4" ry="2.4"/><path class="st18" d="M15.2 15.2H9.8c-.4 0-.7-.3-.7-.7 0-.4.3-.7.7-.7h5.3c.4 0 .7.3.7.7.1.4-.2.7-.6.7z"/><path class="st17" d="M19.2 21.2H5.8c-.5 0-.8-.4-.8-.8V16c0-.5.4-.8.8-.8h13.4c.5 0 .8.4.8.8v4.4c0 .5-.4.8-.8.8z"/><circle class="st18" cx="7.9" cy="18.2" r=".9"/><circle class="st18" cx="11.1" cy="18.2" r=".9"/></svg>