<svg id="Laag_1" xmlns="http://www.w3.org/2000/svg" viewBox="0 0 167.6 183.5"><style>.st0{fill:#231f20}.st1{fill:#7d3c8c}.st2{fill:#333;stroke:#231f20;stroke-width:.8183;stroke-miterlimit:10}.st3{fill:none}.st4{fill:#FFF}.st5{fill:#ff5072}.st6{fill:#231f20;stroke:#231f20;stroke-width:.8146}.st7{fill:#84cd1a}.st8{fill:#231f20;stroke:#231f20;stroke-miterlimit:10}</style><path class="st0" d="M28 141c-.1-12.6 1.1-25.3 3-37.7 3.2-21.2 8.6-45.3 23-62 13.7-15.9 37.3-19.8 53.9-5.8 16.9 14.3 23.6 38.4 27.7 59.2 3 15.2 4.8 30.8 4.8 46.3l4.5-4.5H23.5c-5.8 0-5.8 9 0 9h121.4c2.4 0 4.5-2.1 4.5-4.5 0-14.2-1.6-28.6-4-42.7-3.9-23-10.8-48.7-27.6-65.9-16.4-16.9-43.2-19.7-62.2-5.2-18.9 14.5-26.9 40-31.4 62.4-3.4 16.8-5.4 34.2-5.3 51.3.1 5.9 9.1 5.9 9.1.1zM98.7 160.1c0 7.7-5.7 14.1-14.4 14.1-8.9 0-14.6-6.7-14.7-14.1l-4.5 4.5h38.1c5.8 0 5.8-9 0-9H65.1c-2.4 0-4.5 2.1-4.5 4.5.1 13.3 10.5 23.1 23.7 23.1s23.5-9.9 23.4-23.1c0-5.8-9-5.8-9 0z"/><path class="st0" d="M4.6 145.5H163c5.8 0 5.8-9 0-9H4.6c-5.8 0-5.8 9 0 9zM88.3 22.8V4.6c0-5.8-9-5.8-9 0v18.2c0 5.8 9 5.8 9 0z"/></svg>