<svg id="Laag_1" xmlns="http://www.w3.org/2000/svg" viewBox="0 0 193.3 197.3"><style>.st0{fill:#231f20}.st1{fill:#7d3c8c}.st2{fill:#333;stroke:#231f20;stroke-width:.8183;stroke-miterlimit:10}.st3{fill:none}.st4{fill:#FFF}.st5{fill:#ff5072}.st6{fill:#231f20;stroke:#231f20;stroke-width:.8146}.st7{fill:#84cd1a}.st8{fill:#231f20;stroke:#231f20;stroke-miterlimit:10}</style><path class="st0" d="M10.8 98.6C11 62.9 33.5 30 67.3 17.8c34.1-12.3 72.8-1.6 95.9 26.3 22.9 27.7 25.7 68.2 7.2 98.9-18.4 30.6-55.1 47-90.2 40-40.1-7.9-69.1-43.6-69.4-84.4 0-5.8-9-5.8-9 0 .3 39.7 25.2 75.6 62.6 89.3 37.4 13.8 81.1 1.6 106.1-29.4 24.9-30.9 28.3-75.3 7.5-109.4C157.1 15.3 116.7-2.2 77.8 5.6c-44 8.7-75.7 48.6-76 93.1-.1 5.7 8.9 5.7 9-.1z"/><path class="st0" d="M92.2 46v52.7c0 5.8 9 5.8 9 0V46c0-5.8-9-5.8-9 0z"/><path class="st0" d="M93.6 95.5l-36.1 36.1c-4.1 4.1 2.3 10.5 6.4 6.4l36.1-36.1c4-4.2-2.3-10.5-6.4-6.4z"/></svg>