<svg id="Laag_1" xmlns="http://www.w3.org/2000/svg" viewBox="0 0 192.8 192.8"><style>.st0{fill:#231f20}.st1{fill:#7d3c8c}.st2{fill:#333;stroke:#231f20;stroke-width:.8183;stroke-miterlimit:10}.st3{fill:none}.st4{fill:#FFF}.st5{fill:#ff5072}.st6{fill:#231f20;stroke:#231f20;stroke-width:.8146}.st7{fill:#84cd1a}.st8{fill:#231f20;stroke:#231f20;stroke-miterlimit:10}</style><path class="st0" d="M68.3 55.2h56.1c5.8 0 5.8-9 0-9H68.3c-5.8 0-5.8 9 0 9z"/><path class="st0" d="M76.7 53.4v50.7c.4-1.1.9-2.1 1.3-3.2-16.2 18.2-32.4 36.4-48.5 54.7-2.5 2.8-.9 7.7 3.2 7.7H160.1c4 0 5.7-4.8 3.2-7.7-16.2-17.9-32.3-35.8-48.5-53.7.4 1.1.9 2.1 1.3 3.2 0-17.2-.1-34.4-.1-51.7 0-2.4-2.1-4.5-4.5-4.5H81.3c-5.8 0-5.8 9 0 9h30.2l-4.5-4.5c0 7.9 0 15.9.1 23.8 0 9-.8 18.5.1 27.4.5 5 7.2 10 10.3 13.5 7.8 8.6 15.6 17.3 23.5 25.9 5.4 5.9 10.7 11.8 16.1 17.8 1.1-2.6 2.1-5.1 3.2-7.7H32.9c1.1 2.6 2.1 5.1 3.2 7.7 11.9-13.5 24-27.2 36.1-40.8 4-4.5 9.4-9 12.5-14.2 1.5-2.4 1-5.7 1-8.5V82.7 53.4c0-5.8-9-5.8-9 0z"/><path class="st8" d="M62.5 147.1l14.1-15.3h39.3l13.9 15.3z"/></svg>