<svg id="Laag_1" xmlns="http://www.w3.org/2000/svg" viewBox="0 0 198.3 200"><style>.st0{fill:#231f20}.st1{fill:#7d3c8c}.st2{fill:#333;stroke:#231f20;stroke-width:.8183;stroke-miterlimit:10}.st3{fill:none}.st4{fill:#FFF}.st5{fill:#ff5072}.st6{fill:#231f20;stroke:#231f20;stroke-width:.8146}.st7{fill:#84cd1a}.st8{fill:#231f20;stroke:#231f20;stroke-miterlimit:10}</style><path class="st0" d="M175.7 88.6c-.4-20.5-17.2-35-34.8-42.5-23-9.8-50.4-10.8-74.2-3.4-18.1 5.6-38 17.7-43 37.4-4.4 17.7 4.5 35.8 18.7 46.2 19.3 14.2 44 13.9 66.8 12.3-1.1-.4-2.1-.9-3.2-1.3 11.8 9.7 25.2 20 39.9 24.6 3.4 1.1 6.4-2.3 5.5-5.5-1.9-7.5-3.2-15-3.4-22.8 0-2 0-4 .2-6 .1-.7.1-1.3.2-2-.1 1.2-.1.6 0 .3.5-3.1-2-6.7-5.5-5.5h-.1c1.2 2.7 2.3 5.5 3.5 8.2 15.4-8.1 29-21.6 29.4-40 .1-5.8-8.9-5.8-9 0-.3 15.1-12.4 25.6-24.9 32.2-4.5 2.3-1.4 9.9 3.5 8.2h.1l-5.5-5.5c-2 11.6.1 24.1 3 35.3l5.5-5.5c-10-3.1-19-9.6-27.3-15.7-4.1-3-8.3-8-13.6-7.8-22.1.9-47 2.1-64.2-14.5-13.7-13.2-15.4-34-1.9-47.9C58.7 49.5 87.7 45 111.5 47.6c21.7 2.4 54.7 14.6 55.2 41 .1 5.8 9.1 5.8 9 0z"/></svg>