<svg id="Laag_1" xmlns="http://www.w3.org/2000/svg" viewBox="0 0 198.3 200"><style>.st0{fill:#231f20}.st1{fill:#7d3c8c}.st2{fill:#333;stroke:#231f20;stroke-width:.8183;stroke-miterlimit:10}.st3{fill:none}.st4{fill:#FFF}.st5{fill:#ff5072}.st6{fill:#231f20;stroke:#231f20;stroke-width:.8146}.st7{fill:#84cd1a}.st8{fill:#231f20;stroke:#231f20;stroke-miterlimit:10}</style><path class="st3" d="M107.2 98.5c0-.2.1-.5.1-.7v-.4c0-1.3-.4-2.5-1-3.6-.1-.2-.2-.3-.3-.5-.8-1.1-1.9-2-3.1-2.4-.2-.1-.4-.2-.6-.2-.6-.2-1.2-.3-1.9-.3-3.7 0-6.7 2.9-6.9 6.5v.7c.1 1.4.5 2.7 1.3 3.8.1.1.2.3.3.4.9 1.1 2.1 1.8 3.5 2.2.2.1.5.1.7.2.4.1.8.1 1.2.1 3.3 0 6.1-2.5 6.7-5.8z"/><path class="st0" d="M119.6 86.1c-.2-.6-.5-1.2-1-1.7-.3-.5-.8-1-1.4-1.4C102 72.8 86.8 62.6 71.5 52.4l-.9-.6c-2-1.2-3.9-.6-5 .7-1.1.9-1.8 2.4-1.3 4.3 4.8 18 9.7 35.9 14.5 53.9.2.6.5 1.2 1 1.7.3.5.8 1 1.4 1.4 15.2 10.2 30.4 20.4 45.7 30.6l.9.6c2 1.2 3.9.6 5-.7 1.1-.9 1.8-2.4 1.3-4.3-4.8-18-9.6-36-14.5-53.9zM98.4 104c-1.4-.4-2.6-1.2-3.5-2.2-.1-.1-.2-.3-.3-.4-.8-1.1-1.2-2.4-1.3-3.8v-.3-.4c.2-3.6 3.2-6.5 6.9-6.5.6 0 1.3.1 1.9.3.2.1.4.1.6.2 1.3.5 2.4 1.3 3.1 2.4.1.1.2.3.3.5.6 1 1 2.3 1 3.6v.4c0 .2 0 .5-.1.7-.5 3.3-3.4 5.8-6.9 5.8-.4 0-.8 0-1.2-.1 0-.1-.2-.1-.5-.2z"/><path class="st0" d="M168.9 138.6c-17.6 28.6-52.5 44.3-85.5 36.9-30.8-6.9-54.9-31.9-61.3-62.8-6.6-31.5 8-65.3 34.9-82.7 28.3-18.3 66.4-16.2 92.8 4.5 31.6 24.6 39.3 69.8 19.1 104.1-2.9 5 4.8 9.5 7.8 4.5 19.7-33.4 15.8-77.3-10.6-105.9C140.4 9.6 98.9.8 64.4 15.8 31.6 30.1 9.5 65.6 11.5 101.5c2 35.2 25.1 66.7 58.1 79.2 39.5 15 85.1-1.9 107.1-37.6 3-4.9-4.8-9.5-7.8-4.5z"/></svg>