<svg id="Laag_1" xmlns="http://www.w3.org/2000/svg" viewBox="0 0 192.8 192.8"><style>.st0{fill:#231f20}.st1{fill:#7d3c8c}.st2{fill:#333;stroke:#231f20;stroke-width:.8183;stroke-miterlimit:10}.st3{fill:none}.st4{fill:#FFF}.st5{fill:#ff5072}.st6{fill:#231f20;stroke:#231f20;stroke-width:.8146}.st7{fill:#84cd1a}.st8{fill:#231f20;stroke:#231f20;stroke-miterlimit:10}</style><path class="st0" d="M96.1 86.4c-6 2.6-12.2 4.6-18.4 6.3-2.3.6-3.5 3.4-2.2 5.5 3 5.1 6.8 9.9 10.8 14.3-6.9 10.5-20.5 14.5-32.2 16.6-6.7 1.2-13.6 1.8-20.4 1.8C44 103 58.2 76.5 78.3 54.6c13.9-15.1 31.1-28.4 50.6-35.2 2.3-.8 4.6-1.5 7-2.1 2.3 8.3 2.3 16.9.4 25.1 2.6.5 4.9 1.3 7.1 2.5 1.7-8 1.9-16.3.7-24.4-.4-2.9-1-5.8-2-8.5-.5-1.4-1.9-3-3.6-2.8-11.4 1.5-22.6 7-32.4 12.8C79.9 37.7 59.7 62 45 88.4c-13.4 24-22.8 50-29.7 76.5-1.2 4.7 6 6.7 7.2 2 2.5-9.6 5.3-19.1 8.6-28.6 21.4.7 52.4-3.4 63.1-24.4.8-1.5.6-3.3-.6-4.6-3.3-3.4-6.3-7-9-10.8 5.1-1.6 10.2-3.4 15.1-5.6-1.5-2-2.7-4.2-3.6-6.5z"/><path class="st0" d="M109.7 67.7c4.3 4.7 8.5 9.4 12.8 14.1 1.8 2 3.5 4.2 5.9 5.6 4.6 2.7 10.7 2.2 14.8-1.1 3.5-2.8 6.3-6.8 9.3-10.2L169 57.5c3.6-4.1 7.3-8.2 10.9-12.3 3.8-4.3-2.5-10.7-6.4-6.4-10 11.3-20 22.5-30 33.8-1.5 1.7-3 3.6-4.6 5.2-2.9 3-5.3 2.5-8-.3-5.1-5.3-9.9-10.9-14.8-16.3-3.9-4.1-10.3 2.2-6.4 6.5z"/></svg>