<svg id="Layer_1" xmlns="http://www.w3.org/2000/svg" viewBox="0 0 25 25"><style>.st0{fill:none;stroke:#231f20;stroke-linecap:round;stroke-linejoin:round;stroke-miterlimit:10}.st1{fill:#231f20}.st2{fill:#ff5072}.st3{fill:#231f20;stroke-miterlimit:10}.st3,.st4{stroke:#231f20;stroke-linecap:round;stroke-linejoin:round}.st4{fill:none}.st5{fill:#7d3c8c;stroke:#7d3c8c}.st5,.st6{stroke-miterlimit:10}.st6{fill:none;stroke:#FFF;stroke-linecap:round;stroke-linejoin:round}.st7{fill:#1ed761;stroke:#1ed761;stroke-width:8.835321e-2}.st7,.st8{stroke-miterlimit:10}.st8{fill:#FFF}.st8,.st9{stroke:#231f20;stroke-linecap:round;stroke-linejoin:round}.st9{fill:#231f20}.st10{stroke-width:.8713}.st10,.st11{fill:none;stroke:#231f20;stroke-linecap:round;stroke-linejoin:round;stroke-miterlimit:10}.st11,.st12{stroke-width:.9352}.st12,.st13{fill:#231f20;stroke:#231f20;stroke-linecap:round;stroke-linejoin:round;stroke-miterlimit:10}.st13{stroke-width:.8065}.st14{fill:#7d3c8c}.st15{fill:none}.st16{stroke:#231f20;stroke-width:.8581;stroke-linecap:round;stroke-linejoin:round;stroke-miterlimit:10}.st16,.st17{fill:none}.st17,.st18{stroke:#231f20;stroke-width:.9197;stroke-linecap:round;stroke-linejoin:round;stroke-miterlimit:10}.st18{fill:#231f20}</style><path class="st0" d="M10.1 11.2C9.2 12.6 7.6 13.3 6 13c-1.8-.4-3.1-2-3.1-3.8 0-1.6 1-3.1 2.5-3.6C7 5 8.7 5.5 9.7 6.7c1.1 1.3 1.2 3.1.4 4.5zM18.7 17.8c-.8 1.4-2.5 2.1-4.1 1.8-1.8-.4-3.1-2-3.1-3.8 0-1.6 1-3.1 2.5-3.6 1.5-.6 3.3-.1 4.3 1.2 1.1 1.2 1.2 3 .4 4.4zM4.5 14.4H9M6.7 14.4v3.4M21.6 12.5l-2.7 1.4M19.2 11.4l2.9.9-.8 2.8"/></svg>