<svg id="Laag_1" xmlns="http://www.w3.org/2000/svg" viewBox="0 0 227.4 190.7"><style>.st0{fill:#231f20}.st1{fill:#7d3c8c}.st2{fill:#333;stroke:#231f20;stroke-width:.8183;stroke-miterlimit:10}.st3{fill:none}.st4{fill:#FFF}.st5{fill:#ff5072}.st6{fill:#231f20;stroke:#231f20;stroke-width:.8146}.st7{fill:#84cd1a}.st8{fill:#231f20;stroke:#231f20;stroke-miterlimit:10}</style><path class="st0" d="M48.1 58c.3-15.9 10-30.6 25.2-35.9 15.2-5.3 32.3-.6 42.5 11.8 10 12.3 11.2 30.1 3.1 43.7-8.1 13.5-24.3 20.9-39.8 17.9C61.2 92 48.4 76.3 48.1 58c-.1-5.8-9.1-5.8-9 0 .3 19.8 12.5 37.5 31.2 44.4 18.4 6.8 39.9.7 52.3-14.4 12.4-15.2 14.2-37.2 4.1-54.1-10.2-17.1-30.4-25.9-49.9-22C54.9 16.2 39.5 36 39.1 58c0 5.8 9 5.8 9 0z"/><path class="st0" d="M21.1 146.5c9.2-14.4 23.8-26.9 39.3-33.9 26.9-12 56.1-3.1 76.8 16.4 4.9 4.6 9.6 9.6 13.1 15.1.2-1.8.5-3.6.7-5.5-10.3 10.9-25.6 18.1-39.9 21.9-26 7.1-56.2 4.5-79.2-10.1-4.1-2.6-8.4-5.7-11.5-9.5-3.7-4.4-10.1 2-6.4 6.4 10.4 12.3 28 19.6 43.2 23.1 28.7 6.5 60.1 2 85.1-13.7 5.3-3.3 10.7-7.1 15-11.7 1.3-1.4 1.8-3.8.7-5.5-10.6-16.5-27.8-30.2-46-37-30-11.2-60.9-.4-83.2 21-5.7 5.5-11.2 11.6-15.5 18.3-3.1 5.1 4.6 9.6 7.8 4.7zM190.5 107.8L218 80.3c1.7-1.7 1.7-4.7 0-6.4-9.2-8.9-18.3-17.8-27.5-26.7-4.2-4-10.5 2.3-6.4 6.4 9.2 8.9 18.3 17.8 27.5 26.7v-6.4l-27.5 27.5c-4.1 4.1 2.3 10.5 6.4 6.4z"/><g><path class="st0" d="M212.7 73h-61.6c-5.8 0-5.8 9 0 9h61.6c5.7 0 5.8-9 0-9z"/></g></svg>