<svg id="Laag_1" xmlns="http://www.w3.org/2000/svg" viewBox="0 0 198.3 200"><style>.st0{fill:#231f20}.st1{fill:#7d3c8c}.st2{fill:#333;stroke:#231f20;stroke-width:.8183;stroke-miterlimit:10}.st3{fill:none}.st4{fill:#FFF}.st5{fill:#ff5072}.st6{fill:#231f20;stroke:#231f20;stroke-width:.8146}.st7{fill:#84cd1a}.st8{fill:#231f20;stroke:#231f20;stroke-miterlimit:10}</style><path class="st0" d="M8.7 123.2h33c2 0 3.8-1.4 4.3-3.3 8.2-29.2 16.3-58.3 24.5-87.5 1.2-4.2 2.3-8.3 3.5-12.5h-8.7c11.5 47.5 23.1 95 34.6 142.5 1.6 6.7 3.2 13.3 4.9 20 1.1 4.4 7.5 4.2 8.7 0 8.5-31.5 16.9-63.1 25.4-94.6 1.2-4.5 2.4-8.9 3.6-13.4h-8.7c4 12.3 8 24.7 12 37 .6 1.9 2.3 3.3 4.3 3.3h39.4c5.8 0 5.8-9 0-9h-39.4c1.4 1.1 2.9 2.2 4.3 3.3-4-12.3-8-24.7-12-37-1.3-4.1-7.5-4.4-8.7 0-8.5 31.5-16.9 63.1-25.4 94.6-1.2 4.5-2.4 8.9-3.6 13.4h8.7c-11.4-47.5-23-95-34.5-142.5-1.6-6.7-3.2-13.3-4.9-20-1.1-4.4-7.5-4.2-8.7 0C57.2 46.7 49 75.9 40.8 105c-1.2 4.2-2.3 8.3-3.5 12.5 1.4-1.1 2.9-2.2 4.3-3.3h-33c-5.7 0-5.7 9 .1 9z"/></svg>