<svg id="Laag_1" xmlns="http://www.w3.org/2000/svg" viewBox="0 0 198.3 200"><style>.st0{fill:#231f20}.st1{fill:#7d3c8c}.st2{fill:#333;stroke:#231f20;stroke-width:.8183;stroke-miterlimit:10}.st3{fill:none}.st4{fill:#FFF}.st5{fill:#ff5072}.st6{fill:#231f20;stroke:#231f20;stroke-width:.8146}.st7{fill:#84cd1a}.st8{fill:#231f20;stroke:#231f20;stroke-miterlimit:10}</style><path class="st0" d="M15 100c.3-35.7 22.7-68.7 56.6-80.8 34.1-12.3 72.8-1.6 95.9 26.3 22.9 27.7 25.7 68.2 7.2 98.9-18.4 30.6-55.1 47.1-90.2 40.1-40.2-8.1-69.2-43.8-69.5-84.5 0-5.8-9-5.8-9 0 .3 39.7 25.2 75.6 62.6 89.3 37.4 13.8 81.1 1.6 106.1-29.4 24.9-30.9 28.3-75.3 7.5-109.4C161.4 16.7 120.9-.8 82 6.9 38.1 15.6 6.3 55.5 6 100c-.1 5.8 8.9 5.8 9 0z"/><path class="st0" d="M69.7 82.1s17.2 58.1 19.8 63.1c2.6 4.9 8.4 9 16.3 4.8s7.3-11.6 5.1-15.8c-2.7-5-41.2-52.1-41.2-52.1z"/><path class="st0" d="M65.4 83.3c2.9 9.7 5.8 19.5 8.8 29.2 3.4 11.2 6 23.7 11.2 34.3 9 18.7 38.4 5.4 30.1-13.5-1.7-3.9-4.8-7.2-7.4-10.6-4.3-5.5-8.6-11-12.9-16.4-7.5-9.1-14.9-18.2-22.3-27.3-3.7-4.5-10 1.9-6.4 6.4 12.6 15.4 25.5 30.8 37.4 46.8 2.1 2.9 4.9 6 3.6 9.8-1.5 4.5-8.1 6.9-11.9 3.9-1.1-.8-1.8-2-2.4-3.2.5.9-.2-.5-.4-1.1-3.8-10.7-7-21.6-10.3-32.4-2.9-9.4-5.7-18.8-8.5-28.2-1.6-5.6-10.3-3.2-8.6 2.3zM42.7 100H27.5M42.7 95.5H27.5c-5.8 0-5.8 9 0 9h15.2c5.8 0 5.8-9 0-9zM173 100h-15.3M173 95.5h-15.2c-5.8 0-5.8 9 0 9H173c5.7 0 5.8-9 0-9z"/><g><path class="st0" d="M99.1 40.7V25.5M103.6 40.7V25.5c0-5.8-9-5.8-9 0v15.2c0 5.8 9 5.8 9 0z"/></g><g><path class="st0" d="M142.5 59.9l10.8-10.8M145.7 63.1l10.8-10.8c4.1-4.1-2.3-10.5-6.4-6.4l-10.8 10.8c-4 4.1 2.3 10.5 6.4 6.4z"/></g><g><path class="st0" d="M46.7 49.1l10.7 10.8M43.5 52.3l10.8 10.8c4.1 4.1 10.5-2.3 6.4-6.4-3.7-3.6-7.2-7.2-10.8-10.7-4.1-4.1-10.5 2.2-6.4 6.3z"/></g></svg>