<svg id="Laag_1" xmlns="http://www.w3.org/2000/svg" viewBox="0 0 198.3 200"><style>.st0{fill:#231f20}.st1{fill:#7d3c8c}.st2{fill:#333;stroke:#231f20;stroke-width:.8183;stroke-miterlimit:10}.st3{fill:none}.st4{fill:#FFF}.st5{fill:#ff5072}.st6{fill:#231f20;stroke:#231f20;stroke-width:.8146}.st7{fill:#84cd1a}.st8{fill:#231f20;stroke:#231f20;stroke-miterlimit:10}</style><path class="st0" d="M178.3 105c-14.1 15.8-33.4 29.2-53.3 36.3-16.8 6-34.4 6.9-51.6 1.9-14.8-4.3-28.5-12.2-40.7-21.5-6.6-5-13-10.6-18.6-16.8v6.4c14.7-14 34.2-24.9 53.5-30.7 32.2-9.8 64.3-1.3 91.9 16.5 6.5 4.2 13 8.8 18.7 14.2 4.2 4 10.6-2.4 6.4-6.4-16-15.3-37.1-27-58.2-33.3-34-10.1-68.5-1.4-97.7 17.3-7.3 4.7-14.6 9.9-21 15.9-1.8 1.7-1.6 4.6 0 6.4C23 128.4 44 142.5 65.6 150.1c34.5 12.1 69.4 1.2 97.7-20 7.5-5.7 15-11.8 21.3-18.9 3.9-4.1-2.5-10.5-6.3-6.2z"/><path class="st0" d="M116.4 100c-.3 11.5-9.3 21.1-21.1 21.1-11.5 0-21-9.6-21.1-21.1 0-11.5 9.6-21.1 21.1-21.1 11.8 0 20.8 9.6 21.1 21.1.2 5.8 9.2 5.8 9 0-.3-12.5-7.7-23.7-19.5-28.2-11.7-4.4-25.5-.8-33.6 8.8-17.7 21.2 1.3 53.7 28.4 48.9 14.4-2.5 24.3-15.2 24.7-29.6.2-5.7-8.8-5.7-9 .1z"/></svg>