<svg id="Laag_1" xmlns="http://www.w3.org/2000/svg" viewBox="0 0 198.3 200"><style>.st0{fill:#231f20}.st1{fill:#7d3c8c}.st2{fill:#333;stroke:#231f20;stroke-width:.8183;stroke-miterlimit:10}.st3{fill:none}.st4{fill:#FFF}.st5{fill:#ff5072}.st6{fill:#231f20;stroke:#231f20;stroke-width:.8146}.st7{fill:#84cd1a}.st8{fill:#231f20;stroke:#231f20;stroke-miterlimit:10}</style><path class="st2" d="M170.9 105.3c.9 14-2.2 28.3-9.6 40.7-15.1 25.3-45.4 38.8-74.3 32.8C54.6 172 31.2 143 30.9 110c.2-29.2 18.7-56.2 46.4-66 5.9-2.1 12.1-3.3 18.2-3.8v-9c-3.3.2-6.6.6-9.9 1.3C48.9 39.6 22.3 72.9 22 110c.2 33 21 62.8 52 74.3 31 11.4 67.3 1.5 88.1-24.2 12.7-15.6 18.7-35.4 17.7-54.9h-8.9z"/><path class="st0" d="M78.7 106.5c.3-13 10.6-23.8 23.8-23.8 13 0 23.8 10.8 23.8 23.8 0 12.9-10.8 23.8-23.8 23.8-13.2 0-23.5-10.8-23.8-23.8-.1-5.8-9.1-5.8-9 0 .3 13.6 8.4 25.7 21.2 30.6 13 5 28.1.9 36.9-9.8 8.6-10.5 9.9-25.8 2.9-37.5S110 71.9 96.6 74.3C81 77.2 70.1 90.9 69.7 106.5c-.1 5.8 8.9 5.8 9 0z"/><path class="st0" d="M61.1 168.2c8.6-13.4 24.3-24.9 40.5-25.4 16.8-.6 33.7 10.2 42.5 23.9.2-1.8.5-3.6.7-5.5-10.6 11.2-28 16.3-42.9 16.5-14.1.2-31.9-3.6-41.5-15-3.7-4.4-10.1 2-6.4 6.4 11.1 13.1 31.6 17.8 47.9 17.6 17.2-.2 37.1-6.3 49.3-19.2 1.3-1.4 1.8-3.8.7-5.5-10.7-16.5-30.3-29-50.2-28.3-19.5.6-37.9 13.7-48.3 29.9-3.2 5 4.6 9.5 7.7 4.6z"/><g><path class="st0" d="M179.8 43.4h-53.9c-5.8 0-5.8 9 0 9h53.9c5.8 0 5.8-9 0-9z"/></g><g><path class="st0" d="M157.3 74.8V20.9c0-5.8-9-5.8-9 0v53.9c0 5.8 9 5.8 9 0z"/></g></svg>