<svg id="Laag_1" xmlns="http://www.w3.org/2000/svg" viewBox="0 0 192.8 192.8"><style>.st0{fill:#231f20}.st1{fill:#7d3c8c}.st2{fill:#333;stroke:#231f20;stroke-width:.8183;stroke-miterlimit:10}.st3{fill:none}.st4{fill:#FFF}.st5{fill:#ff5072}.st6{fill:#231f20;stroke:#231f20;stroke-width:.8146}.st7{fill:#84cd1a}.st8{fill:#231f20;stroke:#231f20;stroke-miterlimit:10}</style><path class="st0" d="M142.2 28L46.8 167.2M138.4 25.8C110.5 66.4 82.6 107 54.8 147.6c-4 5.8-7.9 11.5-11.9 17.3-3.3 4.8 4.5 9.3 7.8 4.5 27.9-40.6 55.7-81.2 83.6-121.9 4-5.8 7.9-11.5 11.9-17.3 3.2-4.7-4.6-9.2-7.8-4.4z"/><g><path class="st0" d="M163.3 139.1c-17.6 28.6-52.5 44.3-85.5 36.9-30.8-6.9-54.9-31.9-61.3-62.8-6.5-31.5 8.1-65.3 35-82.7 28.3-18.3 66.4-16.2 92.8 4.5 31.4 24.7 39.1 69.9 19 104.1-2.9 5 4.8 9.5 7.8 4.5 19.7-33.4 15.8-77.3-10.6-105.9C134.8 10.1 93.3 1.4 58.8 16.4 25.9 30.7 3.9 66.2 5.9 102.1c2 35.2 25.1 66.7 58.1 79.2 39.5 15 85.1-1.9 107.1-37.6 3-5-4.8-9.5-7.8-4.6z"/></g></svg>