<svg id="Laag_1" xmlns="http://www.w3.org/2000/svg" viewBox="0 0 192.8 192.8"><style>.st0{fill:#231f20}.st1{fill:#7d3c8c}.st2{fill:#333;stroke:#231f20;stroke-width:.8183;stroke-miterlimit:10}.st3{fill:none}.st4{fill:#FFF}.st5{fill:#ff5072}.st6{fill:#231f20;stroke:#231f20;stroke-width:.8146}.st7{fill:#84cd1a}.st8{fill:#231f20;stroke:#231f20;stroke-miterlimit:10}</style><path class="st0" d="M68.2 93.6c.2-12.4 7.8-23.9 19.8-28 11.7-4.1 24.8-.5 32.8 8.9 17.8 20.9-1.5 53.5-28.3 48.4-14.2-2.8-24-15.2-24.3-29.3-.1-5.8-9.1-5.8-9 0 .3 16.3 10.3 30.9 25.7 36.5 15.2 5.5 32.8.5 43-12 10.2-12.5 11.7-30.6 3.3-44.5-8.4-13.9-24.6-21-40.5-18.1-18.3 3.3-31.1 19.8-31.5 38.1-.1 5.7 8.9 5.7 9 0z"/><path class="st0" d="M46.3 165.1c7.2-11.3 18.6-21.1 30.8-26.7 21.4-9.8 44.7-2.6 61.2 12.9 3.8 3.6 7.5 7.5 10.3 11.9.2-1.8.5-3.6.7-5.5-13 13.8-34.5 20.1-52.9 20.3-17.2.2-39-4.5-50.8-18.5-3.7-4.4-10.1 2-6.4 6.4 8.4 10 22.6 16 35 18.8 23.2 5.3 48.5 1.7 68.8-10.9 4.5-2.8 9-5.9 12.6-9.8 1.3-1.4 1.8-3.8.7-5.5-8.7-13.5-22.8-24.7-37.8-30.2-24.3-9-49.4-.1-67.5 17.2-4.6 4.5-9.1 9.5-12.6 14.9-3 5.1 4.8 9.6 7.9 4.7z"/><g><path class="st0" d="M165 141.1c-17.6 28.6-52.5 44.3-85.5 36.9-30.9-7-55-32-61.4-62.8-6.5-31.5 8.1-65.3 35-82.7 28.3-18.3 66.4-16.2 92.8 4.5 31.5 24.6 39.2 69.9 19.1 104.1-2.9 5 4.8 9.5 7.8 4.5 19.7-33.4 15.8-77.3-10.6-105.9C136.5 12.1 95 3.3 60.5 18.4 27.6 32.7 5.6 68.2 7.6 104c2 35.2 25.1 66.7 58.1 79.2 39.5 15 85.1-1.9 107.1-37.6 3-4.9-4.8-9.4-7.8-4.5z"/></g></svg>