<svg id="Laag_1" xmlns="http://www.w3.org/2000/svg" viewBox="0 0 192.8 192.8"><style>.st0{fill:#231f20}.st1{fill:#7d3c8c}.st2{fill:#333;stroke:#231f20;stroke-width:.8183;stroke-miterlimit:10}.st3{fill:none}.st4{fill:#FFF}.st5{fill:#ff5072}.st6{fill:#231f20;stroke:#231f20;stroke-width:.8146}.st7{fill:#84cd1a}.st8{fill:#231f20;stroke:#231f20;stroke-miterlimit:10}</style><path class="st0" d="M90.1 6.9c0 9 .1 18 .1 27 0 5.8 9 5.8 9 0 0-9-.1-18-.1-27 0-5.8-9-5.8-9 0zM157.3 28.7c-6.3 6.4-12.7 12.8-19 19.1-4.1 4.1 2.3 10.5 6.4 6.4 6.3-6.4 12.7-12.8 19-19.1 4-4.1-2.3-10.5-6.4-6.4zM31 35.5c6.4 6.3 12.8 12.7 19.1 19 4.1 4.1 10.5-2.3 6.4-6.4-6.4-6.3-12.8-12.7-19.1-19-4.1-4-10.5 2.4-6.4 6.4zM78.2 175.2c12 0 24-.1 36-.1 2.4 0 4.5-2.1 4.5-4.5 0-12-.1-24-.1-36-1.1 1.4-2.2 2.9-3.3 4.3 11.7-3.4 20.5-14.4 24.2-25.5 6.6-20.1 1.1-43.9-17.1-55.8-12.7-8.2-28.8-10-42.8-4.4-20.4 8.1-29.7 28-27.3 49.3C54 117.6 61.9 134 76.8 140c-1.1-1.4-2.2-2.9-3.3-4.3.1 11.7.2 23.4.4 35.1.1 5.8 9.1 5.8 9 0-.1-11.7-.2-23.4-.4-35.1 0-2.2-1.4-3.6-3.3-4.3 2.1.8-.7-.4-1.3-.8-1.7-1-3.3-2.1-4.7-3.4-5.2-4.7-8.7-10.9-10.5-17.7-4.8-17.5-.3-37.3 16.6-46.1 10.4-5.5 22.5-5.7 33.2-.9 16.7 7.5 23.1 25 20 42.4-1.4 8-5 15.6-11.4 20.9-2.6 2.2-5.9 4-8 4.6-1.9.5-3.3 2.4-3.3 4.3 0 12 .1 24 .1 36l4.5-4.5c-12 0-24 .1-36 .1-6 0-6 9-.2 8.9z"/><path class="st0" d="M77.963 148.963l36.1-.124.075 21.8-36.1.123z"/><path class="st0" d="M78 153.5c12 0 24.1-.1 36.1-.1l-4.5-4.5c0 7.3 0 14.5.1 21.8l4.5-4.5c-12 0-24.1.1-36.1.1l4.5 4.5c0-7.3 0-14.5-.1-21.8 0-5.8-9-5.8-9 0 0 7.3 0 14.5.1 21.8 0 2.4 2.1 4.5 4.5 4.5 12 0 24.1-.1 36.1-.1 2.4 0 4.5-2.1 4.5-4.5 0-7.3 0-14.5-.1-21.8 0-2.4-2.1-4.5-4.5-4.5-12 0-24.1.1-36.1.1-5.8 0-5.8 9 0 9z"/><path class="st0" d="M106.9 173.6c0 5.9-4.8 10.8-10.7 10.8-5.9 0-10.8-4.8-10.8-10.7s4.8 0 10.7 0c6 0 10.8-6 10.8-.1z"/><g><path class="st0" d="M95.2 64.6C81.6 67.2 69.7 78 67.5 91.9c-.9 5.7 7.8 8.1 8.7 2.4 1.8-11.1 10.6-18.9 21.4-21 5.7-1.2 3.3-9.9-2.4-8.7z"/></g></svg>