<svg id="Laag_1" xmlns="http://www.w3.org/2000/svg" viewBox="0 0 198.3 200"><style>.st0{fill:#231f20}.st1{fill:#7d3c8c}.st2{fill:#333;stroke:#231f20;stroke-width:.8183;stroke-miterlimit:10}.st3{fill:none}.st4{fill:#FFF}.st5{fill:#ff5072}.st6{fill:#231f20;stroke:#231f20;stroke-width:.8146}.st7{fill:#84cd1a}.st8{fill:#231f20;stroke:#231f20;stroke-miterlimit:10}</style><path class="st0" d="M8 51.8H190.9l-4.5-4.5v104.5l4.5-4.5H8l4.5 4.5V60.6 47.3c0-5.8-9-5.8-9 0v104.5c0 2.4 2.1 4.5 4.5 4.5H190.9c2.4 0 4.5-2.1 4.5-4.5V60.6 47.3c0-2.4-2.1-4.5-4.5-4.5H8c-5.8 0-5.8 9 0 9z"/><path class="st0" d="M101.3 97.3H33.6l4.5 4.5V71.4l-4.5 4.5h67.7l-4.5-4.5v30.4c0 5.8 9 5.8 9 0V71.4c0-2.4-2.1-4.5-4.5-4.5H33.6c-2.4 0-4.5 2.1-4.5 4.5v30.4c0 2.4 2.1 4.5 4.5 4.5h67.7c5.8 0 5.8-9 0-9zM128.9 75.8h33.6c5.8 0 5.8-9 0-9h-33.6c-5.8 0-5.8 9 0 9zM128.9 102.4h33.6c5.8 0 5.8-9 0-9h-33.6c-5.8 0-5.8 9 0 9zM33.7 130h132c5.8 0 5.8-9 0-9h-132c-5.8 0-5.8 9 0 9z"/></svg>