<svg id="Laag_1" xmlns="http://www.w3.org/2000/svg" viewBox="0 0 252 176.7"><style>.st0{fill:#231f20}.st1{fill:#7d3c8c}.st2{fill:#333;stroke:#231f20;stroke-width:.8183;stroke-miterlimit:10}.st3{fill:none}.st4{fill:#FFF}.st5{fill:#ff5072}.st6{fill:#231f20;stroke:#231f20;stroke-width:.8146}.st7{fill:#84cd1a}.st8{fill:#231f20;stroke:#231f20;stroke-miterlimit:10}</style><path class="st0" d="M13.6 91.7c35.1 10.2 70.1 20.4 105.2 30.6 5.8 1.7 11.6 3.6 17.5 5.1 3.8 1 7-1 10.6-2.5 21.8-8.7 43.6-17.4 65.2-26.4 5.2-2.1 10.3-4.3 15.5-6.5 4-1.7 8-3.2 11-6.6 10.5-11.7 7.7-32.7 5.9-46.9-.3-2.1-1.2-3.6-3.3-4.3-16.7-5.9-34.9-8.6-52.2-12.2-21.4-4.4-42.9-8.5-64.4-12.6-4.7-.9-9.5-1.8-14.2-2.7-3.5-.7-6.2 2-5.5 5.5 1.4 7.9 1.7 19.6-2.9 27.1-3.4 5.6-11.1 8.7-17 11.8-18.3 9.5-37.4 17.7-56.4 25.6-5 2.1-9.9 4.1-14.9 6.1-5.3 2.1-3 10.8 2.4 8.7 14.6-5.9 29.1-12 43.4-18.4 10.4-4.6 20.8-9.4 30.8-14.7 6.6-3.5 14.5-7.2 18.8-13.6 6.6-9.8 6.5-23.8 4.5-35l-5.5 5.5c35.7 6.6 71.5 13.3 107 21.3 7.9 1.8 16.1 3.4 23.8 6.1-1.1-1.4-2.2-2.9-3.3-4.3.9 7.2 1.5 14.4 1.3 21.7-.2 6.1-.5 14.1-4.7 19-2.1 2.5-5.7 3.6-8.6 4.8-4.2 1.8-8.4 3.6-12.6 5.3-21.2 8.8-42.5 17.3-63.8 25.8-2.7 1.1-5.7 2-8.4 3.3-2.7 1.4 1.6 1 .3.3-4.5-2.3-10.7-3.1-15.5-4.5-20.8-6-41.5-12.1-62.3-18.1-15.1-4.2-30.2-8.6-45.3-13-5.6-1.6-8 7.1-2.4 8.7z"/><path class="st0" d="M9.5 114.3c34.8 10.5 69.6 21 104.5 31.5 6.6 2 13.3 4 19.9 6 3.3 1 5.5.8 8.6-.6 17.4-7.6 34.7-15.2 52.1-22.8 16.3-7.1 32.6-14.3 48.9-21.4 5.3-2.3.7-10.1-4.5-7.8-30.1 13.2-60.3 26.4-90.4 39.5-4.3 1.9-8.6 3.7-12.9 5.6 1.2-.2 2.3-.3 3.5-.5-37.2-11.2-74.3-22.4-111.5-33.7-5.3-1.6-10.5-3.2-15.8-4.8-5.6-1.3-7.9 7.3-2.4 9z"/><path class="st0" d="M9.5 136.9c34.8 10.5 69.6 21 104.5 31.5 6.6 2 13.3 4 19.9 6 3.3 1 5.5.8 8.6-.6 17.4-7.6 34.7-15.2 52.1-22.8 16.3-7.1 32.6-14.3 48.9-21.4 5.3-2.3.7-10.1-4.5-7.8-30.1 13.2-60.3 26.4-90.4 39.5-4.3 1.9-8.6 3.7-12.9 5.6 1.2-.2 2.3-.3 3.5-.5-37.2-11-74.4-22.2-111.5-33.4-5.3-1.6-10.5-3.2-15.8-4.8-5.6-1.7-7.9 7-2.4 8.7z"/></svg>