<svg id="Laag_1" xmlns="http://www.w3.org/2000/svg" viewBox="0 0 198.3 200"><style>.st0{fill:#231f20}.st1{fill:#7d3c8c}.st2{fill:#333;stroke:#231f20;stroke-width:.8183;stroke-miterlimit:10}.st3{fill:none}.st4{fill:#FFF}.st5{fill:#ff5072}.st6{fill:#231f20;stroke:#231f20;stroke-width:.8146}.st7{fill:#84cd1a}.st8{fill:#231f20;stroke:#231f20;stroke-miterlimit:10}</style><path class="st0" d="M79.2 68.2h79c5.8 0 5.8-9 0-9h-79c-5.8 0-5.8 9 0 9zM79.2 98h79c5.8 0 5.8-9 0-9h-79c-5.8 0-5.8 9 0 9zM79.2 128.8h79c5.8 0 5.8-9 0-9h-79c-5.8 0-5.8 9 0 9zM33.6 102.9h15.8c5.8 0 5.8-9 0-9H33.6c-5.8 0-5.8 9 0 9zM33.6 133.5h15.8c5.8 0 5.8-9 0-9H33.6c-5.8 0-5.8 9 0 9z"/><path class="st0" d="M51.9 44.3h130.9l-4.5-4.5v103.7c0 1.7.1 3.4 0 5.1-.1 5.6-4.1 6.9-9.7 7-28.4.2-56.8 0-85.2 0H40.1c-3.7 0-7.5.2-11.2 0-6-.2-8.6-4.8-8.8-9.4-.5-11.6 0-23.4 0-35v-36l-4.5 4.5h36.3c2.4 0 4.5-2.1 4.5-4.5V39.7c0-5.8-9-5.8-9 0v35.5l4.5-4.5H15.6c-2.4 0-4.5 2.1-4.5 4.5 0 23.3-.5 46.7 0 70.1.1 3.9.8 7.8 2.8 11.2 3.7 6.4 10.2 8.1 17.2 8.1h133.6c5.9 0 12.2.4 17.2-3.6 4.1-3.3 5.4-8 5.4-13v-25.1-83.1c0-2.4-2.1-4.5-4.5-4.5H51.9c-5.7 0-5.8 9 0 9z"/><path class="st0" d="M47.4 75.3v70.6c0 5.8 9 5.8 9 0V75.3c0-5.8-9-5.8-9 0z"/><path class="st0" d="M47.4 145.9c0 .6 0 1.2-.1 1.8 0 .3-.2 1.2 0 0-.1.3-.1.7-.2 1-.2.8-.4 1.5-.7 2.3.3-.7-.2.4-.3.5-.2.4-.4.8-.7 1.2.3-.4-1.2 1.2-1.1 1.2-1.8 1.4-4 1.7-6.2 1.8-5.8.1-5.8 9.1 0 9 6.6-.1 12.8-2.9 15.9-9 1.5-2.9 2.4-6.5 2.2-9.8 0-5.8-9-5.8-8.8 0z"/></svg>