<svg id="Laag_1" xmlns="http://www.w3.org/2000/svg" viewBox="0 0 192.8 192.8"><style>.st0{fill:#231f20}.st1{fill:#7d3c8c}.st2{fill:#333;stroke:#231f20;stroke-width:.8183;stroke-miterlimit:10}.st3{fill:none}.st4{fill:#FFF}.st5{fill:#ff5072}.st6{fill:#231f20;stroke:#231f20;stroke-width:.8146}.st7{fill:#84cd1a}.st8{fill:#231f20;stroke:#231f20;stroke-miterlimit:10}</style><path class="st0" d="M69.6 66.9v68.3l68.3-34.1z"/><path class="st0" d="M65.1 66.9v68.3c0 3.6 3.8 5.4 6.8 3.9 22.8-11.4 45.5-22.8 68.3-34.1 2.9-1.5 2.9-6.3 0-7.8C117.4 85.8 94.6 74.4 71.9 63c-5.2-2.6-9.7 5.2-4.5 7.8 22.8 11.4 45.5 22.8 68.2 34.1v-7.8c-22.8 11.4-45.5 22.8-68.2 34.1 2.3 1.3 4.5 2.6 6.8 3.9V66.8c-.1-5.7-9.1-5.7-9.1.1z"/><g><path class="st0" d="M163.3 140.3c-17.6 28.6-52.5 44.3-85.5 36.9-30.8-6.9-54.9-31.9-61.3-62.8-6.5-31.5 8.1-65.3 35-82.7 28.3-18.3 66.4-16.2 92.8 4.5 31.4 24.6 39.1 69.9 19 104.1-2.9 5 4.8 9.5 7.8 4.5 19.7-33.4 15.8-77.3-10.6-105.9C134.8 11.3 93.3 2.5 58.8 17.6 25.9 31.9 3.9 67.4 5.9 103.2c2 35.2 25.1 66.7 58.1 79.2 39.5 15 85.1-1.9 107.1-37.6 3-4.9-4.8-9.4-7.8-4.5z"/></g></svg>