<svg id="Layer_1" xmlns="http://www.w3.org/2000/svg" viewBox="0 0 153.5 157.1"><style>.st0{fill:#231f20}</style><path class="st0" d="M0 95.6V152c0 2.8 2.3 5.1 5.1 5.1h143.2c2.8 0 5.1-2.3 5.1-5.1V98.4c0-6.6-10.2-6.6-10.2 0V152l5.1-5.1H5.1l5.1 5.1V95.6C10.2 89 0 89 0 95.6z"/><path class="st0" d="M38 99.9c12 9.4 24.1 18.8 36.1 28.2 2.1 1.6 4.3 1.7 6.4 0 11.7-9.4 23.4-18.8 35.1-28.3 4.5-3.6-1.9-10-6.4-6.4-11.7 9.4-23.4 18.8-35.1 28.3h6.4c-12-9.4-24.1-18.8-36.1-28.2-4.6-3.5-11 2.8-6.4 6.4z"/><path class="st0" d="M81.8 123.7V19.4 4.3c0-5.8-9-5.8-9 0V123.7c0 5.8 9 5.8 9 0z"/></svg>