<svg id="Laag_1" xmlns="http://www.w3.org/2000/svg" viewBox="0 0 192.8 192.8"><style>.st0{fill:#231f20}.st1{fill:#7d3c8c}.st2{fill:#333;stroke:#231f20;stroke-width:.8183;stroke-miterlimit:10}.st3{fill:none}.st4{fill:#FFF}.st5{fill:#ff5072}.st6{fill:#231f20;stroke:#231f20;stroke-width:.8146}.st7{fill:#84cd1a}.st8{fill:#231f20;stroke:#231f20;stroke-miterlimit:10}</style><circle class="st0" cx="61.2" cy="100.4" r="8.9"/><path class="st0" d="M56.9 100.4c.3-5.6 8.7-5.7 8.7 0 0 5.6-8.4 5.6-8.7 0-.3-5.8-9.3-5.8-9 0 .4 7.2 5.8 13.4 13.4 13.4 7.3 0 13.3-6.1 13.4-13.4 0-7.1-5.9-13.1-12.9-13.3-7.7-.3-13.5 5.9-13.9 13.3-.4 5.7 8.6 5.7 9 0z"/><circle class="st0" cx="100.4" cy="100.4" r="8.9"/><path class="st0" d="M96.1 100.4c.3-5.6 8.7-5.7 8.7 0 0 5.6-8.4 5.6-8.7 0-.3-5.8-9.3-5.8-9 0 .4 7.2 5.8 13.4 13.4 13.4 7.3 0 13.3-6.1 13.4-13.4 0-7.1-5.9-13.1-12.9-13.3-7.7-.3-13.5 5.9-13.9 13.3-.3 5.7 8.7 5.7 9 0z"/><g><circle class="st0" cx="139.6" cy="100.4" r="8.9"/><path class="st0" d="M135.2 100.4c.3-5.6 8.7-5.7 8.7 0 .1 5.6-8.3 5.6-8.7 0-.3-5.8-9.3-5.8-9 0 .4 7.2 5.8 13.4 13.4 13.4 7.3 0 13.3-6.1 13.4-13.4 0-7.1-5.9-13.1-12.9-13.3-7.7-.3-13.5 5.9-13.9 13.3-.3 5.7 8.7 5.7 9 0z"/></g><g><path class="st0" d="M169 141.1c-17.6 28.6-52.5 44.3-85.5 36.9-30.8-7-55-32-61.4-62.8-6.5-31.5 8.1-65.3 35-82.7C85.4 14.2 123.5 16.3 150 37c31.5 24.6 39.2 69.9 19 104.1-2.9 5 4.8 9.5 7.8 4.5 19.7-33.4 15.8-77.3-10.6-105.9C140.6 12.1 99 3.3 64.5 18.4 31.7 32.7 9.6 68.2 11.7 104c2 35.2 25.1 66.7 58.1 79.2 39.5 15 85.1-1.9 107.1-37.6 2.9-4.9-4.9-9.4-7.9-4.5z"/></g></svg>