<svg id="Laag_1" xmlns="http://www.w3.org/2000/svg" viewBox="0 0 198.3 200"><style>.st0{fill:#231f20}.st1{fill:#7d3c8c}.st2{fill:#333;stroke:#231f20;stroke-width:.8183;stroke-miterlimit:10}.st3{fill:none}.st4{fill:#FFF}.st5{fill:#ff5072}.st6{fill:#231f20;stroke:#231f20;stroke-width:.8146}.st7{fill:#84cd1a}.st8{fill:#231f20;stroke:#231f20;stroke-miterlimit:10}</style><path class="st0" d="M10.7 60.3v56.2c0 5.8 9 5.8 9 0V60.3c0-5.8-9-5.8-9 0zM28.7 63.3v47c0 2 1.4 3.8 3.3 4.3 27.9 8.6 55.8 17.3 83.6 25.9 4 1.2 8 2.5 12 3.7 2.8.9 5.7-1.5 5.7-4.3V51.7 39.2c0-3-2.9-5-5.7-4.3-27.8 7-55.7 14-83.5 21-4 1-8.1 2-12.1 3-5.6 1.4-3.2 10.1 2.4 8.7 27.8-7 55.7-14 83.5-21 4-1 8.1-2 12.1-3-1.9-1.4-3.8-2.9-5.7-4.3V140c1.9-1.4 3.8-2.9 5.7-4.3-27.9-8.6-55.8-17.3-83.6-25.9-4-1.2-8-2.5-12-3.7 1.1 1.4 2.2 2.9 3.3 4.3v-47c0-5.9-9-5.9-9-.1zM32.8 178.7c11.5.3 22.9.6 34.4.8 3.5.1 5.5-3.9 3.9-6.8-4.1-7.4-7.9-15-12.3-22.1-.1-.2-.5-1.2-.7-1.3-.3-.1.2 2.7.4 1.4.3-1.8-.4-4.2-.6-6-.4-4.1-.8-8.3-1.1-12.4-.2-2.1-1.3-3.6-3.3-4.3-6.3-2.2-12.6-4.4-18.9-6.7-1.9-.7-4 .5-5.1 2.1-10.5 15.7-8.9 37-.6 53.1 2.7 5.2 10.4.6 7.8-4.5-6.9-13.4-8.1-31 .6-44l-5.1 2.1c6.3 2.2 12.6 4.4 18.9 6.7-1.1-1.4-2.2-2.9-3.3-4.3l1.2 12.9c.3 3.2.2 6.5 1.7 9.4 4 7.7 8.4 15.2 12.6 22.8 1.3-2.3 2.6-4.5 3.9-6.8-11.5-.3-22.9-.6-34.4-.8-5.8-.5-5.8 8.5 0 8.7z"/><path class="st0" d="M130.1 78.8c-.4 0 0-.1-.4 0 0 7.3-.4 15.7-.2 22.7.6.2 0-.6.6-.6 4.8 0 8.6-4.9 8.6-11 0-6.2-3.9-11.1-8.6-11.1z"/><path class="st0" d="M131.1 74.9c-.5-.1-1-.2-1.5-.2-2.2.2-4 1.7-4 4 0 7.6-.4 15.1-.2 22.7.1 2.5 2.5 4.7 5 3.8.1 0 .2-.1.3-.1 1.7-.6 2.8-2 2.9-3.8v-.3c-.7 1.1-1.3 2.3-2 3.4-1.2.8.2.2 1 0s1.7-.5 2.5-.9c1.5-.8 2.7-1.9 3.8-3.1 2.5-2.9 3.7-6.8 3.7-10.6 0-7.6-4.8-14.4-12.6-15-5.1-.4-5.1 7.6 0 8 5.4.4 5.7 9.2 2.9 12.5-2.4 2.9-7 1.1-7.2 6.1 1-1.3 2-2.6 2.9-3.8-.1 0-.2.1-.3.1 1.7 1.3 3.4 2.6 5 3.8-.2-7.6.1-15.1.2-22.7l-4 4c-.2 0-.4-.1-.7-.1 5.2.8 7.4-6.9 2.3-7.8z"/><path class="st0" d="M130.1 78.4c-.4 0 0 .3-.4.4 0 .3-.8.3-.8.5.4-.1.8-.1 1.2-.1 4.6 0 8.3 4.8 8.3 10.6s-3.7 10.6-8.3 10.6c-.6 0 .2-.3-.4-.4 0 .3 1.3 1.2.4 1.2.6.2-.6 0 0 0 4.9 0 9-5.1 9-11.4s-4.1-11.4-9-11.4z"/><path class="st0" d="M127.2 75.5c-.7.6.9-.6-.4.3-2.9 2-2.3 7.9 2 7.4 8.8-.9 4.7 14 2 13.2.8 2 1.6 3.9 2.4 5.9 0-.1.1-.1.1-.2.7-1.5.8-3.7-.6-4.8l-.2-.2c-3.2-2.6-9.1.8-6.3 4.8.2.3.5.6.7 1l.6-4.8-.3.3c-2 1.6-1.2 5.1.8 6.3 0 0 .1 0 .1.1.7-2.5 1.3-5 2-7.4h-.3c.4 2.6.7 5.2 1.1 7.8 7.4-1.8 12-7.4 12-15.3 0-7.7-5-14.8-12.9-15.4-5.1-.4-5.1 7.6 0 8 4 .3 5.4 5.7 4.9 9-.6 3.8-2.6 5.2-6.1 6.1-4.7 1.1-3.1 7.3 1.1 7.8h.3c4.1.5 5.2-5.6 2-7.4 0 0-.1 0-.1-.1.3 2.1.5 4.2.8 6.3l.3-.3c1.2-1 1.6-3.5.6-4.8-.2-.3-.5-.6-.7-1l-6.3 4.8.2.2-.6-4.8c0 .1-.1.1-.1.2-1.1 2.3-.2 5.1 2.4 5.9 7.7 2.3 13.3-7.5 13.6-13.7.3-7.6-5.1-16-13.4-15.2.7 2.5 1.3 5 2 7.4.7-.5 1.3-1 2-1.5 4-3.4-1.7-9-5.7-5.9z"/><g><path class="st0" d="M158.5 113.6l15.5 16.9M155.3 116.8c5.2 5.6 10.3 11.2 15.5 16.8 3.9 4.3 10.3-2.1 6.4-6.4-5.2-5.6-10.3-11.2-15.5-16.8-3.9-4.2-10.3 2.1-6.4 6.4z"/></g><g><path class="st0" d="M174.7 47.3l-16.9 15.5M171.5 44.1c-5.6 5.2-11.2 10.3-16.8 15.5-4.3 3.9 2.1 10.3 6.4 6.4 5.6-5.2 11.2-10.3 16.8-15.5 4.2-4-2.1-10.3-6.4-6.4z"/></g><g><path class="st0" d="M156.3 94.1h26.4c5.8 0 5.8-9 0-9h-26.4c-5.8 0-5.8 9 0 9z"/></g></svg>