<svg id="Laag_1" xmlns="http://www.w3.org/2000/svg" viewBox="0 0 193.3 197.3"><style>.st0{fill:#231f20}.st1{fill:#7d3c8c}.st2{fill:#333;stroke:#231f20;stroke-width:.8183;stroke-miterlimit:10}.st3{fill:none}.st4{fill:#FFF}.st5{fill:#ff5072}.st6{fill:#231f20;stroke:#231f20;stroke-width:.8146}.st7{fill:#84cd1a}.st8{fill:#231f20;stroke:#231f20;stroke-miterlimit:10}</style><path class="st0" d="M12.3 89.3c.3-32.1 20.4-61.7 50.9-72.5 30.5-10.9 64.9-1.4 85.6 23.3 20.9 24.9 23.4 61.6 6.5 89.3-16.7 27.4-49.7 42-81.2 35.6-35.7-7.4-61.5-39.3-61.8-75.7 0-5.8-9-5.8-9 0 .3 36 22.9 68.6 56.9 81 33.5 12.3 72.7 1.6 95.4-25.9 23.1-28 26.4-68.5 7.5-99.7C144.4 13.9 107.8-2 72.5 4.9c-40 7.8-68.8 44-69.1 84.4-.1 5.8 8.9 5.8 8.9 0z"/><path class="st0" d="M142.3 153.9l37 37c4.1 4.1 10.5-2.3 6.4-6.4l-37-37c-4.2-4-10.6 2.3-6.4 6.4z"/></svg>