<svg id="Laag_1" xmlns="http://www.w3.org/2000/svg" viewBox="0 0 198.3 200"><style>.st0{fill:#231f20}.st1{fill:#7d3c8c}.st2{fill:#333;stroke:#231f20;stroke-width:.8183;stroke-miterlimit:10}.st3{fill:none}.st4{fill:#FFF}.st5{fill:#ff5072}.st6{fill:#231f20;stroke:#231f20;stroke-width:.8146}.st7{fill:#84cd1a}.st8{fill:#231f20;stroke:#231f20;stroke-miterlimit:10}</style><path class="st0" d="M155.4 88c4-15.6-3.1-32.3-17.9-39.2-15.3-7.1-32.8-1.4-42.1 12.2h7.8c-8.3-12.2-23.5-18.5-37.9-13.9C52 51.3 42.6 63.5 42 77.4c-.6 12.4 5.9 24.4 12.9 34.1 7.3 10.2 16 19.4 25.2 27.9 5.4 4.9 11 9.7 16.8 14.1 1.1.9 3.4.9 4.5 0 8.7-6.5 16.8-13.8 24.5-21.4 12.3-12.3 24.8-26.9 29.5-44.1 1.5-5.6-7.2-8-8.7-2.4-4.3 16.1-16.5 29.6-28.1 41.1-4.9 4.9-10 9.5-15.3 14-1.7 1.4-3.4 2.8-5.1 4.1-1.5 1.2-.4.3-1.4 1.1h4.5c-2.2-1.7-6.4-5.1-9.5-7.8-7.3-6.3-14.3-13-20.7-20.2-12.5-14.1-30.8-39.4-12.8-56.5 10.9-10.4 28.5-8 36.9 4.3 2 2.9 5.8 2.9 7.8 0 6.8-10 20-13.9 31-8.4 10.6 5.3 15.5 17.1 12.6 28.4-1.4 5.5 7.3 7.9 8.8 2.3z"/></svg>