<svg id="Layer_1" xmlns="http://www.w3.org/2000/svg" viewBox="0 0 18.2 17.1"><style>.st0{fill:#ff5072}.st1{fill:none;stroke:#231f20;stroke-linecap:round;stroke-linejoin:round;stroke-miterlimit:10}</style><path class="st0" d="M17.3 6.5c.1-.4.2-.8.2-1.2 0-2.5-2-4.5-4.5-4.5-1.6 0-3 .8-3.8 2.1C8.3 1.6 6.9.8 5.3.8 2.8.8.8 2.8.8 5.3c0 .2 0 .5.1.7.7 4.8 8.2 10.4 8.2 10.4s7-5.2 8.2-9.9z"/><path class="st1" d="M17.5 6.5c.1-.4.2-.8.2-1.3 0-2.6-2.1-4.7-4.7-4.7-1.6 0-3.1.8-3.9 2.1C8.3 1.3 6.8.5 5.2.5 2.6.6.5 2.6.5 5.2c0 .3 0 .5.1.7.8 5 8.5 10.7 8.5 10.7s7.2-5.3 8.4-10.1z"/></svg>