<svg id="Laag_1" xmlns="http://www.w3.org/2000/svg" viewBox="0 0 198.3 200"><style>.st0{fill:#231f20}.st1{fill:#7d3c8c}.st2{fill:#333;stroke:#231f20;stroke-width:.8183;stroke-miterlimit:10}.st3{fill:none}.st4{fill:#FFF}.st5{fill:#ff5072}.st6{fill:#231f20;stroke:#231f20;stroke-width:.8146}.st7{fill:#84cd1a}.st8{fill:#231f20;stroke:#231f20;stroke-miterlimit:10}</style><path class="st0" d="M79.1 41.9C69.7 53.9 60.3 66 50.9 78c-1.6 2.1-1.7 4.3 0 6.4 9.4 11.7 18.8 23.4 28.3 35.1 3.6 4.5 10-1.9 6.4-6.4-9.5-11.7-18.9-23.4-28.4-35.1v6.4c9.4-12 18.8-24.1 28.2-36.1 3.6-4.6-2.7-11-6.3-6.4z"/><path class="st0" d="M54.1 85.3c17.8-.4 36.9-2.4 54.4 1.9 14.6 3.6 23.1 13.7 27 27.9 3.6 13 4.1 26.8 4.2 40.2 0 5.8 9 5.8 9 0-.1-20.9-.6-46.3-14.7-63.2-10.5-12.7-27.5-15.5-43.1-16.2-12.2-.5-24.5 0-36.8.3-5.8.2-5.8 9.2 0 9.1z"/></svg>