<svg id="Laag_1" xmlns="http://www.w3.org/2000/svg" viewBox="0 0 198.3 200"><style>.st0{fill:#231f20}.st1{fill:#7d3c8c}.st2{fill:#333;stroke:#231f20;stroke-width:.8183;stroke-miterlimit:10}.st3{fill:none}.st4{fill:#FFF}.st5{fill:#ff5072}.st6{fill:#231f20;stroke:#231f20;stroke-width:.8146}.st7{fill:#84cd1a}.st8{fill:#231f20;stroke:#231f20;stroke-miterlimit:10}</style><path class="st0" d="M11.8 40.8h76.4c-1.1-.4-2.2-.8-3.2-1.3 5.1 5.6 10.1 11.2 15.2 16.8 3.2 3.6 6.5 7.2 9.7 10.8 1.8 2 3.2 4.1 6 4.5 5.7.7 11.9 0 17.6 0h53l-4.5-4.5v97l4.5-4.5H11.9l4.5 4.5V52 36.3c0-5.8-9-5.8-9 0v127.8c0 2.4 2.1 4.5 4.5 4.5h174.6c2.4 0 4.5-2.1 4.5-4.5V79.4 67.1c0-2.4-2.1-4.5-4.5-4.5h-70.6c1.1.4 2.1.9 3.2 1.3l-16.5-18.3c-3.1-3.5-6.2-6.9-9.4-10.4-1.7-1.9-2.7-3.1-5.4-3.4-6.8-.7-14.1 0-20.9 0H11.8c-5.8 0-5.8 9 0 9z"/><path class="st0" d="M115.9 62.6H11.8c-5.8 0-5.8 9 0 9H115.9c5.8 0 5.8-9 0-9z"/></svg>