<svg id="Laag_1" xmlns="http://www.w3.org/2000/svg" viewBox="0 0 192.8 192.8"><style>.st0{fill:#231f20}.st1{fill:#7d3c8c}.st2{fill:#333;stroke:#231f20;stroke-width:.8183;stroke-miterlimit:10}.st3{fill:none}.st4{fill:#FFF}.st5{fill:#ff5072}.st6{fill:#231f20;stroke:#231f20;stroke-width:.8146}.st7{fill:#84cd1a}.st8{fill:#231f20;stroke:#231f20;stroke-miterlimit:10}</style><path class="st0" d="M52.6 139c21.7.9 53.7-3.2 64.6-24.8.9-1.8.8-4-.7-5.5-4.4-4.5-8.4-9.4-11.5-14.8l-2.7 6.6c22.8-6.3 46.5-17.7 58.3-39.4 6.8-12.5 8.8-26.9 6.6-40.9-.4-2.9-1-5.8-2-8.5-.6-1.7-2.3-3.6-4.3-3.3-11.6 1.5-22.9 7-32.8 12.9C101.9 37.1 81.7 61.6 66.8 88c-13.5 24-22.9 50.1-29.8 76.7-1.5 5.6 7.2 8 8.7 2.4 10.5-40.4 27-80.9 55.6-112 13.9-15 31.4-28.4 50.2-35 2.5-.9 5-1.6 7.5-2.2.6-.1 4.6-.8 1.8-.4-1.4-1.1-2.9-2.2-4.3-3.3 7.3 20.6-.5 44.7-17.4 59-11.2 9.4-25.2 14.9-39.2 18.8-2.8.8-4.2 4.1-2.7 6.6 3.6 6 8.1 11.6 13 16.6-.2-1.8-.5-3.6-.7-5.5-6.1 12.1-20.7 16.4-33.1 18.6-7.8 1.4-15.9 2-23.8 1.7-5.8-.2-5.8 8.8 0 9z"/></svg>