<svg id="Laag_1" xmlns="http://www.w3.org/2000/svg" viewBox="0 0 174.6 173.5"><style>.st0{fill:#231f20}.st1{fill:#7d3c8c}.st2{fill:#333;stroke:#231f20;stroke-width:.8183;stroke-miterlimit:10}.st3{fill:none}.st4{fill:#FFF}.st5{fill:#ff5072}.st6{fill:#231f20;stroke:#231f20;stroke-width:.8146}.st7{fill:#84cd1a}.st8{fill:#231f20;stroke:#231f20;stroke-miterlimit:10}</style><path class="st0" d="M37.4 148.6c5.5-1 11-1.9 16.6-2.9 3.1-.5 6.2-.6 8.6-2.7 5.7-5 10.7-11.1 15.9-16.6 19.2-20 38.5-40 57.7-60.1l15.3-15.9c1.7-1.7 1.8-4.6 0-6.4-6.7-6.4-13.4-12.8-20.1-19.3-1.7-1.7-4.6-1.8-6.4 0C95.5 55.5 65.4 85.8 36.4 117c-2.2 2.4-2.5 4.9-2.8 8.1-.6 6.3-1.2 12.7-1.9 19-.6 5.8 8.4 5.7 9 0 .7-7.6 1.5-15.2 2.2-22.8-.4 1.1-.9 2.1-1.3 3.2C67.8 97.4 94 70.1 120.3 42.8c3.7-3.9 7.4-7.8 11.2-11.6h-6.4c6.7 6.4 13.4 12.8 20.1 19.3v-6.4l-87.6 91.2c-.3.3-1.6 1.3-1.6 1.7 0-.3 2.7-.6 1.2-.9-1-.2-2.9.5-3.9.7-6.1 1.1-12.2 2.1-18.3 3.2-5.7.9-3.3 9.6 2.4 8.6z"/><path class="st0" d="M65.4 129.5c-5.5-5.2-10.9-10.4-16.4-15.6-4.2-4-10.6 2.4-6.4 6.4 5.5 5.2 10.9 10.4 16.4 15.6 4.2 4 10.6-2.4 6.4-6.4zM127.3 69.3c-6.7-6.4-13.4-12.8-20.1-19.3-4.2-4-10.6 2.3-6.4 6.4 6.7 6.4 13.4 12.8 20.1 19.3 4.2 3.9 10.6-2.4 6.4-6.4z"/></svg>