<svg id="Layer_1" xmlns="http://www.w3.org/2000/svg" viewBox="0 0 184.2 67.1"><style>.st0{fill:#FFF}</style><path class="st0" d="M115 22.4c1 0 2 .3 2.8 1l1.6-1.7c-1.2-1.1-2.7-1.6-4.4-1.6-1.7 0-3.1.6-4.2 1.7s-1.7 2.5-1.7 4.2c0 1.7.6 3.1 1.7 4.3 1.1 1.1 2.6 1.7 4.2 1.7 1.7 0 3.2-.5 4.4-1.6l-1.6-1.7c-.8.6-1.7.9-2.8.9-1.1 0-1.9-.3-2.6-1-.7-.7-1-1.5-1-2.6 0-1 .3-1.9 1-2.5.7-.8 1.5-1.1 2.6-1.1zM128.2 20h-2.3v11.9h8.7v-2.2h-6.4zM145.8 20c-1.7 0-3.1.6-4.3 1.7s-1.7 2.6-1.7 4.3c0 1.7.6 3.1 1.7 4.2s2.6 1.7 4.3 1.7 3.1-.6 4.2-1.7 1.7-2.6 1.7-4.3-.6-3.1-1.7-4.3-2.5-1.6-4.2-1.6zm2.6 8.6c-.7.7-1.5 1.1-2.6 1.1s-1.9-.4-2.6-1.1c-.7-.7-1-1.6-1-2.7s.3-1.9 1-2.7c.7-.7 1.5-1.1 2.6-1.1s1.9.4 2.6 1.1 1 1.6 1 2.7-.3 2-1 2.7zM158.7 30.7c1 .8 2.2 1.3 3.7 1.3s2.7-.4 3.7-1.3 1.5-1.9 1.5-3.1V20h-2.4v6.9c0 .9-.3 1.6-.8 2-.5.4-1.2.6-2 .6s-1.5-.2-2-.6c-.5-.4-.8-1.1-.8-2V20h-2.4v7.5c.1 1.3.6 2.3 1.5 3.2zM184.2 26c0-4-1.9-6-5.6-6H174v11.9h4.6c3.8 0 5.6-2 5.6-5.9zm-7.7-3.6h2.2c2.1 0 3.2 1.2 3.2 3.6 0 2.4-1.1 3.6-3.2 3.6h-2.2v-7.2zM109 40.7h4v9.7h2.4v-9.7h4v-2.2H109zM125 50.4h8.7v-2.2h-6.3v-2.8h4.8v-2.2h-4.8v-2.5h6.4v-2.2H125zM144.2 38.5l-4.8 11.9h2.5l.7-1.8h5.4l.7 1.8h2.5l-4.8-11.9h-2.2zm-.6 7.7l1.8-4.5 1.8 4.5h-3.6zM163 44.3l-5.2-5.8h-.8v11.9h2.4v-6.9l3.6 3.9 3.6-3.9v6.9h2.3V38.5h-.7zM182.3 44.2c-.8-.6-1.7-.9-2.7-1-1-.2-1.6-.4-1.8-.7-.3-.3-.3-.7 0-1.2s.9-.7 1.8-.7c1 0 1.7.3 2.2 1l1.6-1.6c-.5-.5-1.1-.9-1.7-1.2-.6-.3-1.5-.4-2.6-.4-1 0-1.9.3-2.8 1-.9.6-1.4 1.5-1.4 2.5 0 1.2.4 2 1.2 2.5.8.5 1.7.8 2.6.9 1.1.1 1.7.4 2 .8.3.5.3.9 0 1.4-.3.5-.9.7-2 .7-1.3-.1-2.2-.5-2.7-1.1l-1.6 1.6c.5.5 1.2 1 1.9 1.3.7.3 1.7.5 2.8.5 1.2 0 2.2-.3 3.1-1 .9-.7 1.3-1.5 1.3-2.5 0-1.3-.4-2.2-1.2-2.8zM76.3 21.8C72.7 9.2 61.4 0 48.1 0 31.9 0 18.8 13.4 18.6 30h-.1C8.3 30 0 38.3 0 48.5 0 56.3 4.9 63 11.8 65.7c0 0 .4.2 1.1.4.2.1.4.1.7.2.1 0 8.7-7 11.6-9.3.7 1.4 2 2.1 2.8 2.3.3.1.6-.1.8-.4.2-.4.1-.8-.3-1h-.1s-2.1-.6-2.1-2.5l.1-10v-14c.9 0 2 .1 2.4.5.1.1.1.1.1.2v11.8c-.7.4-1 .8-1 .9-.2.4-.1.8.3 1 .4.2.8.1 1-.3 0 0 1.3-1.7 6.4-1.7 3.6 0 5.4 1.2 6.1 1.9-1.2.2-2.9.6-4.3 1.8-1.3 1.1-2 2.6-2.1 4.4 0 .3.1.6.4.7.4.2.8.1 1-.3.1-.1.1-.2.1-.3.1-2 1.1-3.4 3-4.2 1.3-.5 2.7-.6 3-.6h.6c.1-5.3 1.2-6.6 1.9-6.9.6-.3 1.2-.1 1.7.2-.6 2.7-1.3 9.5-1.4 10.3 0 0-.1 2.7-1.4 5.3-1.8 3.4-4.8 5.1-9 5.1l-6.6 5.7h39.6l-9-7.6c-4.9-1.5-6.6-7.3-6.8-8.2.1-1 .6-7.6-.1-10.6.4-.4.8-.7 1.2-.8.6-.1 1.1.2 1.4.4V50c0 .4.3.8.8.8.4 0 .8-.3.8-.8V31.6c0-.3.1-.5.3-.7.5-.4 1.4-.5 2.2-.5v10.9c0 .4.3.8.8.8.4 0 .8-.3.8-.8V28.2c0-.4.1-.7.4-.9.5-.4 1.5-.5 2.2-.5v14.5c0 .4.4.8.8.8s.8-.4.8-.8V29.8c0-.3.1-.5.3-.6.5-.4 1.6-.6 2.4-.6v12.6c0 .4.4.8.8.8s.8-.4.8-.8V32c0-.1 0-.1.1-.2.4-.4 1.4-.5 2.3-.5V53.5s.1 1.9-2.6 2.9c-.3.1-.5.4-.5.7 0 .4.3.8.8.8h.3c1-.3 1.7-.7 2.2-1.2L82 64.9s.9-.5 1.5-.8c6.8-4 11.3-11.3 11.3-19.7-.4-11.2-8.2-20.4-18.5-22.6zM32.9 42.7c-1 .1-1.8.3-2.5.6V28.5c.7 0 1.7.1 2.2.5.2.2.3.4.3.7v13zm4-.1c-.5 0-.9-.1-1.4-.1h-1v-16c.7 0 1.6.1 2.1.5.3.2.4.5.4 1v14.6zm4.2 1.2c-.7-.4-1.5-.7-2.5-.9V29.8h.5c.8.1 1.4.2 1.7.5.2.2.3.4.3.6v12.9zm.1-25.8c-.3.3-.9.3-1.2 0l-2.3-2.3c-.3-.3-.3-.9 0-1.2.3-.3.9-.3 1.2 0l2.3 2.3c.3.3.3.9 0 1.2zm8.3-4.6c0 .5-.4.8-.9.8s-.9-.4-.9-.8v-3.3c0-.5.4-.9.9-.9s.9.4.9.9v3.3zm10.2 2.3L57.4 18c-.3.3-.9.3-1.2 0-.3-.3-.3-.9 0-1.2l2.3-2.3c.3-.3.9-.3 1.2 0 .4.3.4.8 0 1.2z"/></svg>