<svg id="Layer_1" xmlns="http://www.w3.org/2000/svg" viewBox="0 0 349.8 123.7"><style>.st0{fill:#5f3566}.st1{fill:#5d2e66}.st2{fill:#FFF}.st3{font-family:&amp;apos;nevis-Bold&amp;apos;}.st4{font-size:30px}.st5{letter-spacing:7}</style><text transform="translate(200.332 58.885)"><tspan x="0" y="0" class="st2 st3 st4 st5">CLOUD</tspan><tspan x="0" y="34" class="st2 st3 st4 st5">TEAMS</tspan></text><path class="st2" d="M174 81.4c0-20.2-14.2-37.1-33.2-41.3C134.1 16.9 113.3 0 88.6 0c-29.8 0-54 24.7-54.3 55.3h-.1C15.3 55.3 0 70.6 0 89.5c0 14.5 9 26.8 21.7 31.8 0 0 .7.3 2.1.7.4.1.8.2 1.3.4.1-.1 16.1-12.9 21.3-17.1 1.2 2.5 3.7 3.8 5.2 4.3.6.1 1.2-.2 1.5-.7.4-.7.1-1.5-.5-1.9-.1 0-.1-.1-.2-.1 0 0-3.8-1.1-3.8-4.6l.2-18.5V58c1.7 0 3.7.2 4.4.9.2.1.2.3.2.4V81c-1.3.8-1.8 1.5-1.9 1.7 0 0 0 .1-.1.1-.4.7-.1 1.6.5 1.9.6.4 1.5.2 1.9-.5 0 0 2.4-3.1 11.8-3.1 6.7 0 9.9 2.3 11.2 3.6-2.2.3-5.4 1.1-7.9 3.2-2.3 2-3.6 4.7-3.8 8.1 0 .5.2 1 .7 1.3.7.4 1.5.1 1.9-.6.1-.2.2-.4.2-.6.2-3.7 2.1-6.3 5.5-7.7 2.4-1 4.9-1.1 5.6-1.1h1.1c.1-9.7 2.2-12.2 3.5-12.8 1-.5 2.3-.1 3.1.4-1.2 5-2.4 17.5-2.5 19 0 0-.1 4.9-2.6 9.7-3.2 6.2-8.8 9.4-16.6 9.4l-12.1 10.4h73.2l-16.6-14c-9.5-2.6-12.6-13.4-13-14.9.2-1.9 1.1-13.9-.2-19.5.7-.8 1.5-1.3 2.3-1.4 1-.1 2 .3 2.6.7v18c0 .8.6 1.4 1.4 1.4.8 0 1.4-.6 1.4-1.4v-34c0-.6.2-.9.5-1.3.9-.8 2.7-1 4-1h.1V76.1c0 .8.6 1.4 1.4 1.4.8 0 1.4-.6 1.4-1.4V51.9c0-.8.2-1.3.7-1.7.9-.8 2.7-1 4-1V76c0 .8.7 1.4 1.5 1.4s1.5-.7 1.5-1.5v-21c0-.5.2-.9.5-1.2.9-.8 2.9-1.1 4.5-1v22.8c0 .1-.1.3-.1.4 0 .8.7 1.5 1.5 1.5s1.5-.7 1.5-1.5v-17c0-.2 0-.3.2-.4.7-.6 2.6-.9 4.3-.9V98.4s.3 3.5-4.9 5.3c-.6.2-1 .7-1 1.4 0 .8.6 1.4 1.4 1.4.2 0 .3 0 .5-.1 1.8-.6 3.1-1.4 4-2.2l19 15s1.7-.9 2.7-1.5c12.4-7.2 20.8-20.8 20.8-36.3zM60.6 78.7c-1.8.2-3.4.6-4.6 1V52.5c1.3 0 3.2.2 4 1 .4.3.5.7.5 1.3v23.9zm7.5-.2c-.8-.1-1.7-.1-2.7-.1h-1.9V48.9c1.2 0 2.9.2 3.9 1 .5.4.7 1 .7 1.8v26.8zm7.7 2.2c-1.2-.7-2.7-1.3-4.6-1.7V54.9h1c1.4.1 2.6.4 3.1.9.3.3.5.7.5 1.1v23.8zm.1-47.5c-.6.6-1.6.6-2.2 0l-4.3-4.3c-.6-.6-.6-1.6 0-2.2s1.6-.6 2.2 0l4.3 4.3c.7.6.7 1.6 0 2.2zm15.4-8.5c0 .9-.7 1.6-1.6 1.6s-1.6-.7-1.6-1.6v-6.1c0-.9.7-1.6 1.6-1.6s1.6.7 1.6 1.6v6.1zm18.8 4.2l-4.3 4.3c-.6.6-1.6.6-2.2 0-.6-.6-.6-1.6 0-2.2l4.3-4.3c.6-.6 1.6-.6 2.2 0 .6.6.6 1.6 0 2.2z"/></svg>