<?xml version="1.0" encoding="utf-8"?>
<!-- Generator: Adobe Illustrator 19.2.0, SVG Export Plug-In . SVG Version: 6.00 Build 0)  -->
<svg version="1.1" id="Layer_1" xmlns="http://www.w3.org/2000/svg" xmlns:xlink="http://www.w3.org/1999/xlink" x="0px" y="0px"
	 viewBox="0 0 349.8 123.7" style="enable-background:new 0 0 349.8 123.7;" xml:space="preserve">
<style type="text/css">
	.st0{fill:#5F3566;}
	.st1{font-family:'nevis-Bold';}
	.st2{font-size:30px;}
	.st3{letter-spacing:7;}
	.st4{fill:#5D2E66;}
	.st5{fill:#FFFFFF;}
</style>
<g>
	<text transform="matrix(1 0 0 1 200.3317 58.8849)"><tspan x="0" y="0" class="st0 st1 st2 st3">CLOUD</tspan><tspan x="0" y="34" class="st0 st1 st2 st3">TEAMS</tspan></text>
	<path class="st4" d="M174,81.4c0-20.2-14.2-37.1-33.2-41.3C134.1,16.9,113.3,0,88.6,0c-29.8,0-54,24.7-54.3,55.3c0,0-0.1,0-0.1,0
		C15.3,55.3,0,70.6,0,89.5c0,14.5,9,26.8,21.7,31.8l0,0c0,0,0.7,0.3,2.1,0.7c0.4,0.1,0.8,0.2,1.3,0.4c0.1-0.1,16.1-12.9,21.3-17.1
		c1.2,2.5,3.7,3.8,5.2,4.3l0,0c0.6,0.1,1.2-0.2,1.5-0.7c0.4-0.7,0.1-1.5-0.5-1.9c-0.1,0-0.1-0.1-0.2-0.1l0,0c0,0-3.8-1.1-3.8-4.6
		l0.2-18.5h0V58c1.7,0,3.7,0.2,4.4,0.9c0.2,0.1,0.2,0.3,0.2,0.4V81c-1.3,0.8-1.8,1.5-1.9,1.7l0,0c0,0,0,0.1-0.1,0.1
		c-0.4,0.7-0.1,1.6,0.5,1.9c0.6,0.4,1.5,0.2,1.9-0.5l0,0c0,0,0,0,0,0c0,0,2.4-3.1,11.8-3.1c6.7,0,9.9,2.3,11.2,3.6
		c-2.2,0.3-5.4,1.1-7.9,3.2c-2.3,2-3.6,4.7-3.8,8.1l0,0c0,0.5,0.2,1,0.7,1.3c0.7,0.4,1.5,0.1,1.9-0.6c0.1-0.2,0.2-0.4,0.2-0.6l0,0
		c0.2-3.7,2.1-6.3,5.5-7.7c2.4-1,4.9-1.1,5.6-1.1l1.1,0c0.1-9.7,2.2-12.2,3.5-12.8c1-0.5,2.3-0.1,3.1,0.4c-1.2,5-2.4,17.5-2.5,19h0
		c0,0-0.1,4.9-2.6,9.7c-3.2,6.2-8.8,9.4-16.6,9.4l0,0l0,0c0,0,0,0,0,0l0,0l-12.1,10.4h70.9h2.3l-16.6-14l0,0c0,0,0,0,0,0l0,0l0,0
		C100,106.8,96.9,96,96.5,94.5c0.2-1.9,1.1-13.9-0.2-19.5c0.7-0.8,1.5-1.3,2.3-1.4c1-0.1,2,0.3,2.6,0.7v18h0c0,0,0,0,0,0
		c0,0.8,0.6,1.4,1.4,1.4c0.8,0,1.4-0.6,1.4-1.4c0,0,0,0,0,0h0v-34c0-0.6,0.2-0.9,0.5-1.3c0.9-0.8,2.7-1,4-1c0,0,0,0,0.1,0v19.9h0
		c0,0.1,0,0.1,0,0.2c0,0.8,0.6,1.4,1.4,1.4c0.8,0,1.4-0.6,1.4-1.4c0-0.1,0-0.1,0-0.2h0V53.4v-1.5c0-0.8,0.2-1.3,0.7-1.7
		c0.9-0.8,2.7-1,4-1v26.8h0c0,0.8,0.7,1.4,1.5,1.4c0.8,0,1.5-0.7,1.5-1.5c0-0.1,0-0.2,0-0.3V54.9c0-0.5,0.2-0.9,0.5-1.2
		c0.9-0.8,2.9-1.1,4.5-1v6.2v16.6c0,0.1-0.1,0.3-0.1,0.4c0,0.8,0.7,1.5,1.5,1.5c0.8,0,1.5-0.7,1.5-1.5c0-0.1,0-0.2,0-0.3V58.9
		c0-0.2,0-0.3,0.2-0.4c0.7-0.6,2.6-0.9,4.3-0.9v20.1h0v20.6l0,0.1c0,0,0.3,3.5-4.9,5.3c-0.6,0.2-1,0.7-1,1.4c0,0.8,0.6,1.4,1.4,1.4
		c0.2,0,0.3,0,0.5-0.1c1.8-0.6,3.1-1.4,4-2.2l19,15c0,0,1.7-0.9,2.7-1.5c0,0,0,0,0,0C165.6,110.5,174,96.9,174,81.4z M60.6,78.7
		c-1.8,0.2-3.4,0.6-4.6,1V59.3v-6.8c1.3,0,3.2,0.2,4,1c0.4,0.3,0.5,0.7,0.5,1.3V78.7z M68.1,78.5c-0.8-0.1-1.7-0.1-2.7-0.1
		c-0.7,0-1.3,0-1.9,0V48.9c1.2,0,2.9,0.2,3.9,1c0.5,0.4,0.7,1,0.7,1.8V78.5z M75.8,80.7c-1.2-0.7-2.7-1.3-4.6-1.7V54.9
		c0.3,0,0.6,0,1,0c1.4,0.1,2.6,0.4,3.1,0.9c0.3,0.3,0.5,0.7,0.5,1.1V80.7z M75.9,33.2c-0.6,0.6-1.6,0.6-2.2,0l-4.3-4.3
		c-0.6-0.6-0.6-1.6,0-2.2s1.6-0.6,2.2,0l4.3,4.3C76.6,31.6,76.6,32.6,75.9,33.2z M91.3,24.7c0,0.9-0.7,1.6-1.6,1.6s-1.6-0.7-1.6-1.6
		v-6.1c0-0.9,0.7-1.6,1.6-1.6s1.6,0.7,1.6,1.6V24.7z M110.1,28.9l-4.3,4.3c-0.6,0.6-1.6,0.6-2.2,0c-0.6-0.6-0.6-1.6,0-2.2l4.3-4.3
		c0.6-0.6,1.6-0.6,2.2,0C110.7,27.3,110.7,28.3,110.1,28.9z"/>
</g>
</svg>
