<svg id="Layer_1" xmlns="http://www.w3.org/2000/svg" viewBox="0 0 576.1 290.3"><style>.st0{opacity:5e-2;fill:#5d2e66}.st1{opacity:.1;fill:#5d2e66}.st2{fill:#FFF}.st3,.st4{fill:#FFF;stroke:#5d2e66;stroke-width:3;stroke-miterlimit:10}.st4{stroke-linecap:round}.st5{fill:#f2f2f2}.st6{fill:#5d2e66}.st7{fill:#fea0a2;stroke:#5d2e66;stroke-width:3;stroke-miterlimit:10}.st8{fill:#f2f2f2;stroke-linecap:round}.st8,.st9{stroke:#5d2e66;stroke-width:3;stroke-miterlimit:10}.st9{fill:none}.st10{opacity:.5;fill:#7e3d8e;stroke-linecap:round}.st10,.st11{stroke:#5d2e66;stroke-width:3;stroke-miterlimit:10}.st11{fill:#f2f2f2}.st12{opacity:.1;fill:none}.st13{opacity:.5;fill:#7e3d8e}.st14,.st15{fill:#FFF;stroke:#5d2e66;stroke-width:3;stroke-linejoin:round;stroke-miterlimit:10}.st15{stroke-linecap:round}.st16{font-family:&amp;apos;DroidSans-Bold&amp;apos;}.st17{font-size:92.7261px}.st18{fill:#709dc9;stroke:#5d2e66;stroke-width:3;stroke-miterlimit:10}.st19{font-size:68.196px}</style><circle class="st0" cx="271.5" cy="179.7" r="110.6"/><circle class="st1" cx="272.1" cy="179.6" r="99.7"/><path class="st2" d="M365.1 238.2H172.3c-6.3 0-11.5-5.2-11.5-11.5v-18.5h215.8v18.5c0 6.3-5.2 11.5-11.5 11.5z"/><path class="st3" d="M239 269.9c10.8 0 8.3-45 8.3-45 0-1.8 1.4-3.3 3-3.3h38.5c1.7 0 3 1.5 3 3.3 0 0-1.5 44.9 7.7 45H239z"/><path class="st4" d="M223.9 269.9h91.3"/><path class="st5" d="M365.1 238.2H172.3c-6.3 0-11.5-5.2-11.5-11.5v-18.5h215.8v18.5c0 6.3-5.2 11.5-11.5 11.5z"/><path class="st3" d="M364.7 238.2h-192c-6.6 0-11.9-5.4-11.9-11.9V107.8c0-6.6 5.4-11.9 11.9-11.9h192c6.6 0 11.9 5.4 11.9 11.9v118.5c0 6.5-5.4 11.9-11.9 11.9z"/><path class="st1" d="M210.2 195.3h-33.5c-1.8 0-3.2-1.4-3.2-3.2v-49.8c0-1.8 1.4-3.2 3.2-3.2h33.5c1.8 0 3.2 1.4 3.2 3.2v49.8c0 1.8-1.5 3.2-3.2 3.2zM259.1 195.3h-33.5c-1.8 0-3.2-1.4-3.2-3.2v-49.8c0-1.8 1.4-3.2 3.2-3.2h33.5c1.8 0 3.2 1.4 3.2 3.2v49.8c0 1.8-1.4 3.2-3.2 3.2zM308.2 195.3h-33.5c-1.8 0-3.2-1.4-3.2-3.2v-49.8c0-1.8 1.4-3.2 3.2-3.2h33.5c1.8 0 3.2 1.4 3.2 3.2v49.8c0 1.8-1.4 3.2-3.2 3.2zM356.4 195.3h-33.5c-1.8 0-3.2-1.4-3.2-3.2v-49.8c0-1.8 1.4-3.2 3.2-3.2h33.5c1.8 0 3.2 1.4 3.2 3.2v49.8c0 1.8-1.4 3.2-3.2 3.2z"/><path class="st3" d="M214.3 190.2h-33.5c-1.8 0-3.2-1.4-3.2-3.2v-49.8c0-1.8 1.4-3.2 3.2-3.2h33.5c1.8 0 3.2 1.4 3.2 3.2V187c.1 1.8-1.4 3.2-3.2 3.2z"/><path class="st7" d="M214.3 190.2h-33.5c-1.8 0-3.2-1.4-3.2-3.2v-49.8c0-1.8 1.4-3.2 3.2-3.2h33.5c1.8 0 3.2 1.4 3.2 3.2V187c.1 1.8-1.4 3.2-3.2 3.2z"/><path class="st3" d="M263.1 190.2h-33.5c-1.8 0-3.2-1.4-3.2-3.2v-49.8c0-1.8 1.4-3.2 3.2-3.2h33.5c1.8 0 3.2 1.4 3.2 3.2V187c0 1.8-1.4 3.2-3.2 3.2z"/><path class="st8" d="M365.1 238.2H172.3c-6.3 0-11.5-5.2-11.5-11.5v-15.3h215.8v15.3c0 6.3-5.2 11.5-11.5 11.5z"/><path class="st7" d="M263.1 190.2h-33.5c-1.8 0-3.2-1.4-3.2-3.2v-49.8c0-1.8 1.4-3.2 3.2-3.2h33.5c1.8 0 3.2 1.4 3.2 3.2V187c0 1.8-1.4 3.2-3.2 3.2z"/><path class="st3" d="M312.4 190.2h-33.5c-1.8 0-3.2-1.4-3.2-3.2v-49.8c0-1.8 1.4-3.2 3.2-3.2h33.5c1.8 0 3.2 1.4 3.2 3.2V187c0 1.8-1.4 3.2-3.2 3.2z"/><path class="st7" d="M312.4 190.2h-33.5c-1.8 0-3.2-1.4-3.2-3.2v-49.8c0-1.8 1.4-3.2 3.2-3.2h33.5c1.8 0 3.2 1.4 3.2 3.2V187c0 1.8-1.4 3.2-3.2 3.2z"/><circle class="st1" cx="269.6" cy="224.9" r="7.1"/><circle class="st9" cx="269.6" cy="224.8" r="7.1"/><path class="st10" d="M361.3 112.5h-21.5"/><path class="st11" d="M215.5 190.2h-35.8c-1.1 0-2.1-.9-2.1-2.1v-27.8c0-1.1.9-2.1 2.1-2.1h35.8c1.1 0 2.1.9 2.1 2.1v27.8c0 1.2-1 2.1-2.1 2.1zM264.5 190.2h-35.8c-1.1 0-2.1-.9-2.1-2.1v-27.8c0-1.1.9-2.1 2.1-2.1h35.8c1.1 0 2.1.9 2.1 2.1v27.8c0 1.2-.9 2.1-2.1 2.1zM313.2 190.2h-35c-1.1 0-2-.9-2-2v-27.8c0-1.1.9-2 2-2h35c1.1 0 2 .9 2 2v27.8c0 1.1-.9 2-2 2z"/><path class="st10" d="M328.2 112.5h-21.5M306.4 169h-21.5M306.4 178.2h-21.5M257.1 169h-21.5M257.1 178.2h-21.5M208.4 169h-21.6M208.4 178.2h-21.6"/><path class="st3" d="M177.6 158.3h40M225.8 158.3h39.9M276.6 158.3h39.9M360.2 190.2h-33.5c-1.8 0-3.2-1.4-3.2-3.2v-49.8c0-1.8 1.4-3.2 3.2-3.2h33.5c1.8 0 3.2 1.4 3.2 3.2V187c0 1.8-1.4 3.2-3.2 3.2z"/><path class="st7" d="M360.2 190.2h-33.5c-1.8 0-3.2-1.4-3.2-3.2v-49.8c0-1.8 1.4-3.2 3.2-3.2h33.5c1.8 0 3.2 1.4 3.2 3.2V187c0 1.8-1.4 3.2-3.2 3.2z"/><path class="st11" d="M361 190.2h-35c-1.1 0-2-.9-2-2v-27.8c0-1.1.9-2 2-2h35c1.1 0 2 .9 2 2v27.8c0 1.1-.9 2-2 2z"/><path class="st10" d="M354.2 169h-21.5M354.2 178.2h-21.5"/><path class="st3" d="M324.4 158.3h39.9"/><path class="st12" d="M192.5 113.4c-.8-3-3.5-5.1-6.7-5.1-3.8 0-6.9 3.2-6.9 7.1-2.4 0-4.4 2-4.4 4.4s2 4.4 4.4 4.4h12.5c3 0 5.4-2.4 5.4-5.4-.1-2.7-1.9-4.8-4.3-5.4z"/><path class="st1" d="M193.5 113.3c-.8-3-3.5-5.1-6.7-5.1-3.8 0-6.9 3.2-6.9 7.1-2.4 0-4.4 2-4.4 4.4s2 4.4 4.4 4.4h12.5c3 0 5.4-2.4 5.4-5.4 0-2.7-1.8-4.8-4.3-5.4z"/><path class="st9" d="M193.5 113.3c-.8-3-3.5-5.1-6.7-5.1-3.8 0-6.9 3.2-6.9 7.1-2.4 0-4.4 2-4.4 4.4s2 4.4 4.4 4.4h12.5c3 0 5.4-2.4 5.4-5.4 0-2.7-1.8-4.8-4.3-5.4z"/><path class="st13" d="M563.4 23.5c-1.2-1.3-3.2-1.5-4.5-.3l-9.3 8.2c-1.3 1.2-1.5 3.2-.3 4.5 1.2 1.3 3.2 1.5 4.5.3l9.3-8.2c1.3-1.1 1.5-3.1.3-4.5zM524.1 8.8c.1-1.8-1.2-3.3-3-3.4-1.8-.1-3.3 1.2-3.4 3l-.8 12.4c-.1 1.8 1.2 3.3 3 3.4 1.8.1 3.3-1.2 3.4-3l.8-12.4zM573.1 64.4l-12.4-.8c-1.8-.1-3.3 1.2-3.4 3-.1 1.8 1.2 3.3 3 3.4l12.4.8c1.8.1 3.3-1.2 3.4-3 .1-1.8-1.3-3.3-3-3.4z"/><path class="st14" d="M502.3 149.2l31-90.6c1.8-4.9.7-11.5-4.2-13.3l-89.3-31.9c-4.9-1.8-10.4.8-12.2 5.7l-31.9 89.1c-1.8 4.9.8 10.4 5.8 12.2l27 9.6s-2.5 14.9-14.7 21.4c-12.2 6.5 23.9 15.3 43.7-10.9l33.9 12.1c4.9 1.8 9.1 1.5 10.9-3.4z"/><path class="st15" d="M494.2 147.4l-2.9 24.6 7.2-2.8 2.8 7.1 7.1-2.8-2.9-7.1 7.6-3z"/><path class="st1" d="M246.6 247.6h44.9v-9.4h-44z"/><text transform="rotate(18.87 -113.62 1365.643)" class="st11 st16 st17">?</text><text transform="rotate(18.87 -114.216 1367.096)" class="st18 st16 st17">?</text><path class="st13" d="M9.3 13.3c.9-1 2.3-1.1 3.3-.2l6.8 6c1 .9 1.1 2.3.2 3.3-.9 1-2.3 1.1-3.3.2l-6.8-6c-.9-.8-1-2.3-.2-3.3zM38.2 2.5c-.1-1.3.9-2.4 2.2-2.5 1.3-.1 2.4.9 2.5 2.2l.6 9.1c.1 1.3-.9 2.4-2.2 2.5-1.3.1-2.4-.9-2.5-2.2l-.6-9.1zM2.2 43.4l9.1-.6c1.3-.1 2.4.9 2.5 2.2.1 1.3-.9 2.4-2.2 2.5l-9.1.6c-1.3.1-2.4-.9-2.5-2.2-.1-1.3.9-2.4 2.2-2.5z"/><path class="st3" d="M54.3 105.8L31.5 39.1c-1.3-3.6-.5-8.5 3.1-9.8l65.6-23.5c3.6-1.3 7.6.6 8.9 4.2l23.5 65.5c1.3 3.6-.6 7.6-4.2 8.9l-19.9 7.1s1.8 11 10.8 15.7c9 4.8-17.6 11.2-32.1-8l-24.9 8.9c-3.7 1.5-6.7 1.3-8-2.3z"/><text transform="rotate(-20.305 279.02 -171.37)" class="st14 st16 st19">?</text><text transform="rotate(-20.305 279.074 -172.442)" class="st18 st16 st19">?</text></svg>