<?xml version="1.0" encoding="utf-8"?>
<!-- Generator: Adobe Illustrator 19.2.1, SVG Export Plug-In . SVG Version: 6.00 Build 0)  -->
<svg version="1.1" id="Layer_1" xmlns="http://www.w3.org/2000/svg" xmlns:xlink="http://www.w3.org/1999/xlink" x="0px" y="0px"
	 viewBox="0 0 576.1 290.3" style="enable-background:new 0 0 576.1 290.3;" xml:space="preserve">
<style type="text/css">
	.st0{opacity:5.000000e-02;fill:#5D2E66;}
	.st1{opacity:0.1;fill:#5D2E66;}
	.st2{fill:#FFFFFF;}
	.st3{fill:#FFFFFF;stroke:#5D2E66;stroke-width:3;stroke-miterlimit:10;}
	.st4{fill:#FFFFFF;stroke:#5D2E66;stroke-width:3;stroke-linecap:round;stroke-miterlimit:10;}
	.st5{fill:#F2F2F2;}
	.st6{fill:#5D2E66;}
	.st7{fill:#FEA0A2;stroke:#5D2E66;stroke-width:3;stroke-miterlimit:10;}
	.st8{fill:#F2F2F2;stroke:#5D2E66;stroke-width:3;stroke-linecap:round;stroke-miterlimit:10;}
	.st9{fill:none;stroke:#5D2E66;stroke-width:3;stroke-miterlimit:10;}
	.st10{opacity:0.5;fill:#7E3D8E;stroke:#5D2E66;stroke-width:3;stroke-linecap:round;stroke-miterlimit:10;}
	.st11{fill:#F2F2F2;stroke:#5D2E66;stroke-width:3;stroke-miterlimit:10;}
	.st12{opacity:0.1;fill:none;}
	.st13{opacity:0.5;fill:#7E3D8E;}
	.st14{fill:#FFFFFF;stroke:#5D2E66;stroke-width:3;stroke-linejoin:round;stroke-miterlimit:10;}
	.st15{fill:#FFFFFF;stroke:#5D2E66;stroke-width:3;stroke-linecap:round;stroke-linejoin:round;stroke-miterlimit:10;}
	.st16{font-family:'DroidSans-Bold';}
	.st17{font-size:92.7261px;}
	.st18{fill:#709DC9;stroke:#5D2E66;stroke-width:3;stroke-miterlimit:10;}
	.st19{font-size:68.196px;}
</style>
<circle class="st0" cx="271.5" cy="179.7" r="110.6"/>
<circle class="st1" cx="272.1" cy="179.6" r="99.7"/>
<path class="st2" d="M365.1,238.2H172.3c-6.3,0-11.5-5.2-11.5-11.5v-18.5h215.8v18.5C376.6,233,371.4,238.2,365.1,238.2z"/>
<path class="st3" d="M239,269.9c10.8,0,8.3-45,8.3-45c0-1.8,1.4-3.3,3-3.3h38.5c1.7,0,3,1.5,3,3.3c0,0-1.5,44.9,7.7,45
	C299.6,269.9,228.2,269.9,239,269.9z"/>
<line class="st4" x1="223.9" y1="269.9" x2="315.2" y2="269.9"/>
<path class="st5" d="M365.1,238.2H172.3c-6.3,0-11.5-5.2-11.5-11.5v-18.5h215.8v18.5C376.6,233,371.4,238.2,365.1,238.2z"/>
<path class="st3" d="M364.7,238.2h-192c-6.6,0-11.9-5.4-11.9-11.9V107.8c0-6.6,5.4-11.9,11.9-11.9h192c6.6,0,11.9,5.4,11.9,11.9
	v118.5C376.6,232.8,371.2,238.2,364.7,238.2z"/>
<path class="st1" d="M210.2,195.3h-33.5c-1.8,0-3.2-1.4-3.2-3.2v-49.8c0-1.8,1.4-3.2,3.2-3.2h33.5c1.8,0,3.2,1.4,3.2,3.2v49.8
	C213.4,193.9,211.9,195.3,210.2,195.3z"/>
<path class="st1" d="M259.1,195.3h-33.5c-1.8,0-3.2-1.4-3.2-3.2v-49.8c0-1.8,1.4-3.2,3.2-3.2h33.5c1.8,0,3.2,1.4,3.2,3.2v49.8
	C262.3,193.9,260.9,195.3,259.1,195.3z"/>
<path class="st1" d="M308.2,195.3h-33.5c-1.8,0-3.2-1.4-3.2-3.2v-49.8c0-1.8,1.4-3.2,3.2-3.2h33.5c1.8,0,3.2,1.4,3.2,3.2v49.8
	C311.4,193.9,310,195.3,308.2,195.3z"/>
<path class="st1" d="M356.4,195.3h-33.5c-1.8,0-3.2-1.4-3.2-3.2v-49.8c0-1.8,1.4-3.2,3.2-3.2h33.5c1.8,0,3.2,1.4,3.2,3.2v49.8
	C359.6,193.9,358.2,195.3,356.4,195.3z"/>
<path class="st6" d="M246.3,225.4"/>
<path class="st3" d="M214.3,190.2h-33.5c-1.8,0-3.2-1.4-3.2-3.2v-49.8c0-1.8,1.4-3.2,3.2-3.2h33.5c1.8,0,3.2,1.4,3.2,3.2V187
	C217.6,188.8,216.1,190.2,214.3,190.2z"/>
<path class="st7" d="M214.3,190.2h-33.5c-1.8,0-3.2-1.4-3.2-3.2v-49.8c0-1.8,1.4-3.2,3.2-3.2h33.5c1.8,0,3.2,1.4,3.2,3.2V187
	C217.6,188.8,216.1,190.2,214.3,190.2z"/>
<path class="st3" d="M263.1,190.2h-33.5c-1.8,0-3.2-1.4-3.2-3.2v-49.8c0-1.8,1.4-3.2,3.2-3.2h33.5c1.8,0,3.2,1.4,3.2,3.2V187
	C266.3,188.8,264.9,190.2,263.1,190.2z"/>
<path class="st8" d="M365.1,238.2H172.3c-6.3,0-11.5-5.2-11.5-11.5v-15.3h215.8v15.3C376.6,233,371.4,238.2,365.1,238.2z"/>
<path class="st7" d="M263.1,190.2h-33.5c-1.8,0-3.2-1.4-3.2-3.2v-49.8c0-1.8,1.4-3.2,3.2-3.2h33.5c1.8,0,3.2,1.4,3.2,3.2V187
	C266.3,188.8,264.9,190.2,263.1,190.2z"/>
<path class="st3" d="M312.4,190.2h-33.5c-1.8,0-3.2-1.4-3.2-3.2v-49.8c0-1.8,1.4-3.2,3.2-3.2h33.5c1.8,0,3.2,1.4,3.2,3.2V187
	C315.6,188.8,314.2,190.2,312.4,190.2z"/>
<path class="st7" d="M312.4,190.2h-33.5c-1.8,0-3.2-1.4-3.2-3.2v-49.8c0-1.8,1.4-3.2,3.2-3.2h33.5c1.8,0,3.2,1.4,3.2,3.2V187
	C315.6,188.8,314.2,190.2,312.4,190.2z"/>
<circle class="st1" cx="269.6" cy="224.9" r="7.1"/>
<circle class="st9" cx="269.6" cy="224.8" r="7.1"/>
<line class="st10" x1="361.3" y1="112.5" x2="339.8" y2="112.5"/>
<path class="st11" d="M215.5,190.2h-35.8c-1.1,0-2.1-0.9-2.1-2.1v-27.8c0-1.1,0.9-2.1,2.1-2.1h35.8c1.1,0,2.1,0.9,2.1,2.1v27.8
	C217.6,189.3,216.6,190.2,215.5,190.2z"/>
<path class="st11" d="M264.5,190.2h-35.8c-1.1,0-2.1-0.9-2.1-2.1v-27.8c0-1.1,0.9-2.1,2.1-2.1h35.8c1.1,0,2.1,0.9,2.1,2.1v27.8
	C266.6,189.3,265.7,190.2,264.5,190.2z"/>
<path class="st11" d="M313.2,190.2h-35c-1.1,0-2-0.9-2-2v-27.8c0-1.1,0.9-2,2-2h35c1.1,0,2,0.9,2,2v27.8
	C315.2,189.3,314.3,190.2,313.2,190.2z"/>
<line class="st10" x1="328.2" y1="112.5" x2="306.7" y2="112.5"/>
<line class="st10" x1="306.4" y1="169" x2="284.9" y2="169"/>
<line class="st10" x1="306.4" y1="178.2" x2="284.9" y2="178.2"/>
<line class="st10" x1="257.1" y1="169" x2="235.6" y2="169"/>
<line class="st10" x1="257.1" y1="178.2" x2="235.6" y2="178.2"/>
<line class="st10" x1="208.4" y1="169" x2="186.8" y2="169"/>
<line class="st10" x1="208.4" y1="178.2" x2="186.8" y2="178.2"/>
<line class="st3" x1="177.6" y1="158.3" x2="217.6" y2="158.3"/>
<line class="st3" x1="225.8" y1="158.3" x2="265.7" y2="158.3"/>
<line class="st3" x1="276.6" y1="158.3" x2="316.5" y2="158.3"/>
<path class="st3" d="M360.2,190.2h-33.5c-1.8,0-3.2-1.4-3.2-3.2v-49.8c0-1.8,1.4-3.2,3.2-3.2h33.5c1.8,0,3.2,1.4,3.2,3.2V187
	C363.4,188.8,362,190.2,360.2,190.2z"/>
<path class="st7" d="M360.2,190.2h-33.5c-1.8,0-3.2-1.4-3.2-3.2v-49.8c0-1.8,1.4-3.2,3.2-3.2h33.5c1.8,0,3.2,1.4,3.2,3.2V187
	C363.4,188.8,362,190.2,360.2,190.2z"/>
<path class="st11" d="M361,190.2h-35c-1.1,0-2-0.9-2-2v-27.8c0-1.1,0.9-2,2-2h35c1.1,0,2,0.9,2,2v27.8
	C363,189.3,362.1,190.2,361,190.2z"/>
<line class="st10" x1="354.2" y1="169" x2="332.7" y2="169"/>
<line class="st10" x1="354.2" y1="178.2" x2="332.7" y2="178.2"/>
<line class="st3" x1="324.4" y1="158.3" x2="364.3" y2="158.3"/>
<path class="st12" d="M192.5,113.4c-0.8-3-3.5-5.1-6.7-5.1c-3.8,0-6.9,3.2-6.9,7.1l0,0c-2.4,0-4.4,2-4.4,4.4s2,4.4,4.4,4.4h12.5
	c3,0,5.4-2.4,5.4-5.4C196.7,116.1,194.9,114,192.5,113.4z"/>
<path class="st1" d="M193.5,113.3c-0.8-3-3.5-5.1-6.7-5.1c-3.8,0-6.9,3.2-6.9,7.1c0,0,0,0,0,0c-2.4,0-4.4,2-4.4,4.4s2,4.4,4.4,4.4
	h12.5c3,0,5.4-2.4,5.4-5.4C197.8,116,196,113.9,193.5,113.3z"/>
<path class="st9" d="M193.5,113.3c-0.8-3-3.5-5.1-6.7-5.1c-3.8,0-6.9,3.2-6.9,7.1c0,0,0,0,0,0c-2.4,0-4.4,2-4.4,4.4s2,4.4,4.4,4.4
	h12.5c3,0,5.4-2.4,5.4-5.4C197.8,116,196,113.9,193.5,113.3z"/>
<path class="st13" d="M563.4,23.5c-1.2-1.3-3.2-1.5-4.5-0.3l-9.3,8.2c-1.3,1.2-1.5,3.2-0.3,4.5c1.2,1.3,3.2,1.5,4.5,0.3l9.3-8.2
	C564.4,26.9,564.6,24.9,563.4,23.5z"/>
<path class="st13" d="M524.1,8.8c0.1-1.8-1.2-3.3-3-3.4c-1.8-0.1-3.3,1.2-3.4,3l-0.8,12.4c-0.1,1.8,1.2,3.3,3,3.4
	c1.8,0.1,3.3-1.2,3.4-3L524.1,8.8z"/>
<path class="st13" d="M573.1,64.4l-12.4-0.8c-1.8-0.1-3.3,1.2-3.4,3c-0.1,1.8,1.2,3.3,3,3.4l12.4,0.8c1.8,0.1,3.3-1.2,3.4-3
	C576.2,66,574.8,64.5,573.1,64.4z"/>
<path class="st14" d="M502.3,149.2l31-90.6c1.8-4.9,0.7-11.5-4.2-13.3l-89.3-31.9c-4.9-1.8-10.4,0.8-12.2,5.7l-31.9,89.1
	c-1.8,4.9,0.8,10.4,5.8,12.2l27,9.6c0,0-2.5,14.9-14.7,21.4c-12.2,6.5,23.9,15.3,43.7-10.9l33.9,12.1
	C496.3,154.4,500.5,154.1,502.3,149.2z"/>
<polygon class="st15" points="494.2,147.4 491.3,172 498.5,169.2 501.3,176.3 508.4,173.5 505.5,166.4 513.1,163.4 "/>
<polygon class="st1" points="246.6,247.6 291.5,247.6 291.5,238.2 247.5,238.2 "/>
<text transform="matrix(0.9462 0.3234 -0.3234 0.9462 435.543 110.1356)" class="st11 st16 st17">?</text>
<text transform="matrix(0.9462 0.3234 -0.3234 0.9462 435.9809 110.4066)" class="st18 st16 st17">?</text>
<path class="st13" d="M9.3,13.3c0.9-1,2.3-1.1,3.3-0.2l6.8,6c1,0.9,1.1,2.3,0.2,3.3c-0.9,1-2.3,1.1-3.3,0.2l-6.8-6
	C8.6,15.8,8.5,14.3,9.3,13.3z"/>
<path class="st13" d="M38.2,2.5c-0.1-1.3,0.9-2.4,2.2-2.5c1.3-0.1,2.4,0.9,2.5,2.2l0.6,9.1c0.1,1.3-0.9,2.4-2.2,2.5
	c-1.3,0.1-2.4-0.9-2.5-2.2L38.2,2.5z"/>
<path class="st13" d="M2.2,43.4l9.1-0.6c1.3-0.1,2.4,0.9,2.5,2.2c0.1,1.3-0.9,2.4-2.2,2.5l-9.1,0.6c-1.3,0.1-2.4-0.9-2.5-2.2
	C-0.1,44.6,0.9,43.5,2.2,43.4z"/>
<path class="st3" d="M54.3,105.8L31.5,39.1c-1.3-3.6-0.5-8.5,3.1-9.8l65.6-23.5c3.6-1.3,7.6,0.6,8.9,4.2l23.5,65.5
	c1.3,3.6-0.6,7.6-4.2,8.9l-19.9,7.1c0,0,1.8,11,10.8,15.7c9,4.8-17.6,11.2-32.1-8l-24.9,8.9C58.6,109.6,55.6,109.4,54.3,105.8z"/>
<text transform="matrix(0.9378 -0.347 0.347 0.9378 76.8035 86.1717)" class="st14 st16 st19">?</text>
<text transform="matrix(0.9378 -0.347 0.347 0.9378 77.1787 86.1234)" class="st18 st16 st19">?</text>
</svg>
