<?xml version="1.0" encoding="utf-8"?>
<!-- Generator: Adobe Illustrator 19.2.0, SVG Export Plug-In . SVG Version: 6.00 Build 0)  -->
<svg version="1.1" id="Laag_1" xmlns="http://www.w3.org/2000/svg" xmlns:xlink="http://www.w3.org/1999/xlink" x="0px" y="0px"
	 viewBox="0 0 198.3 200" style="enable-background:new 0 0 198.3 200;" xml:space="preserve">
<style type="text/css">
	.st0{fill:#231F20;}
	.st1{fill:#7D3C8C;}
	.st2{fill:#333333;stroke:#231F20;stroke-width:0.8183;stroke-miterlimit:10;}
	.st3{fill:none;}
	.st4{fill:#FFFFFF;}
	.st5{fill:#FF5072;}
	.st6{fill:#231F20;stroke:#231F20;stroke-width:0.8146;}
	.st7{fill:#84CD1A;}
	.st8{fill:#231F20;stroke:#231F20;stroke-miterlimit:10;}
</style>
<g>
	<circle class="st5" cx="99.1" cy="95.4" r="88.2"/>
</g>
<g>
	<g>
		<path class="st4" d="M54.4,73.3c26.1,0,52.1,0,78.2,0c3.8,0,7.5,0,11.3,0c5.8,0,5.8-9,0-9c-26.1,0-52.1,0-78.2,0
			c-3.8,0-7.5,0-11.3,0C48.6,64.3,48.6,73.3,54.4,73.3L54.4,73.3z"/>
	</g>
</g>
<g>
	<g>
		<path class="st4" d="M61.5,68.8c0.2,4.5,1.2,9.1,1.9,13.5c1.3,8.9,2.6,17.7,4,26.6c1.9,12.8,3.9,25.7,5.9,38.5
			c0.3,1.9,2.5,3.3,4.3,3.3c14.8,0,29.6,0,44.5,0c1.8,0,4.1-1.4,4.3-3.3c3.9-25.8,7.7-51.6,11.6-77.4c0.4-2.8-1.1-5.7-4.3-5.7
			c-22.5,0-45.1,0-67.6,0c-5.8,0-5.8,9,0,9c22.5,0,45.1,0,67.6,0c-1.4-1.9-2.9-3.8-4.3-5.7c-3.9,25.8-7.7,51.6-11.6,77.4
			c1.4-1.1,2.9-2.2,4.3-3.3c-14.8,0-29.6,0-44.5,0c1.4,1.1,2.9,2.2,4.3,3.3c-1.9-12.5-3.8-25-5.7-37.5c-1.3-8.7-2.6-17.4-3.9-26
			c-0.5-3.1-0.9-6.1-1.3-9.2c-0.3-2.4-0.4-1.7-0.4-3.4C70.2,63,61.2,63,61.5,68.8z"/>
	</g>
</g>
<g>
	<g>
		<path class="st4" d="M82.7,66.1c0-0.3,0.2-1.1,0,0.1c0.1-0.7,0.2-1.3,0.4-2c0.4-2,1-4,1.9-5.8c3-6.1,8.5-9.4,15.3-9.2
			c6.4,0.2,11.3,3.6,14.1,9.3c0.9,1.8,1.5,3.8,2,5.8c0.2,0.7,0.3,1.5,0.4,2.2c-0.1-0.6-0.1-0.8,0-0.1c0.5,5.7,9.5,5.8,9,0
			c-1.2-13.8-11-25.7-25.5-26.1c-15-0.4-25.4,11.7-26.6,25.9C73.2,71.8,82.2,71.8,82.7,66.1L82.7,66.1z"/>
	</g>
</g>
</svg>
