<?xml version="1.0" encoding="utf-8"?>
<!-- Generator: Adobe Illustrator 19.2.0, SVG Export Plug-In . SVG Version: 6.00 Build 0)  -->
<svg version="1.1" id="Laag_1" xmlns="http://www.w3.org/2000/svg" xmlns:xlink="http://www.w3.org/1999/xlink" x="0px" y="0px"
	 viewBox="0 0 192.8 192.8" style="enable-background:new 0 0 192.8 192.8;" xml:space="preserve">
<style type="text/css">
	.st0{fill:#231F20;}
	.st1{fill:#7D3C8C;}
	.st2{fill:#333333;stroke:#231F20;stroke-width:0.8183;stroke-miterlimit:10;}
	.st3{fill:none;}
	.st4{fill:#FFFFFF;}
	.st5{fill:#FF5072;}
	.st6{fill:#231F20;stroke:#231F20;stroke-width:0.8146;}
	.st7{fill:#84CD1A;}
	.st8{fill:#231F20;stroke:#231F20;stroke-miterlimit:10;}
</style>
<g>
	<g>
		<path class="st0" d="M48.1,56.7C35.6,69.3,23,81.8,10.4,94.4c-1.7,1.7-1.7,4.7,0,6.4C23,113,35.6,125.2,48.1,137.4
			c4.2,4,10.5-2.3,6.4-6.4c-12.6-12.2-25.1-24.4-37.7-36.7c0,2.1,0,4.2,0,6.4c12.6-12.6,25.1-25.1,37.7-37.7
			C58.6,59,52.2,52.6,48.1,56.7L48.1,56.7z"/>
	</g>
</g>
<g>
	<g>
		<path class="st0" d="M138.4,63.1c12.6,12.6,25.1,25.1,37.7,37.7c0-2.1,0-4.2,0-6.4c-12.6,12.2-25.1,24.4-37.7,36.7
			c-4.2,4,2.2,10.4,6.4,6.4c12.6-12.2,25.1-24.4,37.7-36.7c1.7-1.7,1.7-4.7,0-6.4c-12.6-12.6-25.1-25.1-37.7-37.7
			C140.7,52.6,134.3,59,138.4,63.1L138.4,63.1z"/>
	</g>
</g>
<g>
	<g>
		<path class="st0" d="M119.2,27.3C104,66.4,88.8,105.4,73.6,144.5c-2.1,5.5-4.3,11-6.4,16.6c-2.1,5.4,6.6,7.7,8.7,2.4
			c15.2-39.1,30.4-78.1,45.6-117.2c2.1-5.5,4.3-11,6.4-16.6C130,24.3,121.3,22,119.2,27.3L119.2,27.3z"/>
	</g>
</g>
</svg>
