<?xml version="1.0" encoding="utf-8"?>
<!-- Generator: Adobe Illustrator 19.2.0, SVG Export Plug-In . SVG Version: 6.00 Build 0)  -->
<svg version="1.1" id="Laag_1" xmlns="http://www.w3.org/2000/svg" xmlns:xlink="http://www.w3.org/1999/xlink" x="0px" y="0px"
	 viewBox="0 0 198.3 200" style="enable-background:new 0 0 198.3 200;" xml:space="preserve">
<style type="text/css">
	.st0{fill:#231F20;}
	.st1{fill:#7D3C8C;}
	.st2{fill:#333333;stroke:#231F20;stroke-width:0.8183;stroke-miterlimit:10;}
	.st3{fill:none;}
	.st4{fill:#FFFFFF;}
	.st5{fill:#FF5072;}
	.st6{fill:#231F20;stroke:#231F20;stroke-width:0.8146;}
	.st7{fill:#84CD1A;}
	.st8{fill:#231F20;stroke:#231F20;stroke-miterlimit:10;}
</style>
<g>
	<g>
		<path class="st0" d="M123.6,185.6c-31.9,0-63.8,0-95.7,0c-4.6,0-9.1,0-13.7,0c1.5,1.5,3,3,4.5,4.5c0-43.1,0-86.2,0-129.2
			c0-6.1,0-12.3,0-18.4c-1.5,1.5-3,3-4.5,4.5c31.9,0,63.8,0,95.7,0c4.6,0,9.1,0,13.7,0c-1.5-1.5-3-3-4.5-4.5c0,43.1,0,86.2,0,129.2
			c0,6.1,0,12.3,0,18.4c0,5.8,9,5.8,9,0c0-43.1,0-86.2,0-129.2c0-6.1,0-12.3,0-18.4c0-2.4-2.1-4.5-4.5-4.5c-31.9,0-63.8,0-95.7,0
			c-4.6,0-9.1,0-13.7,0c-2.4,0-4.5,2.1-4.5,4.5c0,43.1,0,86.2,0,129.2c0,6.1,0,12.3,0,18.4c0,2.4,2.1,4.5,4.5,4.5
			c31.9,0,63.8,0,95.7,0c4.6,0,9.1,0,13.7,0C129.4,194.6,129.4,185.6,123.6,185.6z"/>
	</g>
</g>
<g>
	<g>
		<path class="st0" d="M35.4,70.4c12.1,0,24.1,0,36.2,0c5.8,0,5.8-9,0-9c-12.1,0-24.1,0-36.2,0C29.6,61.4,29.6,70.4,35.4,70.4
			L35.4,70.4z"/>
	</g>
</g>
<g>
	<g>
		<path class="st0" d="M35.4,93.5c12.1,0,24.1,0,36.2,0c5.8,0,5.8-9,0-9c-12.1,0-24.1,0-36.2,0C29.6,84.5,29.6,93.5,35.4,93.5
			L35.4,93.5z"/>
	</g>
</g>
<g>
	<g>
		<path class="st0" d="M35.4,116.5c19.3,0,38.7,0,58,0c5.8,0,5.8-9,0-9c-19.3,0-38.7,0-58,0C29.6,107.5,29.6,116.5,35.4,116.5
			L35.4,116.5z"/>
	</g>
</g>
<g>
	<g>
		<path class="st0" d="M129.2,113.3c9.6,0,19.3,0,28.9,0c5.8,0,5.8-9,0-9c-9.6,0-19.3,0-28.9,0C123.4,104.3,123.4,113.3,129.2,113.3
			L129.2,113.3z"/>
	</g>
</g>
<g>
	<g>
		<path class="st0" d="M129.2,136.3c9.6,0,19.3,0,28.9,0c5.8,0,5.8-9,0-9c-9.6,0-19.3,0-28.9,0C123.4,127.3,123.4,136.3,129.2,136.3
			L129.2,136.3z"/>
	</g>
</g>
<g>
	<g>
		<path class="st0" d="M129.2,88.6c9.6,0,19.3,0,28.9,0c5.8,0,5.8-9,0-9c-9.6,0-19.3,0-28.9,0C123.4,79.6,123.4,88.6,129.2,88.6
			L129.2,88.6z"/>
	</g>
</g>
<g>
	<g>
		<path class="st0" d="M129.2,63.6c9.6,0,19.3,0,28.9,0c5.8,0,5.8-9,0-9c-9.6,0-19.3,0-28.9,0C123.4,54.6,123.4,63.6,129.2,63.6
			L129.2,63.6z"/>
	</g>
</g>
<g>
	<g>
		<path class="st0" d="M35.4,140.8c19.3,0,38.7,0,58,0c5.8,0,5.8-9,0-9c-19.3,0-38.7,0-58,0C29.6,131.8,29.6,140.8,35.4,140.8
			L35.4,140.8z"/>
	</g>
</g>
<g>
	<g>
		<path class="st0" d="M35.4,164.2c19.3,0,38.7,0,58,0c5.8,0,5.8-9,0-9c-19.3,0-38.7,0-58,0C29.6,155.2,29.6,164.2,35.4,164.2
			L35.4,164.2z"/>
	</g>
</g>
<g>
	<g>
		<path class="st0" d="M83.5,42.5c0-7.6,0-15.1,0-22.7c-1.5,1.5-3,3-4.5,4.5c28.3,0,56.6,0,84.9,0c4.1,0,8.2,0,12.3,0
			c-1.5-1.5-3-3-4.5-4.5c0,40.9,0,81.8,0,122.7c0,5.7,0,11.5,0,17.2c1.5-1.5,3-3,4.5-4.5c-16.2,0-32.4,0-48.6,0c-5.8,0-5.8,9,0,9
			c16.2,0,32.4,0,48.6,0c2.4,0,4.5-2.1,4.5-4.5c0-40.9,0-81.8,0-122.7c0-5.7,0-11.5,0-17.2c0-2.4-2.1-4.5-4.5-4.5
			c-28.3,0-56.6,0-84.9,0c-4.1,0-8.2,0-12.3,0c-2.4,0-4.5,2.1-4.5,4.5c0,7.6,0,15.1,0,22.7C74.5,48.3,83.5,48.3,83.5,42.5L83.5,42.5
			z"/>
	</g>
</g>
</svg>
