<?xml version="1.0" encoding="utf-8"?>
<!-- Generator: Adobe Illustrator 19.2.0, SVG Export Plug-In . SVG Version: 6.00 Build 0)  -->
<svg version="1.1" id="Laag_1" xmlns="http://www.w3.org/2000/svg" xmlns:xlink="http://www.w3.org/1999/xlink" x="0px" y="0px"
	 viewBox="0 0 140.3 190.7" style="enable-background:new 0 0 140.3 190.7;" xml:space="preserve">
<style type="text/css">
	.st0{fill:#231F20;}
	.st1{fill:#7D3C8C;}
	.st2{fill:#333333;stroke:#231F20;stroke-width:0.8183;stroke-miterlimit:10;}
	.st3{fill:none;}
	.st4{fill:#FFFFFF;}
	.st5{fill:#FF5072;}
	.st6{fill:#231F20;stroke:#231F20;stroke-width:0.8146;}
	.st7{fill:#84CD1A;}
	.st8{fill:#231F20;stroke:#231F20;stroke-miterlimit:10;}
</style>
<g>
	<g>
		<path class="st0" d="M10.5,163.3c0-43,0-86,0-129c0-6.1,0-12.2,0-18.4c0-5.8-9-5.8-9,0c0,43,0,86,0,129c0,6.1,0,12.2,0,18.4
			C1.5,169.1,10.5,169.1,10.5,163.3L10.5,163.3z"/>
	</g>
</g>
<g>
	<g>
		<path class="st0" d="M8.3,33.3c6.9-5.1,14.3-9.7,21.9-13.7c8.7-4.6,24.4-13.6,33.8-6.5c8.7,6.6,11.2,18.7,20.5,24.8
			c10.7,7,23.1,0.6,31.9-6.3c8.3-6.5,15.5-14.6,21.6-23.2c-2.8-0.8-5.6-1.5-8.4-2.3c0,28.2-0.7,56.5,0,84.6c0,0.2-0.2,1.2,0,1.4
			c-0.2-0.3,1.2-2.7,0.2-1.1c-1.6,2.5-2.7,5.1-4.4,7.5c-6.5,9-16.6,15.1-28,14.6c-20.2-1-20-31-40.2-31.7
			c-11.9-0.4-24.1,7.2-33.7,13.3c-7.1,4.5-14,9.4-20.6,14.6c2.6,1.1,5.1,2.1,7.7,3.2c0-27.7,0-55.5,0-83.2c0-5.8-9-5.8-9,0
			c0,27.7,0,55.5,0,83.2c0,4.2,4.8,5.5,7.7,3.2c5.1-4.1,11.4-8.5,17.3-12.3c8.4-5.4,19.8-13.3,30.2-13c8.2,0.2,12.2,11,16.2,16.7
			c6.2,8.9,14.4,15,25.6,15c11.7,0,22.7-5.4,30.5-14c3.6-4,8.9-10.2,9.6-15.9c0.5-4,0-8.4,0-12.4c0-9.1,0-18.2,0-27.3
			c0-15.5,0-31.1,0-46.6c0-4.7-5.9-5.7-8.4-2.3c-8.1,11.3-30.8,39.5-44.9,22.7c-6.7-8-10.4-18.9-20.6-23.3
			C53.5-1.7,39.6,4.8,29.5,9.8c-9,4.5-17.7,9.8-25.8,15.7C-0.9,28.9,3.6,36.7,8.3,33.3z"/>
	</g>
</g>
</svg>
