<?xml version="1.0" encoding="utf-8"?>
<!-- Generator: Adobe Illustrator 19.2.0, SVG Export Plug-In . SVG Version: 6.00 Build 0)  -->
<svg version="1.1" id="Laag_1" xmlns="http://www.w3.org/2000/svg" xmlns:xlink="http://www.w3.org/1999/xlink" x="0px" y="0px"
	 viewBox="0 0 193.3 197.3" style="enable-background:new 0 0 193.3 197.3;" xml:space="preserve">
<style type="text/css">
	.st0{fill:#231F20;}
	.st1{fill:#7D3C8C;}
	.st2{fill:#333333;stroke:#231F20;stroke-width:0.8183;stroke-miterlimit:10;}
	.st3{fill:none;}
	.st4{fill:#FFFFFF;}
	.st5{fill:#FF5072;}
	.st6{fill:#231F20;stroke:#231F20;stroke-width:0.8146;}
	.st7{fill:#84CD1A;}
	.st8{fill:#231F20;stroke:#231F20;stroke-miterlimit:10;}
</style>
<g>
	<g>
		<g>
			<path class="st0" d="M10.8,98.6C11,62.9,33.5,30,67.3,17.8c34.1-12.3,72.8-1.6,95.9,26.3c22.9,27.7,25.7,68.2,7.2,98.9
				C152,173.6,115.3,190,80.2,183C40.1,175.1,11.1,139.4,10.8,98.6c0-5.8-9-5.8-9,0c0.3,39.7,25.2,75.6,62.6,89.3
				c37.4,13.8,81.1,1.6,106.1-29.4c24.9-30.9,28.3-75.3,7.5-109.4C157.1,15.3,116.7-2.2,77.8,5.6c-44,8.7-75.7,48.6-76,93.1
				C1.7,104.4,10.7,104.4,10.8,98.6z"/>
		</g>
	</g>
</g>
<g>
	<g>
		<path class="st0" d="M92.2,46c0,17.6,0,35.1,0,52.7c0,5.8,9,5.8,9,0c0-17.6,0-35.1,0-52.7C101.2,40.2,92.2,40.2,92.2,46L92.2,46z"
			/>
	</g>
</g>
<g>
	<g>
		<path class="st0" d="M93.6,95.5c-12,12-24.1,24.1-36.1,36.1c-4.1,4.1,2.3,10.5,6.4,6.4c12-12,24.1-24.1,36.1-36.1
			C104,97.7,97.7,91.4,93.6,95.5L93.6,95.5z"/>
	</g>
</g>
</svg>
