<?xml version="1.0" encoding="utf-8"?>
<!-- Generator: Adobe Illustrator 19.2.0, SVG Export Plug-In . SVG Version: 6.00 Build 0)  -->
<svg version="1.1" id="Layer_1" xmlns="http://www.w3.org/2000/svg" xmlns:xlink="http://www.w3.org/1999/xlink" x="0px" y="0px"
	 viewBox="0 0 25 25" style="enable-background:new 0 0 25 25;" xml:space="preserve">
<style type="text/css">
	.st0{fill:none;stroke:#231F20;stroke-linecap:round;stroke-linejoin:round;stroke-miterlimit:10;}
	.st1{fill:#231F20;}
	.st2{fill:#FF5072;}
	.st3{fill:#231F20;stroke:#231F20;stroke-linecap:round;stroke-linejoin:round;stroke-miterlimit:10;}
	.st4{fill:none;stroke:#231F20;stroke-linecap:round;stroke-linejoin:round;}
	.st5{fill:#7D3C8C;stroke:#7D3C8C;stroke-miterlimit:10;}
	.st6{fill:none;stroke:#FFFFFF;stroke-linecap:round;stroke-linejoin:round;stroke-miterlimit:10;}
	.st7{fill:#1ED761;stroke:#1ED761;stroke-width:8.835321e-02;stroke-miterlimit:10;}
	.st8{fill:#FFFFFF;stroke:#231F20;stroke-linecap:round;stroke-linejoin:round;stroke-miterlimit:10;}
	.st9{fill:#231F20;stroke:#231F20;stroke-linecap:round;stroke-linejoin:round;}
	.st10{fill:none;stroke:#231F20;stroke-width:0.8713;stroke-linecap:round;stroke-linejoin:round;stroke-miterlimit:10;}
	.st11{fill:none;stroke:#231F20;stroke-width:0.9352;stroke-linecap:round;stroke-linejoin:round;stroke-miterlimit:10;}
	.st12{fill:#231F20;stroke:#231F20;stroke-width:0.9352;stroke-linecap:round;stroke-linejoin:round;stroke-miterlimit:10;}
	.st13{fill:#231F20;stroke:#231F20;stroke-width:0.8065;stroke-linecap:round;stroke-linejoin:round;stroke-miterlimit:10;}
	.st14{fill:#7D3C8C;}
	.st15{fill:none;}
	.st16{fill:none;stroke:#231F20;stroke-width:0.8581;stroke-linecap:round;stroke-linejoin:round;stroke-miterlimit:10;}
	.st17{fill:none;stroke:#231F20;stroke-width:0.9197;stroke-linecap:round;stroke-linejoin:round;stroke-miterlimit:10;}
	.st18{fill:#231F20;stroke:#231F20;stroke-width:0.9197;stroke-linecap:round;stroke-linejoin:round;stroke-miterlimit:10;}
</style>
<g>
	<ellipse transform="matrix(0.184 -0.9829 0.9829 0.184 -8.4502 19.0827)" class="st1" cx="7.3" cy="14.6" rx="1" ry="1"/>
	<ellipse transform="matrix(0.184 -0.9829 0.9829 0.184 -4.8911 16.2299)" class="st1" cx="7.3" cy="11.1" rx="1" ry="1"/>
	<ellipse transform="matrix(0.184 -0.9829 0.9829 0.184 0.1016 16.2466)" class="st1" cx="9.8" cy="8.1" rx="1" ry="1"/>
	<ellipse transform="matrix(0.184 -0.9829 0.9829 0.184 4.0372 19.7193)" class="st1" cx="13.9" cy="7.4" rx="1" ry="1"/>
	<ellipse transform="matrix(0.184 -0.9829 0.9829 0.184 4.0771 24.8136)" class="st1" cx="17" cy="10" rx="1" ry="1"/>
	<path class="st0" d="M14.1,16c-1.6,1.1,1.8,3,0.5,4s-6.5,0.9-9.3-2.5S3.6,7,10,4.9s10.2,4.3,10.2,4.3s2.2,3.9,0,6.1
		S15.7,15,14.1,16z"/>
	<path class="st0" d="M12.1,12.7L12.1,12.7c0.5,0,1,0.4,1,1v0c0,0.5-0.4,1-1,1h0c-0.5,0-1-0.4-1-1v0C11.1,13.1,11.6,12.7,12.1,12.7z
		"/>
</g>
</svg>
