<?xml version="1.0" encoding="utf-8"?>
<!-- Generator: Adobe Illustrator 19.2.0, SVG Export Plug-In . SVG Version: 6.00 Build 0)  -->
<svg version="1.1" id="Laag_1" xmlns="http://www.w3.org/2000/svg" xmlns:xlink="http://www.w3.org/1999/xlink" x="0px" y="0px"
	 viewBox="0 0 193.3 197.3" style="enable-background:new 0 0 193.3 197.3;" xml:space="preserve">
<style type="text/css">
	.st0{fill:#231F20;}
	.st1{fill:#7D3C8C;}
	.st2{fill:#333333;stroke:#231F20;stroke-width:0.8183;stroke-miterlimit:10;}
	.st3{fill:none;}
	.st4{fill:#FFFFFF;}
	.st5{fill:#FF5072;}
	.st6{fill:#231F20;stroke:#231F20;stroke-width:0.8146;}
	.st7{fill:#84CD1A;}
	.st8{fill:#231F20;stroke:#231F20;stroke-miterlimit:10;}
</style>
<g>
	<g>
		<g>
			<path class="st0" d="M12.3,89.3c0.3-32.1,20.4-61.7,50.9-72.5c30.5-10.9,64.9-1.4,85.6,23.3c20.9,24.9,23.4,61.6,6.5,89.3
				c-16.7,27.4-49.7,42-81.2,35.6C38.4,157.6,12.6,125.7,12.3,89.3c0-5.8-9-5.8-9,0c0.3,36,22.9,68.6,56.9,81
				c33.5,12.3,72.7,1.6,95.4-25.9c23.1-28,26.4-68.5,7.5-99.7C144.4,13.9,107.8-2,72.5,4.9c-40,7.8-68.8,44-69.1,84.4
				C3.3,95.1,12.3,95.1,12.3,89.3z"/>
		</g>
	</g>
	<g>
		<g>
			<path class="st0" d="M142.3,153.9c12.3,12.3,24.7,24.7,37,37c4.1,4.1,10.5-2.3,6.4-6.4c-12.3-12.3-24.7-24.7-37-37
				C144.5,143.5,138.1,149.8,142.3,153.9L142.3,153.9z"/>
		</g>
	</g>
</g>
</svg>
