<?xml version="1.0" encoding="utf-8"?>
<!-- Generator: Adobe Illustrator 19.2.0, SVG Export Plug-In . SVG Version: 6.00 Build 0)  -->
<svg version="1.1" id="Laag_1" xmlns="http://www.w3.org/2000/svg" xmlns:xlink="http://www.w3.org/1999/xlink" x="0px" y="0px"
	 viewBox="0 0 198.3 200" style="enable-background:new 0 0 198.3 200;" xml:space="preserve">
<style type="text/css">
	.st0{fill:#231F20;}
	.st1{fill:#7D3C8C;}
	.st2{fill:#333333;stroke:#231F20;stroke-width:0.8183;stroke-miterlimit:10;}
	.st3{fill:none;}
	.st4{fill:#FFFFFF;}
	.st5{fill:#FF5072;}
	.st6{fill:#231F20;stroke:#231F20;stroke-width:0.8146;}
	.st7{fill:#84CD1A;}
	.st8{fill:#231F20;stroke:#231F20;stroke-miterlimit:10;}
</style>
<g>
	<g>
		<path class="st0" d="M10.7,60.3c0,18.7,0,37.4,0,56.2c0,5.8,9,5.8,9,0c0-18.7,0-37.4,0-56.2C19.7,54.5,10.7,54.5,10.7,60.3
			L10.7,60.3z"/>
	</g>
</g>
<g>
	<g>
		<path class="st0" d="M28.7,63.3c0,15.7,0,31.3,0,47c0,2,1.4,3.8,3.3,4.3c27.9,8.6,55.8,17.3,83.6,25.9c4,1.2,8,2.5,12,3.7
			c2.8,0.9,5.7-1.5,5.7-4.3c0-29.4,0-58.8,0-88.2c0-4.2,0-8.3,0-12.5c0-3-2.9-5-5.7-4.3c-27.8,7-55.7,14-83.5,21c-4,1-8.1,2-12.1,3
			c-5.6,1.4-3.2,10.1,2.4,8.7c27.8-7,55.7-14,83.5-21c4-1,8.1-2,12.1-3c-1.9-1.4-3.8-2.9-5.7-4.3c0,29.4,0,58.8,0,88.2
			c0,4.2,0,8.3,0,12.5c1.9-1.4,3.8-2.9,5.7-4.3c-27.9-8.6-55.8-17.3-83.6-25.9c-4-1.2-8-2.5-12-3.7c1.1,1.4,2.2,2.9,3.3,4.3
			c0-15.7,0-31.3,0-47C37.7,57.5,28.7,57.5,28.7,63.3z"/>
	</g>
</g>
<g>
	<g>
		<path class="st0" d="M32.8,178.7c11.5,0.3,22.9,0.6,34.4,0.8c3.5,0.1,5.5-3.9,3.9-6.8c-4.1-7.4-7.9-15-12.3-22.1
			c-0.1-0.2-0.5-1.2-0.7-1.3c-0.3-0.1,0.2,2.7,0.4,1.4c0.3-1.8-0.4-4.2-0.6-6c-0.4-4.1-0.8-8.3-1.1-12.4c-0.2-2.1-1.3-3.6-3.3-4.3
			c-6.3-2.2-12.6-4.4-18.9-6.7c-1.9-0.7-4,0.5-5.1,2.1c-10.5,15.7-8.9,37-0.6,53.1c2.7,5.2,10.4,0.6,7.8-4.5
			c-6.9-13.4-8.1-31,0.6-44c-1.7,0.7-3.4,1.4-5.1,2.1c6.3,2.2,12.6,4.4,18.9,6.7c-1.1-1.4-2.2-2.9-3.3-4.3c0.4,4.3,0.8,8.6,1.2,12.9
			c0.3,3.2,0.2,6.5,1.7,9.4c4,7.7,8.4,15.2,12.6,22.8c1.3-2.3,2.6-4.5,3.9-6.8c-11.5-0.3-22.9-0.6-34.4-0.8
			C27,169.5,27,178.5,32.8,178.7z"/>
	</g>
</g>
<g>
	<g>
		<path class="st0" d="M130.1,78.8c-0.4,0,0-0.1-0.4,0c0,7.3-0.4,15.7-0.2,22.7c0.6,0.2,0-0.6,0.6-0.6c4.8,0,8.6-4.9,8.6-11
			C138.7,83.7,134.8,78.8,130.1,78.8z"/>
		<g>
			<path class="st0" d="M131.1,74.9c-0.5-0.1-1-0.2-1.5-0.2c-2.2,0.2-4,1.7-4,4c0,7.6-0.4,15.1-0.2,22.7c0.1,2.5,2.5,4.7,5,3.8
				c0.1,0,0.2-0.1,0.3-0.1c1.7-0.6,2.8-2,2.9-3.8c0-0.1,0-0.2,0-0.3c-0.7,1.1-1.3,2.3-2,3.4c-1.2,0.8,0.2,0.2,1,0
				c0.8-0.2,1.7-0.5,2.5-0.9c1.5-0.8,2.7-1.9,3.8-3.1c2.5-2.9,3.7-6.8,3.7-10.6c0-7.6-4.8-14.4-12.6-15c-5.1-0.4-5.1,7.6,0,8
				c5.4,0.4,5.7,9.2,2.9,12.5c-2.4,2.9-7,1.1-7.2,6.1c1-1.3,2-2.6,2.9-3.8c-0.1,0-0.2,0.1-0.3,0.1c1.7,1.3,3.4,2.6,5,3.8
				c-0.2-7.6,0.1-15.1,0.2-22.7c-1.3,1.3-2.7,2.7-4,4c-0.2,0-0.4-0.1-0.7-0.1C134,83.5,136.2,75.8,131.1,74.9z"/>
		</g>
	</g>
	<g>
		<path class="st0" d="M130.1,78.4c-0.4,0,0,0.3-0.4,0.4c0,0.3-0.8,0.3-0.8,0.5c0.4-0.1,0.8-0.1,1.2-0.1c4.6,0,8.3,4.8,8.3,10.6
			s-3.7,10.6-8.3,10.6c-0.6,0,0.2-0.3-0.4-0.4c0,0.3,1.3,1.2,0.4,1.2c0.6,0.2-0.6,0,0,0c4.9,0,9-5.1,9-11.4S135,78.4,130.1,78.4z"/>
		<g>
			<path class="st0" d="M127.2,75.5c-0.7,0.6,0.9-0.6-0.4,0.3c-2.9,2-2.3,7.9,2,7.4c8.8-0.9,4.7,14,2,13.2c0.8,2,1.6,3.9,2.4,5.9
				c0-0.1,0.1-0.1,0.1-0.2c0.7-1.5,0.8-3.7-0.6-4.8c-0.1-0.1-0.1-0.1-0.2-0.2c-3.2-2.6-9.1,0.8-6.3,4.8c0.2,0.3,0.5,0.6,0.7,1
				c0.2-1.6,0.4-3.2,0.6-4.8c-0.1,0.1-0.2,0.2-0.3,0.3c-2,1.6-1.2,5.1,0.8,6.3c0,0,0.1,0,0.1,0.1c0.7-2.5,1.3-5,2-7.4
				c-0.1,0-0.2,0-0.3,0c0.4,2.6,0.7,5.2,1.1,7.8c7.4-1.8,12-7.4,12-15.3c0-7.7-5-14.8-12.9-15.4c-5.1-0.4-5.1,7.6,0,8
				c4,0.3,5.4,5.7,4.9,9c-0.6,3.8-2.6,5.2-6.1,6.1c-4.7,1.1-3.1,7.3,1.1,7.8c0.1,0,0.2,0,0.3,0c4.1,0.5,5.2-5.6,2-7.4
				c0,0-0.1,0-0.1-0.1c0.3,2.1,0.5,4.2,0.8,6.3c0.1-0.1,0.2-0.2,0.3-0.3c1.2-1,1.6-3.5,0.6-4.8c-0.2-0.3-0.5-0.6-0.7-1
				c-2.1,1.6-4.2,3.2-6.3,4.8c0.1,0.1,0.1,0.1,0.2,0.2c-0.2-1.6-0.4-3.2-0.6-4.8c0,0.1-0.1,0.1-0.1,0.2c-1.1,2.3-0.2,5.1,2.4,5.9
				c7.7,2.3,13.3-7.5,13.6-13.7c0.3-7.6-5.1-16-13.4-15.2c0.7,2.5,1.3,5,2,7.4c0.7-0.5,1.3-1,2-1.5C136.9,78,131.2,72.4,127.2,75.5z
				"/>
		</g>
	</g>
</g>
<g>
	<line class="st0" x1="158.5" y1="113.6" x2="174" y2="130.5"/>
	<g>
		<path class="st0" d="M155.3,116.8c5.2,5.6,10.3,11.2,15.5,16.8c3.9,4.3,10.3-2.1,6.4-6.4c-5.2-5.6-10.3-11.2-15.5-16.8
			C157.8,106.2,151.4,112.5,155.3,116.8L155.3,116.8z"/>
	</g>
</g>
<g>
	<line class="st0" x1="174.7" y1="47.3" x2="157.8" y2="62.8"/>
	<g>
		<path class="st0" d="M171.5,44.1c-5.6,5.2-11.2,10.3-16.8,15.5c-4.3,3.9,2.1,10.3,6.4,6.4c5.6-5.2,11.2-10.3,16.8-15.5
			C182.1,46.5,175.8,40.2,171.5,44.1L171.5,44.1z"/>
	</g>
</g>
<g>
	<g>
		<path class="st0" d="M156.3,94.1c8.8,0,17.6,0,26.4,0c5.8,0,5.8-9,0-9c-8.8,0-17.6,0-26.4,0C150.5,85.1,150.5,94.1,156.3,94.1
			L156.3,94.1z"/>
	</g>
</g>
</svg>
