<?xml version="1.0" encoding="utf-8"?>
<!-- Generator: Adobe Illustrator 19.2.0, SVG Export Plug-In . SVG Version: 6.00 Build 0)  -->
<svg version="1.1" id="Layer_1" xmlns="http://www.w3.org/2000/svg" xmlns:xlink="http://www.w3.org/1999/xlink" x="0px" y="0px"
	 viewBox="0 0 25 25" style="enable-background:new 0 0 25 25;" xml:space="preserve">
<style type="text/css">
	.st0{fill:none;stroke:#231F20;stroke-linecap:round;stroke-linejoin:round;stroke-miterlimit:10;}
	.st1{fill:#231F20;}
	.st2{fill:#FF5072;}
	.st3{fill:#231F20;stroke:#231F20;stroke-linecap:round;stroke-linejoin:round;stroke-miterlimit:10;}
	.st4{fill:none;stroke:#231F20;stroke-linecap:round;stroke-linejoin:round;}
	.st5{fill:#7D3C8C;stroke:#7D3C8C;stroke-miterlimit:10;}
	.st6{fill:none;stroke:#FFFFFF;stroke-linecap:round;stroke-linejoin:round;stroke-miterlimit:10;}
	.st7{fill:#1ED761;stroke:#1ED761;stroke-width:8.835321e-02;stroke-miterlimit:10;}
	.st8{fill:#FFFFFF;stroke:#231F20;stroke-linecap:round;stroke-linejoin:round;stroke-miterlimit:10;}
	.st9{fill:#231F20;stroke:#231F20;stroke-linecap:round;stroke-linejoin:round;}
	.st10{fill:none;stroke:#231F20;stroke-width:0.8713;stroke-linecap:round;stroke-linejoin:round;stroke-miterlimit:10;}
	.st11{fill:none;stroke:#231F20;stroke-width:0.9352;stroke-linecap:round;stroke-linejoin:round;stroke-miterlimit:10;}
	.st12{fill:#231F20;stroke:#231F20;stroke-width:0.9352;stroke-linecap:round;stroke-linejoin:round;stroke-miterlimit:10;}
	.st13{fill:#231F20;stroke:#231F20;stroke-width:0.8065;stroke-linecap:round;stroke-linejoin:round;stroke-miterlimit:10;}
	.st14{fill:#7D3C8C;}
	.st15{fill:none;}
	.st16{fill:none;stroke:#231F20;stroke-width:0.8581;stroke-linecap:round;stroke-linejoin:round;stroke-miterlimit:10;}
	.st17{fill:none;stroke:#231F20;stroke-width:0.9197;stroke-linecap:round;stroke-linejoin:round;stroke-miterlimit:10;}
	.st18{fill:#231F20;stroke:#231F20;stroke-width:0.9197;stroke-linecap:round;stroke-linejoin:round;stroke-miterlimit:10;}
</style>
<g>
	<polygon class="st17" points="11.5,13.7 8.7,8.6 9.9,7.8 13.2,13.7 	"/>
	<ellipse transform="matrix(0.8748 -0.4845 0.4845 0.8748 -1.9957 4.6135)" class="st17" cx="7.9" cy="6.2" rx="2.4" ry="2.4"/>
	<path class="st18" d="M15.2,15.2H9.8c-0.4,0-0.7-0.3-0.7-0.7v0c0-0.4,0.3-0.7,0.7-0.7h5.3c0.4,0,0.7,0.3,0.7,0.7v0
		C15.9,14.9,15.6,15.2,15.2,15.2z"/>
	<path class="st17" d="M19.2,21.2H5.8c-0.5,0-0.8-0.4-0.8-0.8v-4.4c0-0.5,0.4-0.8,0.8-0.8h13.4c0.5,0,0.8,0.4,0.8,0.8v4.4
		C20,20.9,19.6,21.2,19.2,21.2z"/>
	<circle class="st18" cx="7.9" cy="18.2" r="0.9"/>
	<circle class="st18" cx="11.1" cy="18.2" r="0.9"/>
</g>
</svg>
