<svg xmlns="http://www.w3.org/2000/svg" xmlns:xlink="http://www.w3.org/1999/xlink" version="1.1" x="0px" y="0px" viewBox="0 0 100 100" enable-background="new 0 0 100 100" xml:space="preserve"><path d="M34.334,77.97c-3.342,0-6.061,2.719-6.061,6.061s2.719,6.061,6.061,6.061s6.061-2.719,6.061-6.061  S37.676,77.97,34.334,77.97z M34.334,88.071c-2.229,0-4.041-1.813-4.041-4.041s1.813-4.041,4.041-4.041  c2.228,0,4.04,1.813,4.04,4.041S36.562,88.071,34.334,88.071z M80.303,0H19.697c-2.79,0-5.051,2.261-5.051,5.051v89.898  c0,2.79,2.261,5.051,5.051,5.051h60.605c2.789,0,5.051-2.261,5.051-5.051V5.051C85.354,2.261,83.092,0,80.303,0z M81.986,94.949  c0,0.929-0.756,1.684-1.684,1.684H19.697c-0.929,0-1.684-0.755-1.684-1.684V5.051c0-0.929,0.755-1.684,1.684-1.684h60.605  c0.928,0,1.684,0.755,1.684,1.684V94.949z M81.746,41.775c0-0.797-0.646-1.443-1.443-1.443h-28.86V7.143  C51.442,6.346,50.797,5.7,50,5.7s-1.443,0.646-1.443,1.443v33.189H19.697c-0.798,0-1.443,0.646-1.443,1.443s0.646,1.443,1.443,1.443  h28.859V68.23H19.697c-0.798,0-1.443,0.646-1.443,1.443s0.646,1.443,1.443,1.443h28.859v21.741c0,0.797,0.646,1.443,1.443,1.443  s1.442-0.646,1.442-1.443V71.116h28.86c0.797,0,1.443-0.646,1.443-1.443S81.1,68.23,80.303,68.23h-28.86V43.218h28.86  C81.1,43.218,81.746,42.572,81.746,41.775z M26.896,54.209c0,0.558,0.452,1.01,1.011,1.01h7.662l-2.484,2.484  c-0.395,0.395-0.395,1.034,0,1.429c0.197,0.197,0.455,0.296,0.714,0.296s0.518-0.099,0.714-0.296l4.208-4.208  c0.093-0.092,0.167-0.203,0.219-0.326c0.046-0.112,0.067-0.233,0.071-0.356c0.001-0.011,0.007-0.021,0.007-0.032c0,0,0,0,0,0  c0-0.135-0.027-0.267-0.079-0.389c-0.046-0.111-0.116-0.209-0.197-0.296c-0.008-0.008-0.012-0.021-0.02-0.029l-4.209-4.208  c-0.394-0.394-1.033-0.394-1.428,0c-0.395,0.395-0.395,1.034,0,1.429l2.484,2.484h-7.662C27.348,53.199,26.896,53.651,26.896,54.209  z M66.15,61.232c0.558,0,1.01-0.452,1.01-1.01v-4.041h4.04c0.558,0,1.01-0.452,1.01-1.01c0-0.558-0.452-1.01-1.01-1.01h-4.04v-4.041  c0-0.558-0.452-1.01-1.01-1.01c-0.559,0-1.01,0.452-1.01,1.01v4.041h-4.042c-0.558,0-1.01,0.453-1.01,1.01s0.452,1.01,1.01,1.01  h4.042v4.041C65.141,60.78,65.592,61.232,66.15,61.232z M22.855,17.48h20.202c0.699,0,1.267-0.567,1.267-1.266  s-0.567-1.267-1.267-1.267H22.855c-0.699,0-1.266,0.567-1.266,1.267S22.156,17.48,22.855,17.48z M22.855,24.214h20.202  c0.699,0,1.267-0.567,1.267-1.266s-0.567-1.266-1.267-1.266H22.855c-0.699,0-1.266,0.567-1.266,1.266S22.156,24.214,22.855,24.214z   M22.855,26.988c-0.558,0-1.01,0.452-1.01,1.01c0,0.558,0.452,1.01,1.01,1.01h12.855c0.558,0,1.01-0.452,1.01-1.01  c0-0.558-0.452-1.01-1.01-1.01H22.855z M71.706,83.156l-10.102-5.832c-0.313-0.181-0.697-0.181-1.01,0s-0.505,0.514-0.505,0.875  v11.663c0,0.361,0.192,0.694,0.505,0.875c0.156,0.09,0.33,0.135,0.505,0.135c0.174,0,0.349-0.045,0.505-0.135l10.102-5.832  c0.312-0.18,0.505-0.514,0.505-0.875S72.018,83.336,71.706,83.156z M62.109,88.113v-8.165l7.071,4.083L62.109,88.113z   M66.992,19.005c0.837,0,1.607-0.464,2.169-1.306c0.178-0.268,0.105-0.63-0.162-0.809c-0.269-0.179-0.63-0.106-0.809,0.162  c-0.196,0.293-0.612,0.786-1.198,0.786c-0.587,0-1.003-0.493-1.198-0.786c-0.179-0.269-0.541-0.341-0.81-0.162  c-0.268,0.179-0.34,0.541-0.161,0.809C65.385,18.542,66.154,19.005,66.992,19.005z M59.416,30.135h15.158  c0.651,0,1.179-0.527,1.179-1.179c0-0.046-0.003-0.091-0.008-0.136c-0.058-3.71-2.438-6.859-5.745-8.075  c0.46-0.265,0.892-0.586,1.277-0.972c1.145-1.145,1.775-2.667,1.775-4.285s-0.631-3.141-1.775-4.286  c-1.146-1.145-2.667-1.775-4.285-1.775c-1.619,0-3.141,0.63-4.286,1.775c-1.145,1.145-1.774,2.667-1.774,4.285  c0,1.618,0.63,3.141,1.774,4.285c0.386,0.386,0.817,0.708,1.278,0.972c-3.348,1.231-5.746,4.441-5.746,8.21  C58.238,29.607,58.766,30.135,59.416,30.135z M66.992,11.448c1.05,0,2.037,0.405,2.792,1.131c-0.198,0.362-0.678,0.553-1.454,0.553  c-0.993,0-2.286-0.35-3.645-0.953C65.359,11.708,66.154,11.448,66.992,11.448z M62.951,15.488c0-0.835,0.258-1.628,0.725-2.299  c1.707,0.82,3.344,1.289,4.654,1.289c0.994,0,1.771-0.276,2.275-0.764c0.269,0.547,0.427,1.146,0.427,1.774  c0,1.079-0.421,2.094-1.184,2.857s-1.778,1.183-2.856,1.183c-1.079,0-2.094-0.42-2.857-1.183  C63.372,17.582,62.951,16.567,62.951,15.488z M66.992,22.559c3.125,0,5.733,2.252,6.288,5.219H60.703  C61.258,24.811,63.867,22.559,66.992,22.559z"></path></svg>