<?xml version="1.0" encoding="utf-8"?>
<!-- Generator: Adobe Illustrator 19.2.0, SVG Export Plug-In . SVG Version: 6.00 Build 0)  -->
<svg version="1.1" id="Laag_1" xmlns="http://www.w3.org/2000/svg" xmlns:xlink="http://www.w3.org/1999/xlink" x="0px" y="0px"
	 viewBox="0 0 198.3 200" style="enable-background:new 0 0 198.3 200;" xml:space="preserve">
<style type="text/css">
	.st0{fill:#231F20;}
	.st1{fill:#7D3C8C;}
	.st2{fill:#333333;stroke:#231F20;stroke-width:0.8183;stroke-miterlimit:10;}
	.st3{fill:none;}
	.st4{fill:#FFFFFF;}
	.st5{fill:#FF5072;}
	.st6{fill:#231F20;stroke:#231F20;stroke-width:0.8146;}
	.st7{fill:#84CD1A;}
	.st8{fill:#231F20;stroke:#231F20;stroke-miterlimit:10;}
</style>
<g>
	<g>
		<rect x="18.9" y="38.7" class="st0" width="57.6" height="38.7"/>
		<g>
			<path class="st0" d="M76.6,72.9c-19.2,0-38.4,0-57.6,0c1.5,1.5,3,3,4.5,4.5c0-12.9,0-25.8,0-38.7c-1.5,1.5-3,3-4.5,4.5
				c19.2,0,38.4,0,57.6,0c-1.5-1.5-3-3-4.5-4.5c0,12.9,0,25.8,0,38.7c0,5.8,9,5.8,9,0c0-12.9,0-25.8,0-38.7c0-2.4-2.1-4.5-4.5-4.5
				c-19.2,0-38.4,0-57.6,0c-2.4,0-4.5,2.1-4.5,4.5c0,12.9,0,25.8,0,38.7c0,2.4,2.1,4.5,4.5,4.5c19.2,0,38.4,0,57.6,0
				C82.3,81.9,82.4,72.9,76.6,72.9z"/>
		</g>
	</g>
	<g>
		<rect x="121.7" y="38.7" class="st0" width="57.6" height="38.7"/>
		<g>
			<path class="st0" d="M179.4,72.9c-19.2,0-38.4,0-57.6,0c1.5,1.5,3,3,4.5,4.5c0-12.9,0-25.8,0-38.7c-1.5,1.5-3,3-4.5,4.5
				c19.2,0,38.4,0,57.6,0c-1.5-1.5-3-3-4.5-4.5c0,12.9,0,25.8,0,38.7c0,5.8,9,5.8,9,0c0-12.9,0-25.8,0-38.7c0-2.4-2.1-4.5-4.5-4.5
				c-19.2,0-38.4,0-57.6,0c-2.4,0-4.5,2.1-4.5,4.5c0,12.9,0,25.8,0,38.7c0,2.4,2.1,4.5,4.5,4.5c19.2,0,38.4,0,57.6,0
				C185.2,81.9,185.2,72.9,179.4,72.9z"/>
		</g>
	</g>
	<g>
		<rect x="18.9" y="122.6" class="st0" width="57.6" height="38.7"/>
		<g>
			<path class="st0" d="M76.6,156.8c-19.2,0-38.4,0-57.6,0c1.5,1.5,3,3,4.5,4.5c0-12.9,0-25.8,0-38.7c-1.5,1.5-3,3-4.5,4.5
				c19.2,0,38.4,0,57.6,0c-1.5-1.5-3-3-4.5-4.5c0,12.9,0,25.8,0,38.7c0,5.8,9,5.8,9,0c0-12.9,0-25.8,0-38.7c0-2.4-2.1-4.5-4.5-4.5
				c-19.2,0-38.4,0-57.6,0c-2.4,0-4.5,2.1-4.5,4.5c0,12.9,0,25.8,0,38.7c0,2.4,2.1,4.5,4.5,4.5c19.2,0,38.4,0,57.6,0
				C82.3,165.8,82.4,156.8,76.6,156.8z"/>
		</g>
	</g>
	<g>
		<rect x="121.7" y="122.6" class="st0" width="57.6" height="38.7"/>
		<g>
			<path class="st0" d="M179.4,156.8c-19.2,0-38.4,0-57.6,0c1.5,1.5,3,3,4.5,4.5c0-12.9,0-25.8,0-38.7c-1.5,1.5-3,3-4.5,4.5
				c19.2,0,38.4,0,57.6,0c-1.5-1.5-3-3-4.5-4.5c0,12.9,0,25.8,0,38.7c0,5.8,9,5.8,9,0c0-12.9,0-25.8,0-38.7c0-2.4-2.1-4.5-4.5-4.5
				c-19.2,0-38.4,0-57.6,0c-2.4,0-4.5,2.1-4.5,4.5c0,12.9,0,25.8,0,38.7c0,2.4,2.1,4.5,4.5,4.5c19.2,0,38.4,0,57.6,0
				C185.2,165.8,185.2,156.8,179.4,156.8z"/>
		</g>
	</g>
</g>
</svg>
