<?xml version="1.0" encoding="utf-8"?>
<!-- Generator: Adobe Illustrator 19.2.0, SVG Export Plug-In . SVG Version: 6.00 Build 0)  -->
<svg version="1.1" id="Laag_1" xmlns="http://www.w3.org/2000/svg" xmlns:xlink="http://www.w3.org/1999/xlink" x="0px" y="0px"
	 viewBox="0 0 192.8 192.8" style="enable-background:new 0 0 192.8 192.8;" xml:space="preserve">
<style type="text/css">
	.st0{fill:#7D3C8C;}
	.st1{fill:#231F20;}
	.st2{fill:#FFFFFF;}
</style>
<g>
	<path class="st0" d="M168.3,142c-18.1,30-54.1,46.2-88.5,39.4c-39.5-7.8-68-42.9-68.3-83c0.3-35,22.3-67.5,55.5-79.4
		c33.7-12.1,71.6-1.6,94.4,25.9C183.8,72,186.4,111.9,168.3,142z"/>
	<g>
		<path class="st1" d="M164.4,139.7c-17.6,28.6-52.5,44.3-85.5,36.9c-30.8-6.9-54.9-31.9-61.3-62.8c-6.5-31.5,8.1-65.3,35-82.7
			c28.3-18.3,66.4-16.2,92.8,4.5C176.9,60.3,184.6,105.5,164.4,139.7c-2.9,5,4.8,9.5,7.8,4.5c19.7-33.4,15.8-77.3-10.6-105.9
			C136,10.7,94.4,2,59.9,17C27.1,31.3,5,66.8,7,102.6c2,35.2,25.1,66.7,58.1,79.2c39.5,15,85.1-1.9,107.1-37.6
			C175.2,139.3,167.4,134.8,164.4,139.7z"/>
	</g>
</g>
<g>
	<g>
		<path class="st2" d="M50.7,103.2c5.5,6.1,11,12.2,16.6,18.2c2.5,2.7,4.8,5.8,8.1,7.6c6,3.3,13.7,1.9,18.5-2.9
			c11.5-11.5,21.8-24.6,32.6-36.8c4.6-5.1,9.1-10.3,13.7-15.4c3.8-4.3-2.5-10.7-6.4-6.4c-9.7,11-19.5,22-29.2,32.9
			c-4.9,5.6-9.9,11.1-14.8,16.7c-2,2.2-3.9,4.7-7.2,4.6c-3.6-0.1-5.7-3.2-7.9-5.6c-5.9-6.5-11.7-12.9-17.6-19.4
			C53.1,92.5,46.8,98.9,50.7,103.2L50.7,103.2z"/>
	</g>
</g>
</svg>
