<?xml version="1.0" encoding="utf-8"?>
<!-- Generator: Adobe Illustrator 19.2.0, SVG Export Plug-In . SVG Version: 6.00 Build 0)  -->
<svg version="1.1" id="Laag_1" xmlns="http://www.w3.org/2000/svg" xmlns:xlink="http://www.w3.org/1999/xlink" x="0px" y="0px"
	 viewBox="0 0 192.8 192.8" style="enable-background:new 0 0 192.8 192.8;" xml:space="preserve">
<style type="text/css">
	.st0{fill:#231F20;}
	.st1{fill:#7D3C8C;}
	.st2{fill:#333333;stroke:#231F20;stroke-width:0.8183;stroke-miterlimit:10;}
	.st3{fill:none;}
	.st4{fill:#FFFFFF;}
	.st5{fill:#FF5072;}
	.st6{fill:#231F20;stroke:#231F20;stroke-width:0.8146;}
	.st7{fill:#84CD1A;}
	.st8{fill:#231F20;stroke:#231F20;stroke-miterlimit:10;}
</style>
<g>
	<g>
		<path class="st0" d="M124.4,69.5c-18.1,18.1-36.3,36.3-54.4,54.4c-4.1,4.1,2.3,10.5,6.4,6.4c18.1-18.1,36.3-36.3,54.4-54.4
			C134.9,71.7,128.5,65.4,124.4,69.5L124.4,69.5z"/>
	</g>
</g>
<g>
	<g>
		<path class="st0" d="M130.8,123.9c-18.1-18.1-36.3-36.3-54.4-54.4c-4.1-4.1-10.5,2.3-6.4,6.4c18.1,18.1,36.3,36.3,54.4,54.4
			C128.5,134.3,134.9,128,130.8,123.9L130.8,123.9z"/>
	</g>
</g>
<g>
	<g>
		<path class="st0" d="M169,141.1c-17.6,28.6-52.5,44.3-85.5,36.9C52.7,171,28.5,146,22.1,115.2c-6.5-31.5,8.1-65.3,35-82.7
			C85.4,14.2,123.5,16.3,150,37C181.5,61.6,189.2,106.9,169,141.1c-2.9,5,4.8,9.5,7.8,4.5c19.7-33.4,15.8-77.3-10.6-105.9
			C140.6,12.1,99,3.3,64.5,18.4C31.7,32.7,9.6,68.2,11.7,104c2,35.2,25.1,66.7,58.1,79.2c39.5,15,85.1-1.9,107.1-37.6
			C179.8,140.7,172,136.2,169,141.1z"/>
	</g>
</g>
</svg>
