<?xml version="1.0" encoding="utf-8"?>
<!-- Generator: Adobe Illustrator 19.2.0, SVG Export Plug-In . SVG Version: 6.00 Build 0)  -->
<svg version="1.1" id="Laag_1" xmlns="http://www.w3.org/2000/svg" xmlns:xlink="http://www.w3.org/1999/xlink" x="0px" y="0px"
	 viewBox="0 0 192.8 192.8" style="enable-background:new 0 0 192.8 192.8;" xml:space="preserve">
<style type="text/css">
	.st0{fill:#231F20;}
	.st1{fill:#7D3C8C;}
	.st2{fill:#333333;stroke:#231F20;stroke-width:0.8183;stroke-miterlimit:10;}
	.st3{fill:none;}
	.st4{fill:#FFFFFF;}
	.st5{fill:#FF5072;}
	.st6{fill:#231F20;stroke:#231F20;stroke-width:0.8146;}
	.st7{fill:#84CD1A;}
	.st8{fill:#231F20;stroke:#231F20;stroke-miterlimit:10;}
</style>
<g>
	<g>
		<path class="st0" d="M68.3,55.2c18.7,0,37.4,0,56.1,0c5.8,0,5.8-9,0-9c-18.7,0-37.4,0-56.1,0C62.5,46.2,62.5,55.2,68.3,55.2
			L68.3,55.2z"/>
	</g>
</g>
<g>
	<g>
		<path class="st0" d="M76.7,53.4c0,16.9,0,33.8,0,50.7c0.4-1.1,0.9-2.1,1.3-3.2c-16.2,18.2-32.4,36.4-48.5,54.7
			c-2.5,2.8-0.9,7.7,3.2,7.7c37.2,0,74.4,0,111.6,0c5.3,0,10.5,0,15.8,0c4,0,5.7-4.8,3.2-7.7c-16.2-17.9-32.3-35.8-48.5-53.7
			c0.4,1.1,0.9,2.1,1.3,3.2c0-17.2-0.1-34.4-0.1-51.7c0-2.4-2.1-4.5-4.5-4.5c-10.1,0-20.1,0-30.2,0c-5.8,0-5.8,9,0,9
			c10.1,0,20.1,0,30.2,0c-1.5-1.5-3-3-4.5-4.5c0,7.9,0,15.9,0.1,23.8c0,9-0.8,18.5,0.1,27.4c0.5,5,7.2,10,10.3,13.5
			c7.8,8.6,15.6,17.3,23.5,25.9c5.4,5.9,10.7,11.8,16.1,17.8c1.1-2.6,2.1-5.1,3.2-7.7c-37.2,0-74.4,0-111.6,0c-5.3,0-10.5,0-15.8,0
			c1.1,2.6,2.1,5.1,3.2,7.7C48,148.3,60.1,134.6,72.2,121c4-4.5,9.4-9,12.5-14.2c1.5-2.4,1-5.7,1-8.5c0-5.2,0-10.4,0-15.6
			c0-9.8,0-19.5,0-29.3C85.7,47.6,76.7,47.6,76.7,53.4z"/>
	</g>
</g>
<polygon class="st8" points="62.5,147.1 76.6,131.8 115.9,131.8 129.8,147.1 "/>
</svg>
