<?xml version="1.0" encoding="utf-8"?>
<!-- Generator: Adobe Illustrator 19.2.0, SVG Export Plug-In . SVG Version: 6.00 Build 0)  -->
<svg version="1.1" id="Laag_1" xmlns="http://www.w3.org/2000/svg" xmlns:xlink="http://www.w3.org/1999/xlink" x="0px" y="0px"
	 viewBox="0 0 252 176.7" style="enable-background:new 0 0 252 176.7;" xml:space="preserve">
<style type="text/css">
	.st0{fill:#231F20;}
	.st1{fill:#7D3C8C;}
	.st2{fill:#333333;stroke:#231F20;stroke-width:0.8183;stroke-miterlimit:10;}
	.st3{fill:none;}
	.st4{fill:#FFFFFF;}
	.st5{fill:#FF5072;}
	.st6{fill:#231F20;stroke:#231F20;stroke-width:0.8146;}
	.st7{fill:#84CD1A;}
	.st8{fill:#231F20;stroke:#231F20;stroke-miterlimit:10;}
</style>
<g>
	<g>
		<path class="st0" d="M13.6,91.7c35.1,10.2,70.1,20.4,105.2,30.6c5.8,1.7,11.6,3.6,17.5,5.1c3.8,1,7-1,10.6-2.5
			c21.8-8.7,43.6-17.4,65.2-26.4c5.2-2.1,10.3-4.3,15.5-6.5c4-1.7,8-3.2,11-6.6c10.5-11.7,7.7-32.7,5.9-46.9
			c-0.3-2.1-1.2-3.6-3.3-4.3c-16.7-5.9-34.9-8.6-52.2-12.2c-21.4-4.4-42.9-8.5-64.4-12.6c-4.7-0.9-9.5-1.8-14.2-2.7
			c-3.5-0.7-6.2,2-5.5,5.5c1.4,7.9,1.7,19.6-2.9,27.1c-3.4,5.6-11.1,8.7-17,11.8c-18.3,9.5-37.4,17.7-56.4,25.6
			c-5,2.1-9.9,4.1-14.9,6.1c-5.3,2.1-3,10.8,2.4,8.7c14.6-5.9,29.1-12,43.4-18.4c10.4-4.6,20.8-9.4,30.8-14.7
			c6.6-3.5,14.5-7.2,18.8-13.6c6.6-9.8,6.5-23.8,4.5-35c-1.8,1.8-3.7,3.7-5.5,5.5c35.7,6.6,71.5,13.3,107,21.3
			c7.9,1.8,16.1,3.4,23.8,6.1c-1.1-1.4-2.2-2.9-3.3-4.3c0.9,7.2,1.5,14.4,1.3,21.7c-0.2,6.1-0.5,14.1-4.7,19
			c-2.1,2.5-5.7,3.6-8.6,4.8c-4.2,1.8-8.4,3.6-12.6,5.3c-21.2,8.8-42.5,17.3-63.8,25.8c-2.7,1.1-5.7,2-8.4,3.3
			c-2.7,1.4,1.6,1,0.3,0.3c-4.5-2.3-10.7-3.1-15.5-4.5c-20.8-6-41.5-12.1-62.3-18.1C46.2,91.8,31.1,87.4,16,83
			C10.4,81.4,8,90.1,13.6,91.7z"/>
	</g>
</g>
<g>
	<g>
		<path class="st0" d="M9.5,114.3c34.8,10.5,69.6,21,104.5,31.5c6.6,2,13.3,4,19.9,6c3.3,1,5.5,0.8,8.6-0.6
			c17.4-7.6,34.7-15.2,52.1-22.8c16.3-7.1,32.6-14.3,48.9-21.4c5.3-2.3,0.7-10.1-4.5-7.8c-30.1,13.2-60.3,26.4-90.4,39.5
			c-4.3,1.9-8.6,3.7-12.9,5.6c1.2-0.2,2.3-0.3,3.5-0.5c-37.2-11.2-74.3-22.4-111.5-33.7c-5.3-1.6-10.5-3.2-15.8-4.8
			C6.3,104,4,112.6,9.5,114.3L9.5,114.3z"/>
	</g>
</g>
<g>
	<g>
		<path class="st0" d="M9.5,136.9c34.8,10.5,69.6,21,104.5,31.5c6.6,2,13.3,4,19.9,6c3.3,1,5.5,0.8,8.6-0.6
			c17.4-7.6,34.7-15.2,52.1-22.8c16.3-7.1,32.6-14.3,48.9-21.4c5.3-2.3,0.7-10.1-4.5-7.8c-30.1,13.2-60.3,26.4-90.4,39.5
			c-4.3,1.9-8.6,3.7-12.9,5.6c1.2-0.2,2.3-0.3,3.5-0.5C102,155.4,64.8,144.2,27.7,133c-5.3-1.6-10.5-3.2-15.8-4.8
			C6.3,126.5,4,135.2,9.5,136.9L9.5,136.9z"/>
	</g>
</g>
</svg>
