<?xml version="1.0" encoding="utf-8"?>
<!-- Generator: Adobe Illustrator 19.2.0, SVG Export Plug-In . SVG Version: 6.00 Build 0)  -->
<svg version="1.1" id="Laag_1" xmlns="http://www.w3.org/2000/svg" xmlns:xlink="http://www.w3.org/1999/xlink" x="0px" y="0px"
	 viewBox="0 0 198.3 200" style="enable-background:new 0 0 198.3 200;" xml:space="preserve">
<style type="text/css">
	.st0{fill:#231F20;}
	.st1{fill:#7D3C8C;}
	.st2{fill:#333333;stroke:#231F20;stroke-width:0.8183;stroke-miterlimit:10;}
	.st3{fill:none;}
	.st4{fill:#FFFFFF;}
	.st5{fill:#FF5072;}
	.st6{fill:#231F20;stroke:#231F20;stroke-width:0.8146;}
	.st7{fill:#84CD1A;}
	.st8{fill:#231F20;stroke:#231F20;stroke-miterlimit:10;}
</style>
<g>
	<g>
		<path class="st0" d="M178.3,105c-14.1,15.8-33.4,29.2-53.3,36.3c-16.8,6-34.4,6.9-51.6,1.9c-14.8-4.3-28.5-12.2-40.7-21.5
			c-6.6-5-13-10.6-18.6-16.8c0,2.1,0,4.2,0,6.4c14.7-14,34.2-24.9,53.5-30.7c32.2-9.8,64.3-1.3,91.9,16.5c6.5,4.2,13,8.8,18.7,14.2
			c4.2,4,10.6-2.4,6.4-6.4c-16-15.3-37.1-27-58.2-33.3c-34-10.1-68.5-1.4-97.7,17.3c-7.3,4.7-14.6,9.9-21,15.9
			c-1.8,1.7-1.6,4.6,0,6.4c15.3,17.2,36.3,31.3,57.9,38.9c34.5,12.1,69.4,1.2,97.7-20c7.5-5.7,15-11.8,21.3-18.9
			C188.5,107.1,182.1,100.7,178.3,105z"/>
	</g>
</g>
<g>
	<g>
		<path class="st0" d="M116.4,100c-0.3,11.5-9.3,21.1-21.1,21.1c-11.5,0-21-9.6-21.1-21.1c0-11.5,9.6-21.1,21.1-21.1
			C107.1,78.9,116.1,88.5,116.4,100c0.2,5.8,9.2,5.8,9,0c-0.3-12.5-7.7-23.7-19.5-28.2c-11.7-4.4-25.5-0.8-33.6,8.8
			c-17.7,21.2,1.3,53.7,28.4,48.9c14.4-2.5,24.3-15.2,24.7-29.6C125.6,94.2,116.6,94.2,116.4,100z"/>
	</g>
</g>
</svg>
