<?xml version="1.0" encoding="utf-8"?>
<!-- Generator: Adobe Illustrator 19.2.0, SVG Export Plug-In . SVG Version: 6.00 Build 0)  -->
<svg version="1.1" id="Laag_1" xmlns="http://www.w3.org/2000/svg" xmlns:xlink="http://www.w3.org/1999/xlink" x="0px" y="0px"
	 viewBox="0 0 174.6 173.5" style="enable-background:new 0 0 174.6 173.5;" xml:space="preserve">
<style type="text/css">
	.st0{fill:#231F20;}
	.st1{fill:#7D3C8C;}
	.st2{fill:#333333;stroke:#231F20;stroke-width:0.8183;stroke-miterlimit:10;}
	.st3{fill:none;}
	.st4{fill:#FFFFFF;}
	.st5{fill:#FF5072;}
	.st6{fill:#231F20;stroke:#231F20;stroke-width:0.8146;}
	.st7{fill:#84CD1A;}
	.st8{fill:#231F20;stroke:#231F20;stroke-miterlimit:10;}
</style>
<g>
	<g>
		<g>
			<path class="st0" d="M37.4,148.6c5.5-1,11-1.9,16.6-2.9c3.1-0.5,6.2-0.6,8.6-2.7c5.7-5,10.7-11.1,15.9-16.6
				c19.2-20,38.5-40,57.7-60.1c5.1-5.3,10.2-10.6,15.3-15.9c1.7-1.7,1.8-4.6,0-6.4c-6.7-6.4-13.4-12.8-20.1-19.3
				c-1.7-1.7-4.6-1.8-6.4,0c-29.5,30.8-59.6,61.1-88.6,92.3c-2.2,2.4-2.5,4.9-2.8,8.1c-0.6,6.3-1.2,12.7-1.9,19
				c-0.6,5.8,8.4,5.7,9,0c0.7-7.6,1.5-15.2,2.2-22.8c-0.4,1.1-0.9,2.1-1.3,3.2C67.8,97.4,94,70.1,120.3,42.8
				c3.7-3.9,7.4-7.8,11.2-11.6c-2.1,0-4.2,0-6.4,0c6.7,6.4,13.4,12.8,20.1,19.3c0-2.1,0-4.2,0-6.4c-29.2,30.4-58.4,60.8-87.6,91.2
				c-0.3,0.3-1.6,1.3-1.6,1.7c0-0.3,2.7-0.6,1.2-0.9c-1-0.2-2.9,0.5-3.9,0.7c-6.1,1.1-12.2,2.1-18.3,3.2
				C29.3,140.9,31.7,149.6,37.4,148.6z"/>
		</g>
	</g>
	<g>
		<g>
			<path class="st0" d="M65.4,129.5c-5.5-5.2-10.9-10.4-16.4-15.6c-4.2-4-10.6,2.4-6.4,6.4c5.5,5.2,10.9,10.4,16.4,15.6
				C63.2,139.9,69.6,133.5,65.4,129.5L65.4,129.5z"/>
		</g>
	</g>
	<g>
		<g>
			<path class="st0" d="M127.3,69.3c-6.7-6.4-13.4-12.8-20.1-19.3c-4.2-4-10.6,2.3-6.4,6.4c6.7,6.4,13.4,12.8,20.1,19.3
				C125.1,79.6,131.5,73.3,127.3,69.3L127.3,69.3z"/>
		</g>
	</g>
</g>
</svg>
