<?xml version="1.0" encoding="utf-8"?>
<!-- Generator: Adobe Illustrator 19.2.0, SVG Export Plug-In . SVG Version: 6.00 Build 0)  -->
<svg version="1.1" id="Layer_1" xmlns="http://www.w3.org/2000/svg" xmlns:xlink="http://www.w3.org/1999/xlink" x="0px" y="0px"
	 viewBox="0 0 25 25" style="enable-background:new 0 0 25 25;" xml:space="preserve">
<style type="text/css">
	.st0{fill:none;stroke:#231F20;stroke-linecap:round;stroke-linejoin:round;stroke-miterlimit:10;}
	.st1{fill:#231F20;}
	.st2{fill:#FF5072;}
	.st3{fill:#231F20;stroke:#231F20;stroke-linecap:round;stroke-linejoin:round;stroke-miterlimit:10;}
	.st4{fill:none;stroke:#231F20;stroke-linecap:round;stroke-linejoin:round;}
	.st5{fill:#7D3C8C;stroke:#7D3C8C;stroke-miterlimit:10;}
	.st6{fill:none;stroke:#FFFFFF;stroke-linecap:round;stroke-linejoin:round;stroke-miterlimit:10;}
	.st7{fill:#1ED761;stroke:#1ED761;stroke-width:8.835321e-02;stroke-miterlimit:10;}
	.st8{fill:#FFFFFF;stroke:#231F20;stroke-linecap:round;stroke-linejoin:round;stroke-miterlimit:10;}
	.st9{fill:#231F20;stroke:#231F20;stroke-linecap:round;stroke-linejoin:round;}
	.st10{fill:none;stroke:#231F20;stroke-width:0.8713;stroke-linecap:round;stroke-linejoin:round;stroke-miterlimit:10;}
	.st11{fill:none;stroke:#231F20;stroke-width:0.9352;stroke-linecap:round;stroke-linejoin:round;stroke-miterlimit:10;}
	.st12{fill:#231F20;stroke:#231F20;stroke-width:0.9352;stroke-linecap:round;stroke-linejoin:round;stroke-miterlimit:10;}
	.st13{fill:#231F20;stroke:#231F20;stroke-width:0.8065;stroke-linecap:round;stroke-linejoin:round;stroke-miterlimit:10;}
	.st14{fill:#7D3C8C;}
	.st15{fill:none;}
	.st16{fill:none;stroke:#231F20;stroke-width:0.8581;stroke-linecap:round;stroke-linejoin:round;stroke-miterlimit:10;}
	.st17{fill:none;stroke:#231F20;stroke-width:0.9197;stroke-linecap:round;stroke-linejoin:round;stroke-miterlimit:10;}
	.st18{fill:#231F20;stroke:#231F20;stroke-width:0.9197;stroke-linecap:round;stroke-linejoin:round;stroke-miterlimit:10;}
</style>
<g>
	<path class="st0" d="M10.1,11.2C9.2,12.6,7.6,13.3,6,13c-1.8-0.4-3.1-2-3.1-3.8c0-1.6,1-3.1,2.5-3.6C7,5,8.7,5.5,9.7,6.7
		C10.8,8,10.9,9.8,10.1,11.2z"/>
	<path class="st0" d="M18.7,17.8c-0.8,1.4-2.5,2.1-4.1,1.8c-1.8-0.4-3.1-2-3.1-3.8c0-1.6,1-3.1,2.5-3.6c1.5-0.6,3.3-0.1,4.3,1.2
		C19.4,14.6,19.5,16.4,18.7,17.8z"/>
	<line class="st0" x1="4.5" y1="14.4" x2="9" y2="14.4"/>
	<line class="st0" x1="6.7" y1="14.4" x2="6.7" y2="17.8"/>
	<line class="st0" x1="21.6" y1="12.5" x2="18.9" y2="13.9"/>
	<polyline class="st0" points="19.2,11.4 22.1,12.3 21.3,15.1 	"/>
</g>
</svg>
