<?xml version="1.0" encoding="utf-8"?>
<!-- Generator: Adobe Illustrator 19.2.0, SVG Export Plug-In . SVG Version: 6.00 Build 0)  -->
<svg version="1.1" id="Laag_1" xmlns="http://www.w3.org/2000/svg" xmlns:xlink="http://www.w3.org/1999/xlink" x="0px" y="0px"
	 viewBox="0 0 198.3 200" style="enable-background:new 0 0 198.3 200;" xml:space="preserve">
<style type="text/css">
	.st0{fill:#231F20;}
	.st1{fill:#7D3C8C;}
	.st2{fill:#333333;stroke:#231F20;stroke-width:0.8183;stroke-miterlimit:10;}
	.st3{fill:none;}
	.st4{fill:#FFFFFF;}
	.st5{fill:#FF5072;}
	.st6{fill:#231F20;stroke:#231F20;stroke-width:0.8146;}
	.st7{fill:#84CD1A;}
	.st8{fill:#231F20;stroke:#231F20;stroke-miterlimit:10;}
</style>
<g>
	<g>
		<path class="st0" d="M8,51.8c20.5,0,41,0,61.5,0c32.9,0,65.8,0,98.7,0c7.6,0,15.1,0,22.7,0c-1.5-1.5-3-3-4.5-4.5
			c0,30.4,0,60.8,0,91.2c0,4.4,0,8.8,0,13.3c1.5-1.5,3-3,4.5-4.5c-20.5,0-41,0-61.5,0c-32.9,0-65.8,0-98.7,0c-7.6,0-15.1,0-22.7,0
			c1.5,1.5,3,3,4.5,4.5c0-30.4,0-60.8,0-91.2c0-4.4,0-8.8,0-13.3c0-5.8-9-5.8-9,0c0,30.4,0,60.8,0,91.2c0,4.4,0,8.8,0,13.3
			c0,2.4,2.1,4.5,4.5,4.5c20.5,0,41,0,61.5,0c32.9,0,65.8,0,98.7,0c7.6,0,15.1,0,22.7,0c2.4,0,4.5-2.1,4.5-4.5c0-30.4,0-60.8,0-91.2
			c0-4.4,0-8.8,0-13.3c0-2.4-2.1-4.5-4.5-4.5c-20.5,0-41,0-61.5,0c-32.9,0-65.8,0-98.7,0c-7.6,0-15.1,0-22.7,0
			C2.2,42.8,2.2,51.8,8,51.8z"/>
	</g>
</g>
<g>
	<g>
		<path class="st0" d="M101.3,97.3c-22.6,0-45.1,0-67.7,0c1.5,1.5,3,3,4.5,4.5c0-10.1,0-20.3,0-30.4c-1.5,1.5-3,3-4.5,4.5
			c22.6,0,45.1,0,67.7,0c-1.5-1.5-3-3-4.5-4.5c0,10.1,0,20.3,0,30.4c0,5.8,9,5.8,9,0c0-10.1,0-20.3,0-30.4c0-2.4-2.1-4.5-4.5-4.5
			c-22.6,0-45.1,0-67.7,0c-2.4,0-4.5,2.1-4.5,4.5c0,10.1,0,20.3,0,30.4c0,2.4,2.1,4.5,4.5,4.5c22.6,0,45.1,0,67.7,0
			C107.1,106.3,107.1,97.3,101.3,97.3z"/>
	</g>
</g>
<g>
	<g>
		<path class="st0" d="M128.9,75.8c11.2,0,22.4,0,33.6,0c5.8,0,5.8-9,0-9c-11.2,0-22.4,0-33.6,0C123.1,66.8,123.1,75.8,128.9,75.8
			L128.9,75.8z"/>
	</g>
</g>
<g>
	<g>
		<path class="st0" d="M128.9,102.4c11.2,0,22.4,0,33.6,0c5.8,0,5.8-9,0-9c-11.2,0-22.4,0-33.6,0
			C123.1,93.4,123.1,102.4,128.9,102.4L128.9,102.4z"/>
	</g>
</g>
<g>
	<g>
		<path class="st0" d="M33.7,130c38.4,0,76.9,0,115.3,0c5.6,0,11.1,0,16.7,0c5.8,0,5.8-9,0-9c-38.4,0-76.9,0-115.3,0
			c-5.6,0-11.1,0-16.7,0C27.9,121,27.9,130,33.7,130L33.7,130z"/>
	</g>
</g>
</svg>
