<?xml version="1.0" encoding="utf-8"?>
<!-- Generator: Adobe Illustrator 19.2.0, SVG Export Plug-In . SVG Version: 6.00 Build 0)  -->
<svg version="1.1" id="Laag_1" xmlns="http://www.w3.org/2000/svg" xmlns:xlink="http://www.w3.org/1999/xlink" x="0px" y="0px"
	 viewBox="0 0 192.8 192.8" style="enable-background:new 0 0 192.8 192.8;" xml:space="preserve">
<style type="text/css">
	.st0{fill:#231F20;}
	.st1{fill:#7D3C8C;}
	.st2{fill:#333333;stroke:#231F20;stroke-width:0.8183;stroke-miterlimit:10;}
	.st3{fill:none;}
	.st4{fill:#FFFFFF;}
	.st5{fill:#FF5072;}
	.st6{fill:#231F20;stroke:#231F20;stroke-width:0.8146;}
	.st7{fill:#84CD1A;}
	.st8{fill:#231F20;stroke:#231F20;stroke-miterlimit:10;}
</style>
<g>
	<polygon class="st0" points="69.6,66.9 69.6,135.2 137.9,101.1 	"/>
	<g>
		<path class="st0" d="M65.1,66.9c0,22.8,0,45.5,0,68.3c0,3.6,3.8,5.4,6.8,3.9c22.8-11.4,45.5-22.8,68.3-34.1c2.9-1.5,2.9-6.3,0-7.8
			C117.4,85.8,94.6,74.4,71.9,63c-5.2-2.6-9.7,5.2-4.5,7.8c22.8,11.4,45.5,22.8,68.2,34.1c0-2.6,0-5.2,0-7.8
			c-22.8,11.4-45.5,22.8-68.2,34.1c2.3,1.3,4.5,2.6,6.8,3.9c0-22.8,0-45.5,0-68.3C74.1,61.1,65.1,61.1,65.1,66.9z"/>
	</g>
</g>
<g>
	<g>
		<path class="st0" d="M163.3,140.3c-17.6,28.6-52.5,44.3-85.5,36.9c-30.8-6.9-54.9-31.9-61.3-62.8c-6.5-31.5,8.1-65.3,35-82.7
			c28.3-18.3,66.4-16.2,92.8,4.5C175.7,60.8,183.4,106.1,163.3,140.3c-2.9,5,4.8,9.5,7.8,4.5c19.7-33.4,15.8-77.3-10.6-105.9
			C134.8,11.3,93.3,2.5,58.8,17.6C25.9,31.9,3.9,67.4,5.9,103.2c2,35.2,25.1,66.7,58.1,79.2c39.5,15,85.1-1.9,107.1-37.6
			C174.1,139.9,166.3,135.4,163.3,140.3z"/>
	</g>
</g>
</svg>
