<?xml version="1.0" encoding="utf-8"?>
<!-- Generator: Adobe Illustrator 19.2.0, SVG Export Plug-In . SVG Version: 6.00 Build 0)  -->
<svg version="1.1" id="Laag_1" xmlns="http://www.w3.org/2000/svg" xmlns:xlink="http://www.w3.org/1999/xlink" x="0px" y="0px"
	 viewBox="0 0 167.6 183.5" style="enable-background:new 0 0 167.6 183.5;" xml:space="preserve">
<style type="text/css">
	.st0{fill:#231F20;}
	.st1{fill:#7D3C8C;}
	.st2{fill:#333333;stroke:#231F20;stroke-width:0.8183;stroke-miterlimit:10;}
	.st3{fill:none;}
	.st4{fill:#FFFFFF;}
	.st5{fill:#FF5072;}
	.st6{fill:#231F20;stroke:#231F20;stroke-width:0.8146;}
	.st7{fill:#84CD1A;}
	.st8{fill:#231F20;stroke:#231F20;stroke-miterlimit:10;}
</style>
<g>
	<g>
		<path class="st0" d="M28,141c-0.1-12.6,1.1-25.3,3-37.7c3.2-21.2,8.6-45.3,23-62c13.7-15.9,37.3-19.8,53.9-5.8
			c16.9,14.3,23.6,38.4,27.7,59.2c3,15.2,4.8,30.8,4.8,46.3c1.5-1.5,3-3,4.5-4.5c-35.4,0-70.8,0-106.2,0c-5.1,0-10.1,0-15.2,0
			c-5.8,0-5.8,9,0,9c35.4,0,70.8,0,106.2,0c5.1,0,10.1,0,15.2,0c2.4,0,4.5-2.1,4.5-4.5c0-14.2-1.6-28.6-4-42.7
			c-3.9-23-10.8-48.7-27.6-65.9c-16.4-16.9-43.2-19.7-62.2-5.2c-18.9,14.5-26.9,40-31.4,62.4c-3.4,16.8-5.4,34.2-5.3,51.3
			C19,146.8,28,146.8,28,141z"/>
	</g>
</g>
<g>
	<g>
		<path class="st0" d="M98.7,160.1c0,7.7-5.7,14.1-14.4,14.1c-8.9,0-14.6-6.7-14.7-14.1c-1.5,1.5-3,3-4.5,4.5c12.7,0,25.4,0,38.1,0
			c5.8,0,5.8-9,0-9c-12.7,0-25.4,0-38.1,0c-2.4,0-4.5,2.1-4.5,4.5c0.1,13.3,10.5,23.1,23.7,23.1c13.2,0,23.5-9.9,23.4-23.1
			C107.7,154.3,98.7,154.3,98.7,160.1z"/>
	</g>
</g>
<g>
	<g>
		<path class="st0" d="M4.6,145.5c46.3,0,92.6,0,139,0c6.5,0,12.9,0,19.4,0c5.8,0,5.8-9,0-9c-46.3,0-92.6,0-139,0
			c-6.5,0-12.9,0-19.4,0C-1.2,136.5-1.2,145.5,4.6,145.5L4.6,145.5z"/>
	</g>
</g>
<g>
	<g>
		<path class="st0" d="M88.3,22.8c0-6.1,0-12.1,0-18.2c0-5.8-9-5.8-9,0c0,6.1,0,12.1,0,18.2C79.3,28.6,88.3,28.6,88.3,22.8
			L88.3,22.8z"/>
	</g>
</g>
</svg>
