<?xml version="1.0" encoding="utf-8"?>
<!-- Generator: Adobe Illustrator 19.2.0, SVG Export Plug-In . SVG Version: 6.00 Build 0)  -->
<svg version="1.1" id="Laag_1" xmlns="http://www.w3.org/2000/svg" xmlns:xlink="http://www.w3.org/1999/xlink" x="0px" y="0px"
	 viewBox="0 0 198.3 200" style="enable-background:new 0 0 198.3 200;" xml:space="preserve">
<style type="text/css">
	.st0{fill:#231F20;}
	.st1{fill:#7D3C8C;}
	.st2{fill:#333333;stroke:#231F20;stroke-width:0.8183;stroke-miterlimit:10;}
	.st3{fill:none;}
	.st4{fill:#FFFFFF;}
	.st5{fill:#FF5072;}
	.st6{fill:#231F20;stroke:#231F20;stroke-width:0.8146;}
	.st7{fill:#84CD1A;}
	.st8{fill:#231F20;stroke:#231F20;stroke-miterlimit:10;}
</style>
<g>
	<g>
		<g>
			<path class="st0" d="M79.2,68.2c26.3,0,52.6,0,79,0c5.8,0,5.8-9,0-9c-26.3,0-52.6,0-79,0C73.4,59.2,73.4,68.2,79.2,68.2
				L79.2,68.2z"/>
		</g>
	</g>
	<g>
		<g>
			<path class="st0" d="M79.2,98c26.3,0,52.6,0,79,0c5.8,0,5.8-9,0-9c-26.3,0-52.6,0-79,0C73.4,89,73.4,98,79.2,98L79.2,98z"/>
		</g>
	</g>
	<g>
		<g>
			<path class="st0" d="M79.2,128.8c26.3,0,52.6,0,79,0c5.8,0,5.8-9,0-9c-26.3,0-52.6,0-79,0C73.4,119.8,73.4,128.8,79.2,128.8
				L79.2,128.8z"/>
		</g>
	</g>
	<g>
		<g>
			<path class="st0" d="M33.6,102.9c5.3,0,10.6,0,15.8,0c5.8,0,5.8-9,0-9c-5.3,0-10.6,0-15.8,0C27.8,93.9,27.8,102.9,33.6,102.9
				L33.6,102.9z"/>
		</g>
	</g>
	<g>
		<g>
			<path class="st0" d="M33.6,133.5c5.3,0,10.6,0,15.8,0c5.8,0,5.8-9,0-9c-5.3,0-10.6,0-15.8,0C27.8,124.5,27.8,133.5,33.6,133.5
				L33.6,133.5z"/>
		</g>
	</g>
	<g>
		<g>
			<path class="st0" d="M51.9,44.3c38.2,0,76.4,0,114.6,0c5.4,0,10.9,0,16.3,0c-1.5-1.5-3-3-4.5-4.5c0,22.8,0,45.6,0,68.4
				c0,11.8,0,23.6,0,35.3c0,1.7,0.1,3.4,0,5.1c-0.1,5.6-4.1,6.9-9.7,7c-28.4,0.2-56.8,0-85.2,0c-14.4,0-28.9,0-43.3,0
				c-3.7,0-7.5,0.2-11.2,0c-6-0.2-8.6-4.8-8.8-9.4c-0.5-11.6,0-23.4,0-35c0-12,0-24,0-36c-1.5,1.5-3,3-4.5,4.5c12.1,0,24.2,0,36.3,0
				c2.4,0,4.5-2.1,4.5-4.5c0-11.8,0-23.6,0-35.5c0-5.8-9-5.8-9,0c0,11.8,0,23.6,0,35.5c1.5-1.5,3-3,4.5-4.5c-12.1,0-24.2,0-36.3,0
				c-2.4,0-4.5,2.1-4.5,4.5c0,23.3-0.5,46.7,0,70.1c0.1,3.9,0.8,7.8,2.8,11.2c3.7,6.4,10.2,8.1,17.2,8.1c12.5,0,25,0,37.5,0
				c32,0,64.1,0,96.1,0c5.9,0,12.2,0.4,17.2-3.6c4.1-3.3,5.4-8,5.4-13c0-8.4,0-16.8,0-25.1c0-27.7,0-55.4,0-83.1
				c0-2.4-2.1-4.5-4.5-4.5c-38.2,0-76.4,0-114.6,0c-5.4,0-10.9,0-16.3,0C46.2,35.3,46.1,44.3,51.9,44.3z"/>
		</g>
	</g>
	<g>
		<g>
			<path class="st0" d="M47.4,75.3c0,23.5,0,47.1,0,70.6c0,5.8,9,5.8,9,0c0-23.5,0-47.1,0-70.6C56.4,69.5,47.4,69.5,47.4,75.3
				L47.4,75.3z"/>
		</g>
	</g>
	<g>
		<g>
			<path class="st0" d="M47.4,145.9c0,0.6,0,1.2-0.1,1.8c0,0.3-0.2,1.2,0,0c-0.1,0.3-0.1,0.7-0.2,1c-0.2,0.8-0.4,1.5-0.7,2.3
				c0.3-0.7-0.2,0.4-0.3,0.5c-0.2,0.4-0.4,0.8-0.7,1.2c0.3-0.4-1.2,1.2-1.1,1.2c-1.8,1.4-4,1.7-6.2,1.8c-5.8,0.1-5.8,9.1,0,9
				c6.6-0.1,12.8-2.9,15.9-9c1.5-2.9,2.4-6.5,2.2-9.8C56.2,140.1,47.2,140.1,47.4,145.9L47.4,145.9z"/>
		</g>
	</g>
</g>
</svg>
