<?xml version="1.0" encoding="utf-8"?>
<!-- Generator: Adobe Illustrator 19.2.0, SVG Export Plug-In . SVG Version: 6.00 Build 0)  -->
<svg version="1.1" id="Laag_1" xmlns="http://www.w3.org/2000/svg" xmlns:xlink="http://www.w3.org/1999/xlink" x="0px" y="0px"
	 viewBox="0 0 192.8 192.8" style="enable-background:new 0 0 192.8 192.8;" xml:space="preserve">
<style type="text/css">
	.st0{fill:#231F20;}
	.st1{fill:#7D3C8C;}
	.st2{fill:#333333;stroke:#231F20;stroke-width:0.8183;stroke-miterlimit:10;}
	.st3{fill:none;}
	.st4{fill:#FFFFFF;}
	.st5{fill:#FF5072;}
	.st6{fill:#231F20;stroke:#231F20;stroke-width:0.8146;}
	.st7{fill:#84CD1A;}
	.st8{fill:#231F20;stroke:#231F20;stroke-miterlimit:10;}
</style>
<g>
	<g>
		<path class="st0" d="M19.5,67.8c0,31.6,0,63.1,0,94.7c0,4.5,0,9,0,13.5c0,2.4,2.1,4.5,4.5,4.5c42.3,0,84.6,0,126.8,0
			c6,0,12,0,18,0c2.4,0,4.5-2.1,4.5-4.5c0-31.6,0-63.1,0-94.7c0-4.5,0-9,0-13.5c0-2.4-2.1-4.5-4.5-4.5c-42.3,0-84.6,0-126.8,0
			c-6,0-12,0-18,0c-5.8,0-5.8,9,0,9c42.3,0,84.6,0,126.8,0c6,0,12,0,18,0c-1.5-1.5-3-3-4.5-4.5c0,31.6,0,63.1,0,94.7
			c0,4.5,0,9,0,13.5c1.5-1.5,3-3,4.5-4.5c-42.3,0-84.6,0-126.8,0c-6,0-12,0-18,0c1.5,1.5,3,3,4.5,4.5c0-31.6,0-63.1,0-94.7
			c0-4.5,0-9,0-13.5C28.5,62,19.5,62,19.5,67.8z"/>
	</g>
</g>
<g>
	<g>
		<path class="st0" d="M92,73c0,29.3,0,58.6,0,87.9c0,4.2,0,8.4,0,12.6c0,5.8,9,5.8,9,0c0-29.3,0-58.6,0-87.9c0-4.2,0-8.4,0-12.6
			C101,67.2,92,67.2,92,73L92,73z"/>
	</g>
</g>
<g>
	<g>
		<path class="st0" d="M165.2,118.5c-40.4,0-80.8,0-121.2,0c-5.8,0-11.5,0-17.3,0c-5.8,0-5.8,9,0,9c40.4,0,80.8,0,121.2,0
			c5.8,0,11.5,0,17.3,0C170.9,127.5,171,118.5,165.2,118.5L165.2,118.5z"/>
	</g>
</g>
<g>
	<g>
		<path class="st0" d="M98.7,62.9C93.2,60.1,88,57,82.9,53.7c-7.6-5-17.2-11.2-21.3-19.7c-1.2-2.5-1.5-5.1-0.5-7.2
			c0.4-1,1.4-2.1,2.6-2.6c1.2-0.5,3.1-0.4,5.1,0.3c2.7,1,5,3,6.9,5C85.4,39.6,89.3,54.7,92,67.9c1.2,5.7,9.9,3.3,8.7-2.4
			c-3-14.4-7.6-29.8-17.5-41.2c-5-5.7-12.6-10.9-20.6-9.2c-6.5,1.4-10.8,7.1-11.1,13.6c-0.6,11.2,10,20.2,18,26.3
			c7.7,5.9,16,11.1,24.6,15.5C99.3,73.2,103.8,65.5,98.7,62.9z"/>
	</g>
</g>
<g>
	<g>
		<path class="st0" d="M103.1,70.6c7.3-3.7,14.4-8,21.1-12.8c8.5-6.1,19.8-14.6,21.4-25.9c0.9-6.7-2.4-13.9-9.1-16.2
			c-7.3-2.6-14.9,1.3-20.2,6.3c-11.6,11-16.6,28.4-19.7,43.6c-1.2,5.7,7.5,8.1,8.7,2.4c2.6-12.4,6.1-25.6,14-35.8
			c3.3-4.3,8.6-8.8,13.4-8.2c1.2,0.2,2.5,1.1,3.1,1.9c1.1,1.5,1.4,3.1,1,5.5c-1.6,8.5-12.2,15.5-18.7,20
			c-6.1,4.3-12.6,8.2-19.3,11.6C93.4,65.5,97.9,73.2,103.1,70.6z"/>
	</g>
</g>
</svg>
