<?xml version="1.0" encoding="utf-8"?>
<!-- Generator: Adobe Illustrator 19.2.0, SVG Export Plug-In . SVG Version: 6.00 Build 0)  -->
<svg version="1.1" id="Laag_1" xmlns="http://www.w3.org/2000/svg" xmlns:xlink="http://www.w3.org/1999/xlink" x="0px" y="0px"
	 viewBox="0 0 198.3 200" style="enable-background:new 0 0 198.3 200;" xml:space="preserve">
<style type="text/css">
	.st0{fill:#231F20;}
	.st1{fill:#7D3C8C;}
	.st2{fill:#333333;stroke:#231F20;stroke-width:0.8183;stroke-miterlimit:10;}
	.st3{fill:none;}
	.st4{fill:#FFFFFF;}
	.st5{fill:#FF5072;}
	.st6{fill:#231F20;stroke:#231F20;stroke-width:0.8146;}
	.st7{fill:#84CD1A;}
	.st8{fill:#231F20;stroke:#231F20;stroke-miterlimit:10;}
</style>
<g>
	<g>
		<path class="st0" d="M175.7,88.6c-0.4-20.5-17.2-35-34.8-42.5c-23-9.8-50.4-10.8-74.2-3.4c-18.1,5.6-38,17.7-43,37.4
			c-4.4,17.7,4.5,35.8,18.7,46.2c19.3,14.2,44,13.9,66.8,12.3c-1.1-0.4-2.1-0.9-3.2-1.3c11.8,9.7,25.2,20,39.9,24.6
			c3.4,1.1,6.4-2.3,5.5-5.5c-1.9-7.5-3.2-15-3.4-22.8c0-2,0-4,0.2-6c0.1-0.7,0.1-1.3,0.2-2c-0.1,1.2-0.1,0.6,0,0.3
			c0.5-3.1-2-6.7-5.5-5.5c0,0-0.1,0-0.1,0c1.2,2.7,2.3,5.5,3.5,8.2C161.7,120.5,175.3,107,175.7,88.6c0.1-5.8-8.9-5.8-9,0
			c-0.3,15.1-12.4,25.6-24.9,32.2c-4.5,2.3-1.4,9.9,3.5,8.2c0,0,0.1,0,0.1,0c-1.8-1.8-3.7-3.7-5.5-5.5c-2,11.6,0.1,24.1,3,35.3
			c1.8-1.8,3.7-3.7,5.5-5.5c-10-3.1-19-9.6-27.3-15.7c-4.1-3-8.3-8-13.6-7.8c-22.1,0.9-47,2.1-64.2-14.5
			c-13.7-13.2-15.4-34-1.9-47.9C58.7,49.5,87.7,45,111.5,47.6c21.7,2.4,54.7,14.6,55.2,41C166.8,94.4,175.8,94.4,175.7,88.6z"/>
	</g>
</g>
</svg>
