<?xml version="1.0" encoding="utf-8"?>
<!-- Generator: Adobe Illustrator 19.2.1, SVG Export Plug-In . SVG Version: 6.00 Build 0)  -->
<svg version="1.1" id="Layer_1" xmlns="http://www.w3.org/2000/svg" xmlns:xlink="http://www.w3.org/1999/xlink" x="0px" y="0px"
	 viewBox="0 0 18.2 17.1" style="enable-background:new 0 0 18.2 17.1;" xml:space="preserve">
<style type="text/css">
	.st0{fill:#FF5072;}
	.st1{fill:none;stroke:#231F20;stroke-linecap:round;stroke-linejoin:round;stroke-miterlimit:10;}
</style>
<g>
	<path class="st0" d="M17.3,6.5c0.1-0.4,0.2-0.8,0.2-1.2c0-2.5-2-4.5-4.5-4.5c-1.6,0-3,0.8-3.8,2.1C8.3,1.6,6.9,0.8,5.3,0.8
		c-2.5,0-4.5,2-4.5,4.5c0,0.2,0,0.5,0.1,0.7c0.7,4.8,8.2,10.4,8.2,10.4S16.1,11.2,17.3,6.5z"/>
</g>
<path class="st1" d="M17.5,6.5c0.1-0.4,0.2-0.8,0.2-1.3c0-2.6-2.1-4.7-4.7-4.7c-1.6,0-3.1,0.8-3.9,2.1C8.3,1.3,6.8,0.5,5.2,0.5
	C2.6,0.6,0.5,2.6,0.5,5.2c0,0.3,0,0.5,0.1,0.7c0.8,5,8.5,10.7,8.5,10.7S16.3,11.3,17.5,6.5z"/>
</svg>
