<?xml version="1.0" encoding="utf-8"?>
<!-- Generator: Adobe Illustrator 19.2.0, SVG Export Plug-In . SVG Version: 6.00 Build 0)  -->
<svg version="1.1" id="Laag_1" xmlns="http://www.w3.org/2000/svg" xmlns:xlink="http://www.w3.org/1999/xlink" x="0px" y="0px"
	 viewBox="0 0 192.8 192.8" style="enable-background:new 0 0 192.8 192.8;" xml:space="preserve">
<style type="text/css">
	.st0{fill:#231F20;}
	.st1{fill:#7D3C8C;}
	.st2{fill:#333333;stroke:#231F20;stroke-width:0.8183;stroke-miterlimit:10;}
	.st3{fill:none;}
	.st4{fill:#FFFFFF;}
	.st5{fill:#FF5072;}
	.st6{fill:#231F20;stroke:#231F20;stroke-width:0.8146;}
	.st7{fill:#84CD1A;}
	.st8{fill:#231F20;stroke:#231F20;stroke-miterlimit:10;}
</style>
<g>
	<line class="st0" x1="142.2" y1="28" x2="46.8" y2="167.2"/>
	<g>
		<path class="st0" d="M138.4,25.8C110.5,66.4,82.6,107,54.8,147.6c-4,5.8-7.9,11.5-11.9,17.3c-3.3,4.8,4.5,9.3,7.8,4.5
			c27.9-40.6,55.7-81.2,83.6-121.9c4-5.8,7.9-11.5,11.9-17.3C149.4,25.5,141.6,21,138.4,25.8L138.4,25.8z"/>
	</g>
</g>
<g>
	<g>
		<path class="st0" d="M163.3,139.1c-17.6,28.6-52.5,44.3-85.5,36.9c-30.8-6.9-54.9-31.9-61.3-62.8c-6.5-31.5,8.1-65.3,35-82.7
			c28.3-18.3,66.4-16.2,92.8,4.5C175.7,59.7,183.4,104.9,163.3,139.1c-2.9,5,4.8,9.5,7.8,4.5c19.7-33.4,15.8-77.3-10.6-105.9
			C134.8,10.1,93.3,1.4,58.8,16.4C25.9,30.7,3.9,66.2,5.9,102.1c2,35.2,25.1,66.7,58.1,79.2c39.5,15,85.1-1.9,107.1-37.6
			C174.1,138.7,166.3,134.2,163.3,139.1z"/>
	</g>
</g>
</svg>
