<?xml version="1.0" encoding="utf-8"?>
<!-- Generator: Adobe Illustrator 19.2.0, SVG Export Plug-In . SVG Version: 6.00 Build 0)  -->
<svg version="1.1" id="Laag_1" xmlns="http://www.w3.org/2000/svg" xmlns:xlink="http://www.w3.org/1999/xlink" x="0px" y="0px"
	 viewBox="0 0 198.3 200" style="enable-background:new 0 0 198.3 200;" xml:space="preserve">
<style type="text/css">
	.st0{fill:#231F20;}
	.st1{fill:#7D3C8C;}
	.st2{fill:#333333;stroke:#231F20;stroke-width:0.8183;stroke-miterlimit:10;}
	.st3{fill:none;}
	.st4{fill:#FFFFFF;}
	.st5{fill:#FF5072;}
	.st6{fill:#231F20;stroke:#231F20;stroke-width:0.8146;}
	.st7{fill:#84CD1A;}
	.st8{fill:#231F20;stroke:#231F20;stroke-miterlimit:10;}
</style>
<g>
	<g>
		<g>
			<g>
				<path class="st0" d="M15,100c0.3-35.7,22.7-68.7,56.6-80.8c34.1-12.3,72.8-1.6,95.9,26.3c22.9,27.7,25.7,68.2,7.2,98.9
					c-18.4,30.6-55.1,47.1-90.2,40.1C44.3,176.4,15.3,140.7,15,100c0-5.8-9-5.8-9,0c0.3,39.7,25.2,75.6,62.6,89.3
					c37.4,13.8,81.1,1.6,106.1-29.4c24.9-30.9,28.3-75.3,7.5-109.4C161.4,16.7,120.9-0.8,82,6.9C38.1,15.6,6.3,55.5,6,100
					C5.9,105.8,14.9,105.8,15,100z"/>
			</g>
		</g>
	</g>
</g>
<g>
	<path class="st0" d="M69.7,82.1c0,0,17.2,58.1,19.8,63.1c2.6,4.9,8.4,9,16.3,4.8s7.3-11.6,5.1-15.8
		C108.2,129.2,69.7,82.1,69.7,82.1z"/>
	<g>
		<path class="st0" d="M65.4,83.3c2.9,9.7,5.8,19.5,8.8,29.2c3.4,11.2,6,23.7,11.2,34.3c9,18.7,38.4,5.4,30.1-13.5
			c-1.7-3.9-4.8-7.2-7.4-10.6c-4.3-5.5-8.6-11-12.9-16.4C87.7,97.2,80.3,88.1,72.9,79c-3.7-4.5-10,1.9-6.4,6.4
			c12.6,15.4,25.5,30.8,37.4,46.8c2.1,2.9,4.9,6,3.6,9.8c-1.5,4.5-8.1,6.9-11.9,3.9c-1.1-0.8-1.8-2-2.4-3.2c0.5,0.9-0.2-0.5-0.4-1.1
			c-3.8-10.7-7-21.6-10.3-32.4C79.6,99.8,76.8,90.4,74,81C72.4,75.4,63.7,77.8,65.4,83.3z"/>
	</g>
</g>
<g>
	<line class="st0" x1="42.7" y1="100" x2="27.5" y2="100"/>
	<g>
		<path class="st0" d="M42.7,95.5c-5.1,0-10.1,0-15.2,0c-5.8,0-5.8,9,0,9c5.1,0,10.1,0,15.2,0C48.5,104.5,48.5,95.5,42.7,95.5
			L42.7,95.5z"/>
	</g>
</g>
<g>
	<line class="st0" x1="173" y1="100" x2="157.7" y2="100"/>
	<g>
		<path class="st0" d="M173,95.5c-5.1,0-10.1,0-15.2,0c-5.8,0-5.8,9,0,9c5.1,0,10.1,0,15.2,0C178.7,104.5,178.8,95.5,173,95.5
			L173,95.5z"/>
	</g>
</g>
<g>
	<line class="st0" x1="99.1" y1="40.7" x2="99.1" y2="25.5"/>
	<g>
		<path class="st0" d="M103.6,40.7c0-5.1,0-10.1,0-15.2c0-5.8-9-5.8-9,0c0,5.1,0,10.1,0,15.2C94.6,46.5,103.6,46.5,103.6,40.7
			L103.6,40.7z"/>
	</g>
</g>
<g>
	<line class="st0" x1="142.5" y1="59.9" x2="153.3" y2="49.1"/>
	<g>
		<path class="st0" d="M145.7,63.1c3.6-3.6,7.2-7.2,10.8-10.8c4.1-4.1-2.3-10.5-6.4-6.4c-3.6,3.6-7.2,7.2-10.8,10.8
			C135.3,60.8,141.6,67.2,145.7,63.1L145.7,63.1z"/>
	</g>
</g>
<g>
	<line class="st0" x1="46.7" y1="49.1" x2="57.4" y2="59.9"/>
	<g>
		<path class="st0" d="M43.5,52.3c3.6,3.6,7.2,7.2,10.8,10.8c4.1,4.1,10.5-2.3,6.4-6.4C57,53.1,53.5,49.5,49.9,46
			C45.8,41.9,39.4,48.2,43.5,52.3L43.5,52.3z"/>
	</g>
</g>
</svg>
