<?xml version="1.0" encoding="utf-8"?>
<!-- Generator: Adobe Illustrator 19.2.0, SVG Export Plug-In . SVG Version: 6.00 Build 0)  -->
<svg version="1.1" id="Laag_1" xmlns="http://www.w3.org/2000/svg" xmlns:xlink="http://www.w3.org/1999/xlink" x="0px" y="0px"
	 viewBox="0 0 198.3 200" style="enable-background:new 0 0 198.3 200;" xml:space="preserve">
<style type="text/css">
	.st0{fill:#231F20;}
	.st1{fill:#7D3C8C;}
	.st2{fill:#333333;stroke:#231F20;stroke-width:0.8183;stroke-miterlimit:10;}
	.st3{fill:none;}
	.st4{fill:#FFFFFF;}
	.st5{fill:#FF5072;}
	.st6{fill:#231F20;stroke:#231F20;stroke-width:0.8146;}
	.st7{fill:#84CD1A;}
	.st8{fill:#231F20;stroke:#231F20;stroke-miterlimit:10;}
</style>
<g>
	<g>
		<g>
			<path class="st0" d="M11.8,40.8c25.5,0,50.9,0,76.4,0C87.1,40.4,86,40,85,39.5c5.1,5.6,10.1,11.2,15.2,16.8
				c3.2,3.6,6.5,7.2,9.7,10.8c1.8,2,3.2,4.1,6,4.5c5.7,0.7,11.9,0,17.6,0c10.8,0,21.6,0,32.3,0c6.9,0,13.8,0,20.7,0
				c-1.5-1.5-3-3-4.5-4.5c0,28.2,0,56.5,0,84.7c0,4.1,0,8.2,0,12.3c1.5-1.5,3-3,4.5-4.5c-19.6,0-39.3,0-58.9,0c-31.3,0-62.7,0-94,0
				c-7.2,0-14.5,0-21.7,0c1.5,1.5,3,3,4.5,4.5c0-37.4,0-74.7,0-112.1c0-5.2,0-10.4,0-15.7c0-5.8-9-5.8-9,0c0,37.4,0,74.7,0,112.1
				c0,5.2,0,10.4,0,15.7c0,2.4,2.1,4.5,4.5,4.5c19.6,0,39.3,0,58.9,0c31.3,0,62.7,0,94,0c7.2,0,14.5,0,21.7,0c2.4,0,4.5-2.1,4.5-4.5
				c0-28.2,0-56.5,0-84.7c0-4.1,0-8.2,0-12.3c0-2.4-2.1-4.5-4.5-4.5c-23.5,0-47.1,0-70.6,0c1.1,0.4,2.1,0.9,3.2,1.3
				c-5.5-6.1-11-12.2-16.5-18.3c-3.1-3.5-6.2-6.9-9.4-10.4c-1.7-1.9-2.7-3.1-5.4-3.4c-6.8-0.7-14.1,0-20.9,0c-11.3,0-22.5,0-33.8,0
				c-7.1,0-14.2,0-21.3,0C6,31.8,6,40.8,11.8,40.8z"/>
		</g>
	</g>
	<g>
		<g>
			<path class="st0" d="M115.9,62.6c-30.3,0-60.6,0-90.9,0c-4.4,0-8.8,0-13.2,0c-5.8,0-5.8,9,0,9c30.3,0,60.6,0,90.9,0
				c4.4,0,8.8,0,13.2,0C121.7,71.6,121.7,62.6,115.9,62.6L115.9,62.6z"/>
		</g>
	</g>
</g>
</svg>
