<?xml version="1.0" encoding="utf-8"?>
<!-- Generator: Adobe Illustrator 19.2.0, SVG Export Plug-In . SVG Version: 6.00 Build 0)  -->
<svg version="1.1" id="Laag_1" xmlns="http://www.w3.org/2000/svg" xmlns:xlink="http://www.w3.org/1999/xlink" x="0px" y="0px"
	 viewBox="0 0 198.3 200" style="enable-background:new 0 0 198.3 200;" xml:space="preserve">
<style type="text/css">
	.st0{fill:#231F20;}
	.st1{fill:#7D3C8C;}
	.st2{fill:#333333;stroke:#231F20;stroke-width:0.8183;stroke-miterlimit:10;}
	.st3{fill:none;}
	.st4{fill:#FFFFFF;}
	.st5{fill:#FF5072;}
	.st6{fill:#231F20;stroke:#231F20;stroke-width:0.8146;}
	.st7{fill:#84CD1A;}
	.st8{fill:#231F20;stroke:#231F20;stroke-miterlimit:10;}
</style>
<g>
	<g>
		<path class="st0" d="M155.4,88c4-15.6-3.1-32.3-17.9-39.2c-15.3-7.1-32.8-1.4-42.1,12.2c2.6,0,5.2,0,7.8,0
			c-8.3-12.2-23.5-18.5-37.9-13.9c-13.3,4.2-22.7,16.4-23.3,30.3c-0.6,12.4,5.9,24.4,12.9,34.1c7.3,10.2,16,19.4,25.2,27.9
			c5.4,4.9,11,9.7,16.8,14.1c1.1,0.9,3.4,0.9,4.5,0c8.7-6.5,16.8-13.8,24.5-21.4C138.2,119.8,150.7,105.2,155.4,88
			c1.5-5.6-7.2-8-8.7-2.4c-4.3,16.1-16.5,29.6-28.1,41.1c-4.9,4.9-10,9.5-15.3,14c-1.7,1.4-3.4,2.8-5.1,4.1
			c-1.5,1.2-0.4,0.3-1.4,1.1c1.5,0,3,0,4.5,0c-2.2-1.7-6.4-5.1-9.5-7.8c-7.3-6.3-14.3-13-20.7-20.2c-12.5-14.1-30.8-39.4-12.8-56.5
			c10.9-10.4,28.5-8,36.9,4.3c2,2.9,5.8,2.9,7.8,0c6.8-10,20-13.9,31-8.4c10.6,5.3,15.5,17.1,12.6,28.4
			C145.2,91.2,153.9,93.6,155.4,88z"/>
	</g>
</g>
</svg>
