<?xml version="1.0" encoding="utf-8"?>
<!-- Generator: Adobe Illustrator 19.2.0, SVG Export Plug-In . SVG Version: 6.00 Build 0)  -->
<svg version="1.1" id="Laag_1" xmlns="http://www.w3.org/2000/svg" xmlns:xlink="http://www.w3.org/1999/xlink" x="0px" y="0px"
	 viewBox="0 0 192.8 192.8" style="enable-background:new 0 0 192.8 192.8;" xml:space="preserve">
<style type="text/css">
	.st0{fill:#231F20;}
	.st1{fill:#7D3C8C;}
	.st2{fill:#333333;stroke:#231F20;stroke-width:0.8183;stroke-miterlimit:10;}
	.st3{fill:none;}
	.st4{fill:#FFFFFF;}
	.st5{fill:#FF5072;}
	.st6{fill:#231F20;stroke:#231F20;stroke-width:0.8146;}
	.st7{fill:#84CD1A;}
	.st8{fill:#231F20;stroke:#231F20;stroke-miterlimit:10;}
</style>
<g>
	<g>
		<path class="st0" d="M52.6,139c21.7,0.9,53.7-3.2,64.6-24.8c0.9-1.8,0.8-4-0.7-5.5c-4.4-4.5-8.4-9.4-11.5-14.8
			c-0.9,2.2-1.8,4.4-2.7,6.6c22.8-6.3,46.5-17.7,58.3-39.4c6.8-12.5,8.8-26.9,6.6-40.9c-0.4-2.9-1-5.8-2-8.5
			c-0.6-1.7-2.3-3.6-4.3-3.3c-11.6,1.5-22.9,7-32.8,12.9C101.9,37.1,81.7,61.6,66.8,88c-13.5,24-22.9,50.1-29.8,76.7
			c-1.5,5.6,7.2,8,8.7,2.4c10.5-40.4,27-80.9,55.6-112c13.9-15,31.4-28.4,50.2-35c2.5-0.9,5-1.6,7.5-2.2c0.6-0.1,4.6-0.8,1.8-0.4
			c-1.4-1.1-2.9-2.2-4.3-3.3c7.3,20.6-0.5,44.7-17.4,59c-11.2,9.4-25.2,14.9-39.2,18.8c-2.8,0.8-4.2,4.1-2.7,6.6
			c3.6,6,8.1,11.6,13,16.6c-0.2-1.8-0.5-3.6-0.7-5.5c-6.1,12.1-20.7,16.4-33.1,18.6c-7.8,1.4-15.9,2-23.8,1.7
			C46.8,129.8,46.8,138.8,52.6,139L52.6,139z"/>
	</g>
</g>
</svg>
