<?xml version="1.0" encoding="utf-8"?>
<!-- Generator: Adobe Illustrator 19.2.0, SVG Export Plug-In . SVG Version: 6.00 Build 0)  -->
<svg version="1.1" id="Laag_1" xmlns="http://www.w3.org/2000/svg" xmlns:xlink="http://www.w3.org/1999/xlink" x="0px" y="0px"
	 viewBox="0 0 227.4 190.7" style="enable-background:new 0 0 227.4 190.7;" xml:space="preserve">
<style type="text/css">
	.st0{fill:#231F20;}
	.st1{fill:#7D3C8C;}
	.st2{fill:#333333;stroke:#231F20;stroke-width:0.8183;stroke-miterlimit:10;}
	.st3{fill:none;}
	.st4{fill:#FFFFFF;}
	.st5{fill:#FF5072;}
	.st6{fill:#231F20;stroke:#231F20;stroke-width:0.8146;}
	.st7{fill:#84CD1A;}
	.st8{fill:#231F20;stroke:#231F20;stroke-miterlimit:10;}
</style>
<g>
	<g>
		<g>
			<path class="st0" d="M48.1,58c0.3-15.9,10-30.6,25.2-35.9c15.2-5.3,32.3-0.6,42.5,11.8c10,12.3,11.2,30.1,3.1,43.7
				c-8.1,13.5-24.3,20.9-39.8,17.9C61.2,92,48.4,76.3,48.1,58c-0.1-5.8-9.1-5.8-9,0c0.3,19.8,12.5,37.5,31.2,44.4
				c18.4,6.8,39.9,0.7,52.3-14.4c12.4-15.2,14.2-37.2,4.1-54.1C116.5,16.8,96.3,8,76.8,11.9C54.9,16.2,39.5,36,39.1,58
				C39.1,63.8,48.1,63.8,48.1,58z"/>
		</g>
	</g>
	<g>
		<g>
			<path class="st0" d="M21.1,146.5c9.2-14.4,23.8-26.9,39.3-33.9c26.9-12,56.1-3.1,76.8,16.4c4.9,4.6,9.6,9.6,13.1,15.1
				c0.2-1.8,0.5-3.6,0.7-5.5c-10.3,10.9-25.6,18.1-39.9,21.9c-26,7.1-56.2,4.5-79.2-10.1c-4.1-2.6-8.4-5.7-11.5-9.5
				c-3.7-4.4-10.1,2-6.4,6.4c10.4,12.3,28,19.6,43.2,23.1c28.7,6.5,60.1,2,85.1-13.7c5.3-3.3,10.7-7.1,15-11.7
				c1.3-1.4,1.8-3.8,0.7-5.5c-10.6-16.5-27.8-30.2-46-37c-30-11.2-60.9-0.4-83.2,21c-5.7,5.5-11.2,11.6-15.5,18.3
				C10.2,146.9,17.9,151.4,21.1,146.5z"/>
		</g>
	</g>
</g>
<g>
	<g>
		<path class="st0" d="M190.5,107.8c9.2-9.2,18.3-18.3,27.5-27.5c1.7-1.7,1.7-4.7,0-6.4c-9.2-8.9-18.3-17.8-27.5-26.7
			c-4.2-4-10.5,2.3-6.4,6.4c9.2,8.9,18.3,17.8,27.5,26.7c0-2.1,0-4.2,0-6.4c-9.2,9.2-18.3,18.3-27.5,27.5
			C180,105.5,186.4,111.9,190.5,107.8L190.5,107.8z"/>
	</g>
</g>
<g>
	<g>
		<path class="st0" d="M212.7,73c-20.5,0-41.1,0-61.6,0c-5.8,0-5.8,9,0,9c20.5,0,41.1,0,61.6,0C218.4,82,218.5,73,212.7,73L212.7,73
			z"/>
	</g>
</g>
</svg>
