<?xml version="1.0" encoding="utf-8"?>
<!-- Generator: Adobe Illustrator 19.2.0, SVG Export Plug-In . SVG Version: 6.00 Build 0)  -->
<svg version="1.1" id="Laag_1" xmlns="http://www.w3.org/2000/svg" xmlns:xlink="http://www.w3.org/1999/xlink" x="0px" y="0px"
	 viewBox="0 0 192.8 192.8" style="enable-background:new 0 0 192.8 192.8;" xml:space="preserve">
<style type="text/css">
	.st0{fill:#231F20;}
	.st1{fill:#7D3C8C;}
	.st2{fill:#333333;stroke:#231F20;stroke-width:0.8183;stroke-miterlimit:10;}
	.st3{fill:none;}
	.st4{fill:#FFFFFF;}
	.st5{fill:#FF5072;}
	.st6{fill:#231F20;stroke:#231F20;stroke-width:0.8146;}
	.st7{fill:#84CD1A;}
	.st8{fill:#231F20;stroke:#231F20;stroke-miterlimit:10;}
</style>
<g>
	<g>
		<path class="st0" d="M96.1,86.4c-6,2.6-12.2,4.6-18.4,6.3c-2.3,0.6-3.5,3.4-2.2,5.5c3,5.1,6.8,9.9,10.8,14.3
			C79.4,123,65.8,127,54.1,129.1c-6.7,1.2-13.6,1.8-20.4,1.8C44,103,58.2,76.5,78.3,54.6c13.9-15.1,31.1-28.4,50.6-35.2
			c2.3-0.8,4.6-1.5,7-2.1c2.3,8.3,2.3,16.9,0.4,25.1c2.6,0.5,4.9,1.3,7.1,2.5c1.7-8,1.9-16.3,0.7-24.4c-0.4-2.9-1-5.8-2-8.5
			c-0.5-1.4-1.9-3-3.6-2.8c-11.4,1.5-22.6,7-32.4,12.8C79.9,37.7,59.7,62,45,88.4c-13.4,24-22.8,50-29.7,76.5c-1.2,4.7,6,6.7,7.2,2
			c2.5-9.6,5.3-19.1,8.6-28.6c21.4,0.7,52.4-3.4,63.1-24.4c0.8-1.5,0.6-3.3-0.6-4.6c-3.3-3.4-6.3-7-9-10.8
			c5.1-1.6,10.2-3.4,15.1-5.6C98.2,90.9,97,88.7,96.1,86.4z"/>
	</g>
</g>
<g>
	<g>
		<path class="st0" d="M109.7,67.7c4.3,4.7,8.5,9.4,12.8,14.1c1.8,2,3.5,4.2,5.9,5.6c4.6,2.7,10.7,2.2,14.8-1.1
			c3.5-2.8,6.3-6.8,9.3-10.2c5.5-6.2,11-12.4,16.5-18.6c3.6-4.1,7.3-8.2,10.9-12.3c3.8-4.3-2.5-10.7-6.4-6.4
			c-10,11.3-20,22.5-30,33.8c-1.5,1.7-3,3.6-4.6,5.2c-2.9,3-5.3,2.5-8-0.3c-5.1-5.3-9.9-10.9-14.8-16.3
			C112.2,57.1,105.8,63.4,109.7,67.7L109.7,67.7z"/>
	</g>
</g>
</svg>
