<?xml version="1.0" encoding="utf-8"?>
<!-- Generator: Adobe Illustrator 19.2.0, SVG Export Plug-In . SVG Version: 6.00 Build 0)  -->
<svg version="1.1" id="Laag_1" xmlns="http://www.w3.org/2000/svg" xmlns:xlink="http://www.w3.org/1999/xlink" x="0px" y="0px"
	 viewBox="0 0 192.8 192.8" style="enable-background:new 0 0 192.8 192.8;" xml:space="preserve">
<style type="text/css">
	.st0{fill:#231F20;}
	.st1{fill:#7D3C8C;}
	.st2{fill:#333333;stroke:#231F20;stroke-width:0.8183;stroke-miterlimit:10;}
	.st3{fill:none;}
	.st4{fill:#FFFFFF;}
	.st5{fill:#FF5072;}
	.st6{fill:#231F20;stroke:#231F20;stroke-width:0.8146;}
	.st7{fill:#84CD1A;}
	.st8{fill:#231F20;stroke:#231F20;stroke-miterlimit:10;}
</style>
<g>
	<g>
		<g>
			<path class="st0" d="M68.2,93.6c0.2-12.4,7.8-23.9,19.8-28c11.7-4.1,24.8-0.5,32.8,8.9c17.8,20.9-1.5,53.5-28.3,48.4
				C78.3,120.1,68.5,107.7,68.2,93.6c-0.1-5.8-9.1-5.8-9,0c0.3,16.3,10.3,30.9,25.7,36.5c15.2,5.5,32.8,0.5,43-12
				c10.2-12.5,11.7-30.6,3.3-44.5c-8.4-13.9-24.6-21-40.5-18.1c-18.3,3.3-31.1,19.8-31.5,38.1C59.1,99.3,68.1,99.3,68.2,93.6z"/>
		</g>
	</g>
	<g>
		<g>
			<path class="st0" d="M46.3,165.1c7.2-11.3,18.6-21.1,30.8-26.7c21.4-9.8,44.7-2.6,61.2,12.9c3.8,3.6,7.5,7.5,10.3,11.9
				c0.2-1.8,0.5-3.6,0.7-5.5c-13,13.8-34.5,20.1-52.9,20.3c-17.2,0.2-39-4.5-50.8-18.5c-3.7-4.4-10.1,2-6.4,6.4
				c8.4,10,22.6,16,35,18.8c23.2,5.3,48.5,1.7,68.8-10.9c4.5-2.8,9-5.9,12.6-9.8c1.3-1.4,1.8-3.8,0.7-5.5
				c-8.7-13.5-22.8-24.7-37.8-30.2c-24.3-9-49.4-0.1-67.5,17.2c-4.6,4.5-9.1,9.5-12.6,14.9C35.4,165.5,43.2,170,46.3,165.1z"/>
		</g>
	</g>
</g>
<g>
	<g>
		<path class="st0" d="M165,141.1c-17.6,28.6-52.5,44.3-85.5,36.9C48.6,171,24.5,146,18.1,115.2c-6.5-31.5,8.1-65.3,35-82.7
			c28.3-18.3,66.4-16.2,92.8,4.5C177.4,61.6,185.1,106.9,165,141.1c-2.9,5,4.8,9.5,7.8,4.5c19.7-33.4,15.8-77.3-10.6-105.9
			C136.5,12.1,95,3.3,60.5,18.4C27.6,32.7,5.6,68.2,7.6,104c2,35.2,25.1,66.7,58.1,79.2c39.5,15,85.1-1.9,107.1-37.6
			C175.8,140.7,168,136.2,165,141.1z"/>
	</g>
</g>
</svg>
