<?xml version="1.0" encoding="utf-8"?>
<!-- Generator: Adobe Illustrator 19.2.0, SVG Export Plug-In . SVG Version: 6.00 Build 0)  -->
<svg version="1.1" id="Layer_1" xmlns="http://www.w3.org/2000/svg" xmlns:xlink="http://www.w3.org/1999/xlink" x="0px" y="0px"
	 viewBox="0 0 153.5 157.1" style="enable-background:new 0 0 153.5 157.1;" xml:space="preserve">
<style type="text/css">
	.st0{fill:#231F20;}
</style>
<g>
	<g>
		<path class="st0" d="M0,95.6c0,18.8,0,37.6,0,56.4c0,2.8,2.3,5.1,5.1,5.1c41.9,0,83.8,0,125.7,0c5.8,0,11.7,0,17.5,0
			c2.8,0,5.1-2.3,5.1-5.1c0-17.9,0-35.7,0-53.6c0-6.6-10.2-6.6-10.2,0c0,17.9,0,35.7,0,53.6c1.7-1.7,3.4-3.4,5.1-5.1
			c-41.9,0-83.8,0-125.7,0c-5.8,0-11.7,0-17.5,0c1.7,1.7,3.4,3.4,5.1,5.1c0-18.8,0-37.6,0-56.4C10.2,89,0,89,0,95.6L0,95.6z"/>
	</g>
</g>
<g>
	<g>
		<g>
			<path class="st0" d="M38,99.9c12,9.4,24.1,18.8,36.1,28.2c2.1,1.6,4.3,1.7,6.4,0c11.7-9.4,23.4-18.8,35.1-28.3
				c4.5-3.6-1.9-10-6.4-6.4c-11.7,9.4-23.4,18.8-35.1,28.3c2.1,0,4.2,0,6.4,0c-12-9.4-24.1-18.8-36.1-28.2
				C39.8,90,33.4,96.3,38,99.9L38,99.9z"/>
		</g>
	</g>
	<g>
		<g>
			<path class="st0" d="M81.8,123.7c0-34.8,0-69.5,0-104.3c0-5,0-10,0-15.1c0-5.8-9-5.8-9,0c0,34.8,0,69.5,0,104.3c0,5,0,10,0,15.1
				C72.8,129.5,81.8,129.5,81.8,123.7L81.8,123.7z"/>
		</g>
	</g>
</g>
</svg>
