<?xml version="1.0" encoding="utf-8"?>
<!-- Generator: Adobe Illustrator 19.2.0, SVG Export Plug-In . SVG Version: 6.00 Build 0)  -->
<svg version="1.1" id="Laag_1" xmlns="http://www.w3.org/2000/svg" xmlns:xlink="http://www.w3.org/1999/xlink" x="0px" y="0px"
	 viewBox="0 0 192.8 192.8" style="enable-background:new 0 0 192.8 192.8;" xml:space="preserve">
<style type="text/css">
	.st0{fill:#231F20;}
	.st1{fill:#7D3C8C;}
	.st2{fill:#333333;stroke:#231F20;stroke-width:0.8183;stroke-miterlimit:10;}
	.st3{fill:none;}
	.st4{fill:#FFFFFF;}
	.st5{fill:#FF5072;}
	.st6{fill:#231F20;stroke:#231F20;stroke-width:0.8146;}
	.st7{fill:#84CD1A;}
	.st8{fill:#231F20;stroke:#231F20;stroke-miterlimit:10;}
</style>
<g>
	<circle class="st0" cx="61.2" cy="100.4" r="8.9"/>
	<g>
		<path class="st0" d="M56.9,100.4c0.3-5.6,8.7-5.7,8.7,0C65.6,106,57.2,106,56.9,100.4c-0.3-5.8-9.3-5.8-9,0
			c0.4,7.2,5.8,13.4,13.4,13.4c7.3,0,13.3-6.1,13.4-13.4c0-7.1-5.9-13.1-12.9-13.3c-7.7-0.3-13.5,5.9-13.9,13.3
			C47.5,106.1,56.5,106.1,56.9,100.4z"/>
	</g>
</g>
<g>
	<circle class="st0" cx="100.4" cy="100.4" r="8.9"/>
	<g>
		<path class="st0" d="M96.1,100.4c0.3-5.6,8.7-5.7,8.7,0C104.8,106,96.4,106,96.1,100.4c-0.3-5.8-9.3-5.8-9,0
			c0.4,7.2,5.8,13.4,13.4,13.4c7.3,0,13.3-6.1,13.4-13.4c0-7.1-5.9-13.1-12.9-13.3c-7.7-0.3-13.5,5.9-13.9,13.3
			C86.8,106.1,95.8,106.1,96.1,100.4z"/>
	</g>
</g>
<g>
	<circle class="st0" cx="139.6" cy="100.4" r="8.9"/>
	<g>
		<path class="st0" d="M135.2,100.4c0.3-5.6,8.7-5.7,8.7,0C144,106,135.6,106,135.2,100.4c-0.3-5.8-9.3-5.8-9,0
			c0.4,7.2,5.8,13.4,13.4,13.4c7.3,0,13.3-6.1,13.4-13.4c0-7.1-5.9-13.1-12.9-13.3c-7.7-0.3-13.5,5.9-13.9,13.3
			C125.9,106.1,134.9,106.1,135.2,100.4z"/>
	</g>
</g>
<g>
	<g>
		<path class="st0" d="M169,141.1c-17.6,28.6-52.5,44.3-85.5,36.9C52.7,171,28.5,146,22.1,115.2c-6.5-31.5,8.1-65.3,35-82.7
			C85.4,14.2,123.5,16.3,150,37C181.5,61.6,189.2,106.9,169,141.1c-2.9,5,4.8,9.5,7.8,4.5c19.7-33.4,15.8-77.3-10.6-105.9
			C140.6,12.1,99,3.3,64.5,18.4C31.7,32.7,9.6,68.2,11.7,104c2,35.2,25.1,66.7,58.1,79.2c39.5,15,85.1-1.9,107.1-37.6
			C179.8,140.7,172,136.2,169,141.1z"/>
	</g>
</g>
</svg>
