<?xml version="1.0" encoding="utf-8"?>
<!-- Generator: Adobe Illustrator 19.2.0, SVG Export Plug-In . SVG Version: 6.00 Build 0)  -->
<svg version="1.1" id="Laag_1" xmlns="http://www.w3.org/2000/svg" xmlns:xlink="http://www.w3.org/1999/xlink" x="0px" y="0px"
	 viewBox="0 0 198.3 200" style="enable-background:new 0 0 198.3 200;" xml:space="preserve">
<style type="text/css">
	.st0{fill:#231F20;}
	.st1{fill:#7D3C8C;}
	.st2{fill:#333333;stroke:#231F20;stroke-width:0.8183;stroke-miterlimit:10;}
	.st3{fill:none;}
	.st4{fill:#FFFFFF;}
	.st5{fill:#FF5072;}
	.st6{fill:#231F20;stroke:#231F20;stroke-width:0.8146;}
	.st7{fill:#84CD1A;}
	.st8{fill:#231F20;stroke:#231F20;stroke-miterlimit:10;}
</style>
<g>
	<g>
		<g>
			<path class="st0" d="M79.1,41.9C69.7,53.9,60.3,66,50.9,78c-1.6,2.1-1.7,4.3,0,6.4c9.4,11.7,18.8,23.4,28.3,35.1
				c3.6,4.5,10-1.9,6.4-6.4C76.1,101.4,66.7,89.7,57.2,78c0,2.1,0,4.2,0,6.4c9.4-12,18.8-24.1,28.2-36.1
				C89,43.7,82.7,37.3,79.1,41.9L79.1,41.9z"/>
		</g>
	</g>
	<g>
		<g>
			<path class="st0" d="M54.1,85.3c17.8-0.4,36.9-2.4,54.4,1.9c14.6,3.6,23.1,13.7,27,27.9c3.6,13,4.1,26.8,4.2,40.2
				c0,5.8,9,5.8,9,0c-0.1-20.9-0.6-46.3-14.7-63.2c-10.5-12.7-27.5-15.5-43.1-16.2c-12.2-0.5-24.5,0-36.8,0.3
				C48.3,76.4,48.3,85.4,54.1,85.3L54.1,85.3z"/>
		</g>
	</g>
</g>
</svg>
