<?xml version="1.0" encoding="utf-8"?>
<!-- Generator: Adobe Illustrator 19.2.0, SVG Export Plug-In . SVG Version: 6.00 Build 0)  -->
<svg version="1.1" id="Laag_1" xmlns="http://www.w3.org/2000/svg" xmlns:xlink="http://www.w3.org/1999/xlink" x="0px" y="0px"
	 viewBox="0 0 198.3 200" style="enable-background:new 0 0 198.3 200;" xml:space="preserve">
<style type="text/css">
	.st0{fill:#231F20;}
	.st1{fill:#7D3C8C;}
	.st2{fill:#333333;stroke:#231F20;stroke-width:0.8183;stroke-miterlimit:10;}
	.st3{fill:none;}
	.st4{fill:#FFFFFF;}
	.st5{fill:#FF5072;}
	.st6{fill:#231F20;stroke:#231F20;stroke-width:0.8146;}
	.st7{fill:#84CD1A;}
	.st8{fill:#231F20;stroke:#231F20;stroke-miterlimit:10;}
</style>
<g>
	<circle class="st1" cx="99.1" cy="95.4" r="88.2"/>
</g>
<g>
	<g>
		<path class="st4" d="M60.4,143.4c4-0.7,7.9-1.4,11.9-2.1c2.7-0.5,5.5-0.5,7.6-2.4c4.3-3.7,8.1-8.4,12-12.5
			c14.6-15.2,29.1-30.3,43.7-45.5c3.9-4.1,7.9-8.2,11.8-12.3c1.7-1.7,1.8-4.6,0-6.4c-5.1-4.9-10.1-9.7-15.2-14.6
			c-1.7-1.7-4.6-1.8-6.4,0C103.4,71,80.3,93.8,58.5,117.8c-1.8,2-2.1,4.2-2.3,6.8c-0.5,4.8-0.9,9.6-1.4,14.4c-0.6,5.8,8.4,5.7,9,0
			c0.6-5.8,1.1-11.5,1.7-17.3c-0.4,1.1-0.9,2.1-1.3,3.2C84,104.3,103.8,83.6,123.6,63c2.9-3,5.8-6,8.6-9c-2.1,0-4.2,0-6.4,0
			c5.1,4.9,10.1,9.7,15.2,14.6c0-2.1,0-4.2,0-6.4c-9.9,10.3-19.8,20.6-29.7,31c-12.2,12.7-25.2,25-36.7,38.3c-0.2,0.2-1.2,1-1.2,1.2
			c-0.1-0.9,2.7-0.6,1.3-1c-0.6-0.2-2.1,0.4-2.7,0.5c-4.7,0.8-9.3,1.6-14,2.5C52.4,135.7,54.8,144.4,60.4,143.4z"/>
	</g>
</g>
<g>
	<g>
		<path class="st4" d="M81.2,123.6c-2.7-2.5-5.4-5-8.2-7.6c-1.8-1.7-4.6-1.8-6.4,0c-1.7,1.7-1.8,4.7,0,6.4c2.7,2.5,5.4,5,8.2,7.6
			c1.8,1.7,4.6,1.8,6.4,0C82.9,128.3,83,125.2,81.2,123.6L81.2,123.6z"/>
	</g>
</g>
<g>
	<g>
		<path class="st4" d="M129.1,81.4c-5.1-4.9-10.1-9.7-15.2-14.6c-4.2-4-10.6,2.3-6.4,6.4c5.1,4.9,10.1,9.7,15.2,14.6
			C126.9,91.7,133.3,85.4,129.1,81.4L129.1,81.4z"/>
	</g>
</g>
</svg>
