<?xml version="1.0" encoding="utf-8"?>
<!-- Generator: Adobe Illustrator 19.2.0, SVG Export Plug-In . SVG Version: 6.00 Build 0)  -->
<svg version="1.1" id="Layer_1" xmlns="http://www.w3.org/2000/svg" xmlns:xlink="http://www.w3.org/1999/xlink" x="0px" y="0px"
	 viewBox="0 0 177.5 177.5" style="enable-background:new 0 0 177.5 177.5;" xml:space="preserve">
<style type="text/css">
	.st0{fill:#231F20;}
	.st1{fill:#7F3F98;}
	.st2{fill:#FFFFFF;}
</style>
<g>
	<g>
		<path class="st0" d="M126.9,84.3c-25.6,0-51.3,0-76.9,0c-5.8,0-5.8,9,0,9c25.6,0,51.3,0,76.9,0C132.7,93.3,132.7,84.3,126.9,84.3
			L126.9,84.3z"/>
	</g>
</g>
<g>
	<g>
		<path class="st0" d="M93,127.2c0-25.6,0-51.3,0-76.9c0-5.8-9-5.8-9,0c0,25.6,0,51.3,0,76.9C84,133,93,133,93,127.2L93,127.2z"/>
	</g>
</g>
<g>
	<g>
		<path class="st0" d="M107.8,166.4c-32.4,7.7-68-5.7-86.2-33.9C3.5,104.3,5,67.1,25,40.3C45.5,12.8,83.8,2,116,13.5
			c30.8,11.1,51.9,41.7,52.5,74.2C169.2,124.6,143.2,157.3,107.8,166.4c-5.6,1.4-3.2,10.1,2.4,8.7c34.7-8.9,62-38.8,66.6-74.5
			c4.7-36.3-14.1-73.1-46.4-90.4C96.9-7.8,54.2-1.4,26.8,24.8C0,50.3-7.2,91.7,7.5,125.2c17.1,39.1,61.6,59.7,102.7,49.9
			C115.8,173.8,113.4,165.1,107.8,166.4z"/>
	</g>
</g>
</svg>
