<?xml version="1.0" encoding="utf-8"?>
<!-- Generator: Adobe Illustrator 19.2.0, SVG Export Plug-In . SVG Version: 6.00 Build 0)  -->
<svg version="1.1" id="Laag_1" xmlns="http://www.w3.org/2000/svg" xmlns:xlink="http://www.w3.org/1999/xlink" x="0px" y="0px"
	 viewBox="0 0 192.8 192.8" style="enable-background:new 0 0 192.8 192.8;" xml:space="preserve">
<style type="text/css">
	.st0{fill:#231F20;}
	.st1{fill:#7D3C8C;}
	.st2{fill:#333333;stroke:#231F20;stroke-width:0.8183;stroke-miterlimit:10;}
	.st3{fill:none;}
	.st4{fill:#FFFFFF;}
	.st5{fill:#FF5072;}
	.st6{fill:#231F20;stroke:#231F20;stroke-width:0.8146;}
	.st7{fill:#84CD1A;}
	.st8{fill:#231F20;stroke:#231F20;stroke-miterlimit:10;}
</style>
<g>
	<g>
		<path class="st0" d="M90.1,6.9c0,9,0.1,18,0.1,27c0,5.8,9,5.8,9,0c0-9-0.1-18-0.1-27C99.1,1.1,90.1,1.1,90.1,6.9L90.1,6.9z"/>
	</g>
</g>
<g>
	<g>
		<path class="st0" d="M157.3,28.7c-6.3,6.4-12.7,12.8-19,19.1c-4.1,4.1,2.3,10.5,6.4,6.4c6.3-6.4,12.7-12.8,19-19.1
			C167.7,31,161.4,24.6,157.3,28.7L157.3,28.7z"/>
	</g>
</g>
<g>
	<g>
		<path class="st0" d="M31,35.5c6.4,6.3,12.8,12.7,19.1,19c4.1,4.1,10.5-2.3,6.4-6.4c-6.4-6.3-12.8-12.7-19.1-19
			C33.3,25.1,26.9,31.5,31,35.5L31,35.5z"/>
	</g>
</g>
<g>
	<g>
		<path class="st0" d="M78.2,175.2c12,0,24-0.1,36-0.1c2.4,0,4.5-2.1,4.5-4.5c0-12-0.1-24-0.1-36c-1.1,1.4-2.2,2.9-3.3,4.3
			c11.7-3.4,20.5-14.4,24.2-25.5c6.6-20.1,1.1-43.9-17.1-55.8c-12.7-8.2-28.8-10-42.8-4.4c-20.4,8.1-29.7,28-27.3,49.3
			c1.7,15.1,9.6,31.5,24.5,37.5c-1.1-1.4-2.2-2.9-3.3-4.3c0.1,11.7,0.2,23.4,0.4,35.1c0.1,5.8,9.1,5.8,9,0
			c-0.1-11.7-0.2-23.4-0.4-35.1c0-2.2-1.4-3.6-3.3-4.3c2.1,0.8-0.7-0.4-1.3-0.8c-1.7-1-3.3-2.1-4.7-3.4c-5.2-4.7-8.7-10.9-10.5-17.7
			c-4.8-17.5-0.3-37.3,16.6-46.1c10.4-5.5,22.5-5.7,33.2-0.9c16.7,7.5,23.1,25,20,42.4c-1.4,8-5,15.6-11.4,20.9
			c-2.6,2.2-5.9,4-8,4.6c-1.9,0.5-3.3,2.4-3.3,4.3c0,12,0.1,24,0.1,36c1.5-1.5,3-3,4.5-4.5c-12,0-24,0.1-36,0.1
			C72.4,166.3,72.4,175.3,78.2,175.2z"/>
	</g>
</g>
<g>
	
		<rect x="78" y="148.9" transform="matrix(1 -3.415199e-03 3.415199e-03 1 -0.5451 0.3291)" class="st0" width="36.1" height="21.8"/>
	<g>
		<path class="st0" d="M78,153.5c12,0,24.1-0.1,36.1-0.1c-1.5-1.5-3-3-4.5-4.5c0,7.3,0,14.5,0.1,21.8c1.5-1.5,3-3,4.5-4.5
			c-12,0-24.1,0.1-36.1,0.1c1.5,1.5,3,3,4.5,4.5c0-7.3,0-14.5-0.1-21.8c0-5.8-9-5.8-9,0c0,7.3,0,14.5,0.1,21.8
			c0,2.4,2.1,4.5,4.5,4.5c12,0,24.1-0.1,36.1-0.1c2.4,0,4.5-2.1,4.5-4.5c0-7.3,0-14.5-0.1-21.8c0-2.4-2.1-4.5-4.5-4.5
			c-12,0-24.1,0.1-36.1,0.1C72.2,144.5,72.2,153.5,78,153.5z"/>
	</g>
</g>
<g>
	<path class="st0" d="M106.9,173.6c0,5.9-4.8,10.8-10.7,10.8c-5.9,0-10.8-4.8-10.8-10.7s4.8,0,10.7,0
		C102.1,173.7,106.9,167.7,106.9,173.6z"/>
</g>
<g>
	<g>
		<path class="st0" d="M95.2,64.6C81.6,67.2,69.7,78,67.5,91.9c-0.9,5.7,7.8,8.1,8.7,2.4c1.8-11.1,10.6-18.9,21.4-21
			C103.3,72.1,100.9,63.4,95.2,64.6L95.2,64.6z"/>
	</g>
</g>
</svg>
