<?xml version="1.0" encoding="utf-8"?>
<!-- Generator: Adobe Illustrator 19.2.0, SVG Export Plug-In . SVG Version: 6.00 Build 0)  -->
<svg version="1.1" id="Laag_1" xmlns="http://www.w3.org/2000/svg" xmlns:xlink="http://www.w3.org/1999/xlink" x="0px" y="0px"
	 viewBox="0 0 198.3 200" style="enable-background:new 0 0 198.3 200;" xml:space="preserve">
<style type="text/css">
	.st0{fill:#231F20;}
	.st1{fill:#7D3C8C;}
	.st2{fill:#333333;stroke:#231F20;stroke-width:0.8183;stroke-miterlimit:10;}
	.st3{fill:none;}
	.st4{fill:#FFFFFF;}
	.st5{fill:#FF5072;}
	.st6{fill:#231F20;stroke:#231F20;stroke-width:0.8146;}
	.st7{fill:#84CD1A;}
	.st8{fill:#231F20;stroke:#231F20;stroke-miterlimit:10;}
</style>
<g>
	<g>
		<path class="st0" d="M124.7,49.3c4.8,5.3,9.4,11,14.5,16c4.3,4.3,10.7,5.5,16,2.1c2-1.3,3.5-3.3,5.1-5.1
			c10.1-11.3,20.1-22.7,30.2-34c3.8-4.3-2.5-10.7-6.4-6.4c-9.2,10.4-18.4,20.8-27.6,31.2c-1.5,1.7-2.9,3.5-4.6,5.1
			c-2.7,2.7-4.7,2.4-7.1-0.1c-4.7-4.9-9.2-10.1-13.8-15.2C127.2,38.6,120.8,45,124.7,49.3L124.7,49.3z"/>
	</g>
</g>
<g>
	<g>
		<g>
			<path class="st2" d="M170.9,105.3c0.9,14-2.2,28.3-9.6,40.7c-15.1,25.3-45.4,38.8-74.3,32.8C54.6,172,31.2,143,30.9,110
				c0.2-29.2,18.7-56.2,46.4-66c5.9-2.1,12.1-3.3,18.2-3.8v-9c-3.3,0.2-6.6,0.6-9.9,1.3C48.9,39.6,22.3,72.9,22,110
				c0.2,33,21,62.8,52,74.3c31,11.4,67.3,1.5,88.1-24.2c12.7-15.6,18.7-35.4,17.7-54.9H170.9z"/>
		</g>
	</g>
	<g>
		<g>
			<path class="st0" d="M78.7,106.5c0.3-13,10.6-23.8,23.8-23.8c13,0,23.8,10.8,23.8,23.8c0,12.9-10.8,23.8-23.8,23.8
				C89.3,130.3,79,119.5,78.7,106.5c-0.1-5.8-9.1-5.8-9,0c0.3,13.6,8.4,25.7,21.2,30.6c13,5,28.1,0.9,36.9-9.8
				c8.6-10.5,9.9-25.8,2.9-37.5c-7-11.7-20.7-17.9-34.1-15.5C81,77.2,70.1,90.9,69.7,106.5C69.6,112.3,78.6,112.3,78.7,106.5z"/>
		</g>
	</g>
	<g>
		<g>
			<path class="st0" d="M61.1,168.2c8.6-13.4,24.3-24.9,40.5-25.4c16.8-0.6,33.7,10.2,42.5,23.9c0.2-1.8,0.5-3.6,0.7-5.5
				c-10.6,11.2-28,16.3-42.9,16.5c-14.1,0.2-31.9-3.6-41.5-15c-3.7-4.4-10.1,2-6.4,6.4c11.1,13.1,31.6,17.8,47.9,17.6
				c17.2-0.2,37.1-6.3,49.3-19.2c1.3-1.4,1.8-3.8,0.7-5.5c-10.7-16.5-30.3-29-50.2-28.3c-19.5,0.6-37.9,13.7-48.3,29.9
				C50.2,168.6,58,173.1,61.1,168.2z"/>
		</g>
	</g>
</g>
</svg>
