<?xml version="1.0" encoding="utf-8"?>
<!-- Generator: Adobe Illustrator 19.2.0, SVG Export Plug-In . SVG Version: 6.00 Build 0)  -->
<svg version="1.1" id="Laag_1" xmlns="http://www.w3.org/2000/svg" xmlns:xlink="http://www.w3.org/1999/xlink" x="0px" y="0px"
	 viewBox="0 0 198.3 200" style="enable-background:new 0 0 198.3 200;" xml:space="preserve">
<style type="text/css">
	.st0{fill:#231F20;}
	.st1{fill:#7D3C8C;}
	.st2{fill:#333333;stroke:#231F20;stroke-width:0.8183;stroke-miterlimit:10;}
	.st3{fill:none;}
	.st4{fill:#FFFFFF;}
	.st5{fill:#FF5072;}
	.st6{fill:#231F20;stroke:#231F20;stroke-width:0.8146;}
	.st7{fill:#84CD1A;}
	.st8{fill:#231F20;stroke:#231F20;stroke-miterlimit:10;}
</style>
<g>
	<g>
		<g>
			<path class="st0" d="M16.8,154.3c13,6.2,28,8.7,42.3,9.4c3.4,0.2,5.7-4,3.9-6.8c-10.2-16.2-20.5-32.4-30.7-48.7
				c-1.6-2.5-6.4-3.3-7.8,0c-5.5,13.1-10,27.8-9.9,42.2c0,5.8,9,5.8,9,0c0-12.8,3.8-26,8.7-37.6c-2.6,0-5.2,0-7.8,0
				C34.7,129,45,145.2,55.2,161.4c1.3-2.3,2.6-4.5,3.9-6.8c-12.5-0.6-26.9-3-37.8-8.1C16.1,144,11.6,151.8,16.8,154.3z"/>
		</g>
	</g>
	<g>
		<g>
			<path class="st0" d="M70,55.5C54,65.8,40.4,79.3,30.8,95.7c-2.5,4.2-8.5,12.3-6.2,17.2c1.1,2.4,3,4.7,4.4,7c6,9.5,12,19,18,28.5
				c2.3,3.6,4.6,7.2,6.8,10.9c0.4,0.7,0.8,1.4,1.3,2c2.1,2.7,4.8,2.4,8,2.4c39.3,0.1,76.9-20.4,99-52.8c4.4-6.5,8.2-13.4,11.3-20.6
				c1.7-4,0.4-5.8-1.7-9c-5.7-9.1-11.5-18.2-17.2-27.3c-2.7-4.2-5.3-8.4-8-12.6c-0.5-0.7-0.9-1.6-1.4-2.3c-2.7-3.4-8-2.4-11.9-2.4
				C110.8,37.1,89.1,43.7,70,55.5c-4.9,3-0.4,10.8,4.5,7.8c20.2-12.5,43-18.4,66.7-17.4c-1.3-0.7-2.6-1.5-3.9-2.2
				c9.6,15.2,19.2,30.4,28.8,45.6c0-1.5,0-3,0-4.5c-18.1,42.8-60.2,71.4-107.1,70c1.3,0.7,2.6,1.5,3.9,2.2
				c-10.2-16.2-20.5-32.4-30.7-48.7c0,1.5,0,3,0,4.5c9-20.5,23.5-37.4,42.3-49.5C79.4,60.2,74.9,52.4,70,55.5z"/>
			<path class="st0" d="M133.5,95.7c-3-4.8-6-9.5-9-14.3c-1.3-2-4-3-6.2-1.6c-7.9,5-15.7,9.9-23.6,14.9c-2,1.3-3,4-1.6,6.2
				c3,4.8,6,9.5,9,14.3c3.1,4.9,10.9,0.4,7.8-4.5c-3-4.8-6-9.5-9-14.3c-1.3-2-4-3-6.2-1.6c-7.4,4.7-14.8,9.4-22.2,14
				c-2,1.3-3,4-1.6,6.2c3,4.8,6,9.5,9,14.3c3.1,4.9,10.9,0.4,7.8-4.5c-3-4.8-6-9.5-9-14.3c-1.3-2-4-3-6.2-1.6
				c-4.4,2.8-8.7,5.5-13.1,8.3c-4.9,3.1-0.4,10.9,4.5,7.8c4.4-2.8,8.7-5.5,13.1-8.3c2-1.3,3-4,1.6-6.2c-3-4.8-6-9.5-9-14.3
				c-3.1-4.9-10.9-0.4-7.8,4.5c3,4.8,6,9.5,9,14.3c1.3,2,4,3,6.2,1.6c7.4-4.7,14.8-9.4,22.2-14c2-1.3,3-4,1.6-6.2
				c-3-4.8-6-9.5-9-14.3c-3.1-4.9-10.9-0.4-7.8,4.5c3,4.8,6,9.5,9,14.3c1.3,2,4,3,6.2,1.6c7.9-5,15.7-9.9,23.6-14.9
				c2-1.3,3-4,1.6-6.2c-3-4.8-6-9.5-9-14.3c-3.1-4.9-10.9-0.4-7.8,4.5c3,4.8,6,9.5,9,14.3c1.3,2,4,3,6.2,1.6c4.7-3,9.4-5.9,14-8.9
				c4.9-3.1,0.4-10.9-4.5-7.8c-4.7,3-9.4,5.9-14,8.9c-2,1.3-3,4-1.6,6.2c3,4.8,6,9.5,9,14.3C128.8,105.1,136.6,100.6,133.5,95.7
				c-3-4.8-6-9.5-9-14.3c-0.5,2.1-1.1,4.1-1.6,6.2c4.7-3,9.4-5.9,14-8.9c4.9-3.1,0.4-10.9-4.5-7.8c-4.7,3-9.4,5.9-14,8.9
				c2.1,0.5,4.1,1.1,6.2,1.6c-3-4.8-6-9.5-9-14.3c-3.1-4.9-10.9-0.4-7.8,4.5c3,4.8,6,9.5,9,14.3c0.5-2.1,1.1-4.1,1.6-6.2
				c-7.9,5-15.7,9.9-23.6,14.9c2.1,0.5,4.1,1.1,6.2,1.6c-3-4.8-6-9.5-9-14.3c-3.1-4.9-10.9-0.4-7.8,4.5c3,4.8,6,9.5,9,14.3
				c0.5-2.1,1.1-4.1,1.6-6.2c-7.4,4.7-14.8,9.4-22.2,14c2.1,0.5,4.1,1.1,6.2,1.6c-3-4.8-6-9.5-9-14.3c-3.1-4.9-10.9-0.4-7.8,4.5
				c3,4.8,6,9.5,9,14.3c0.5-2.1,1.1-4.1,1.6-6.2c-4.4,2.8-8.7,5.5-13.1,8.3c-4.9,3.1-0.4,10.9,4.5,7.8c4.4-2.8,8.7-5.5,13.1-8.3
				c-2.1-0.5-4.1-1.1-6.2-1.6c3,4.8,6,9.5,9,14.3c3.1,4.9,10.9,0.4,7.8-4.5c-3-4.8-6-9.5-9-14.3c-0.5,2.1-1.1,4.1-1.6,6.2
				c7.4-4.7,14.8-9.4,22.2-14c-2.1-0.5-4.1-1.1-6.2-1.6c3,4.8,6,9.5,9,14.3c3.1,4.9,10.9,0.4,7.8-4.5c-3-4.8-6-9.5-9-14.3
				c-0.5,2.1-1.1,4.1-1.6,6.2c7.9-5,15.7-9.9,23.6-14.9c-2.1-0.5-4.1-1.1-6.2-1.6c3,4.8,6,9.5,9,14.3
				C128.8,105.1,136.6,100.6,133.5,95.7z"/>
		</g>
	</g>
	<g>
		<g>
			<path class="st0" d="M137.4,43.6c9.6,15.2,19.2,30.4,28.8,45.6c2.2,3.5,6.8,2.4,8.2-1.1c5-12.2,8.9-25.6,9.3-38.8
				c0-1.4-0.9-3.3-2.2-3.9c-12.5-5.5-26.6-7.8-40.2-8.5c-5.8-0.3-5.8,8.7,0,9c8.9,0.5,17.6,1.8,26.2,4.2c2.4,0.7,4.8,1.4,7.1,2.2
				c0.8,0.3,3.5,1.4,2.3,0.9c-0.7-1.3-1.5-2.6-2.2-3.9c-0.4,12.4-4.3,25-9,36.4c2.7-0.4,5.5-0.7,8.2-1.1
				c-9.6-15.2-19.2-30.4-28.8-45.6C142.1,34.2,134.3,38.7,137.4,43.6z"/>
		</g>
	</g>
</g>
</svg>
