<?xml version="1.0" encoding="utf-8"?>
<!-- Generator: Adobe Illustrator 19.2.0, SVG Export Plug-In . SVG Version: 6.00 Build 0)  -->
<svg version="1.1" id="Laag_1" xmlns="http://www.w3.org/2000/svg" xmlns:xlink="http://www.w3.org/1999/xlink" x="0px" y="0px"
	 viewBox="0 0 198.3 200" style="enable-background:new 0 0 198.3 200;" xml:space="preserve">
<style type="text/css">
	.st0{fill:#231F20;}
	.st1{fill:#7D3C8C;}
	.st2{fill:#333333;stroke:#231F20;stroke-width:0.8183;stroke-miterlimit:10;}
	.st3{fill:none;}
	.st4{fill:#FFFFFF;}
	.st5{fill:#FF5072;}
	.st6{fill:#231F20;stroke:#231F20;stroke-width:0.8146;}
	.st7{fill:#84CD1A;}
	.st8{fill:#231F20;stroke:#231F20;stroke-miterlimit:10;}
</style>
<path class="st3" d="M107.2,98.5c0-0.2,0.1-0.5,0.1-0.7c0-0.1,0-0.3,0-0.4c0-1.3-0.4-2.5-1-3.6c-0.1-0.2-0.2-0.3-0.3-0.5
	c-0.8-1.1-1.9-2-3.1-2.4c-0.2-0.1-0.4-0.2-0.6-0.2c-0.6-0.2-1.2-0.3-1.9-0.3c-3.7,0-6.7,2.9-6.9,6.5c0,0.1,0,0.3,0,0.4
	c0,0.1,0,0.2,0,0.3c0.1,1.4,0.5,2.7,1.3,3.8c0.1,0.1,0.2,0.3,0.3,0.4c0.9,1.1,2.1,1.8,3.5,2.2c0.2,0.1,0.5,0.1,0.7,0.2
	c0.4,0.1,0.8,0.1,1.2,0.1C103.8,104.3,106.6,101.8,107.2,98.5z"/>
<path class="st0" d="M119.6,86.1c-0.2-0.6-0.5-1.2-1-1.7c-0.3-0.5-0.8-1-1.4-1.4c-15.2-10.2-30.4-20.4-45.7-30.6
	c-0.3-0.2-0.6-0.4-0.9-0.6c-2-1.2-3.9-0.6-5,0.7c-1.1,0.9-1.8,2.4-1.3,4.3c4.8,18,9.7,35.9,14.5,53.9c0.2,0.6,0.5,1.2,1,1.7
	c0.3,0.5,0.8,1,1.4,1.4c15.2,10.2,30.4,20.4,45.7,30.6c0.3,0.2,0.6,0.4,0.9,0.6c2,1.2,3.9,0.6,5-0.7c1.1-0.9,1.8-2.4,1.3-4.3
	C129.3,122,124.5,104,119.6,86.1z M98.4,104c-1.4-0.4-2.6-1.2-3.5-2.2c-0.1-0.1-0.2-0.3-0.3-0.4c-0.8-1.1-1.2-2.4-1.3-3.8
	c0-0.1,0-0.2,0-0.3c0-0.1,0-0.3,0-0.4c0.2-3.6,3.2-6.5,6.9-6.5c0.6,0,1.3,0.1,1.9,0.3c0.2,0.1,0.4,0.1,0.6,0.2
	c1.3,0.5,2.4,1.3,3.1,2.4c0.1,0.1,0.2,0.3,0.3,0.5c0.6,1,1,2.3,1,3.6c0,0.1,0,0.3,0,0.4c0,0.2,0,0.5-0.1,0.7
	c-0.5,3.3-3.4,5.8-6.9,5.8c-0.4,0-0.8,0-1.2-0.1C98.9,104.1,98.7,104.1,98.4,104z"/>
<g>
	<g>
		<path class="st0" d="M168.9,138.6c-17.6,28.6-52.5,44.3-85.5,36.9c-30.8-6.9-54.9-31.9-61.3-62.8C15.5,81.2,30.1,47.4,57,30
			c28.3-18.3,66.4-16.2,92.8,4.5C181.4,59.1,189.1,104.3,168.9,138.6c-2.9,5,4.8,9.5,7.8,4.5c19.7-33.4,15.8-77.3-10.6-105.9
			C140.4,9.6,98.9,0.8,64.4,15.8C31.6,30.1,9.5,65.6,11.5,101.5c2,35.2,25.1,66.7,58.1,79.2c39.5,15,85.1-1.9,107.1-37.6
			C179.7,138.2,171.9,133.6,168.9,138.6z"/>
	</g>
</g>
</svg>
