<?xml version="1.0" encoding="utf-8"?>
<!-- Generator: Adobe Illustrator 19.2.0, SVG Export Plug-In . SVG Version: 6.00 Build 0)  -->
<svg version="1.1" id="Layer_1" xmlns="http://www.w3.org/2000/svg" xmlns:xlink="http://www.w3.org/1999/xlink" x="0px" y="0px"
	 viewBox="0 0 168.7 168.9" style="enable-background:new 0 0 168.7 168.9;" xml:space="preserve">
<style type="text/css">
	.st0{fill:#231F20;}
	.st1{fill:#7F3F98;}
	.st2{fill:#FFFFFF;}
</style>
<g>
	<path class="st1" d="M104.6,166.4c-34,8.4-70.9-5.6-90.5-34.8C-8.2,98.2-3.6,53.3,24.5,24.7C49.5,0.1,88-7.3,119.9,7.8
		c32.4,15.3,51.8,49.5,48.5,85.1C165.1,128,138.7,158,104.6,166.4z"/>
</g>
<g>
	<g>
		<path class="st2" d="M122.6,79.9c-25.6,0-51.3,0-76.9,0c-5.8,0-5.8,9,0,9c25.6,0,51.3,0,76.9,0C128.4,88.9,128.4,79.9,122.6,79.9
			L122.6,79.9z"/>
	</g>
</g>
<g>
	<g>
		<path class="st2" d="M88.7,122.9c0-25.6,0-51.3,0-76.9c0-5.8-9-5.8-9,0c0,25.6,0,51.3,0,76.9C79.7,128.7,88.7,128.7,88.7,122.9
			L88.7,122.9z"/>
	</g>
</g>
</svg>
