<?xml version="1.0" encoding="utf-8"?>
<!-- Generator: Adobe Illustrator 19.2.0, SVG Export Plug-In . SVG Version: 6.00 Build 0)  -->
<svg version="1.1" id="Laag_1" xmlns="http://www.w3.org/2000/svg" xmlns:xlink="http://www.w3.org/1999/xlink" x="0px" y="0px"
	 viewBox="0 0 102 102" style="enable-background:new 0 0 102 102;" xml:space="preserve">
<style type="text/css">
	.st0{fill:#231F20;}
	.st1{fill:#7D3C8C;}
	.st2{fill:#333333;stroke:#231F20;stroke-miterlimit:10;}
	.st3{fill:none;}
	.st4{fill:#FFFFFF;}
	.st5{fill:#FF5072;}
	.st6{fill:#231F20;stroke:#231F20;stroke-width:0.8146;}
	.st7{fill:#1ED761;}
	.st8{fill:#231F20;stroke:#231F20;stroke-miterlimit:10;}
	.st9{fill:none;stroke:#231F20;stroke-linejoin:round;stroke-miterlimit:10;}
</style>
<g>
	<g>
		<g>
			<path class="st0" d="M94.4,1.3C67.3,28.4,40.2,55.5,13.1,82.6c-3.9,3.9-7.8,7.8-11.7,11.7c-4.1,4.1,2.3,10.5,6.4,6.4
				C34.8,73.6,61.9,46.5,89,19.4c3.9-3.9,7.8-7.8,11.7-11.7C104.8,3.6,98.5-2.8,94.4,1.3L94.4,1.3z"/>
		</g>
	</g>
	<g>
		<g>
			<path class="st0" d="M100.7,94.4C73.6,67.3,46.5,40.2,19.4,13.1C15.5,9.2,11.6,5.2,7.7,1.3C3.6-2.8-2.8,3.6,1.3,7.7
				C28.4,34.8,55.5,61.9,82.6,89c3.9,3.9,7.8,7.8,11.7,11.7C98.5,104.8,104.8,98.5,100.7,94.4L100.7,94.4z"/>
		</g>
	</g>
</g>
</svg>
