<?xml version="1.0" encoding="utf-8"?>
<!-- Generator: Adobe Illustrator 19.2.0, SVG Export Plug-In . SVG Version: 6.00 Build 0)  -->
<svg version="1.1" id="Laag_1" xmlns="http://www.w3.org/2000/svg" xmlns:xlink="http://www.w3.org/1999/xlink" x="0px" y="0px"
	 viewBox="0 0 198.3 200" style="enable-background:new 0 0 198.3 200;" xml:space="preserve">
<style type="text/css">
	.st0{fill:#231F20;}
	.st1{fill:#7D3C8C;}
	.st2{fill:#333333;stroke:#231F20;stroke-width:0.8183;stroke-miterlimit:10;}
	.st3{fill:none;}
	.st4{fill:#FFFFFF;}
	.st5{fill:#FF5072;}
	.st6{fill:#231F20;stroke:#231F20;stroke-width:0.8146;}
	.st7{fill:#84CD1A;}
	.st8{fill:#231F20;stroke:#231F20;stroke-miterlimit:10;}
</style>
<g>
	<g>
		<path class="st0" d="M8.7,123.2c11,0,22,0,33,0c2,0,3.8-1.4,4.3-3.3c8.2-29.2,16.3-58.3,24.5-87.5c1.2-4.2,2.3-8.3,3.5-12.5
			c-2.9,0-5.8,0-8.7,0c11.5,47.5,23.1,95,34.6,142.5c1.6,6.7,3.2,13.3,4.9,20c1.1,4.4,7.5,4.2,8.7,0c8.5-31.5,16.9-63.1,25.4-94.6
			c1.2-4.5,2.4-8.9,3.6-13.4c-2.9,0-5.8,0-8.7,0c4,12.3,8,24.7,12,37c0.6,1.9,2.3,3.3,4.3,3.3c13.1,0,26.3,0,39.4,0c5.8,0,5.8-9,0-9
			c-13.1,0-26.3,0-39.4,0c1.4,1.1,2.9,2.2,4.3,3.3c-4-12.3-8-24.7-12-37c-1.3-4.1-7.5-4.4-8.7,0c-8.5,31.5-16.9,63.1-25.4,94.6
			c-1.2,4.5-2.4,8.9-3.6,13.4c2.9,0,5.8,0,8.7,0C102,132.5,90.4,85,78.9,37.5c-1.6-6.7-3.2-13.3-4.9-20c-1.1-4.4-7.5-4.2-8.7,0
			C57.2,46.7,49,75.9,40.8,105c-1.2,4.2-2.3,8.3-3.5,12.5c1.4-1.1,2.9-2.2,4.3-3.3c-11,0-22,0-33,0C2.9,114.2,2.9,123.2,8.7,123.2
			L8.7,123.2z"/>
	</g>
</g>
</svg>
