<?xml version="1.0" encoding="utf-8"?>
<!-- Generator: Adobe Illustrator 19.2.0, SVG Export Plug-In . SVG Version: 6.00 Build 0)  -->
<svg version="1.1" id="Laag_1" xmlns="http://www.w3.org/2000/svg" xmlns:xlink="http://www.w3.org/1999/xlink" x="0px" y="0px"
	 viewBox="0 0 147.9 184.9" style="enable-background:new 0 0 147.9 184.9;" xml:space="preserve">
<style type="text/css">
	.st0{fill:#231F20;}
	.st1{fill:#7D3C8C;}
	.st2{fill:#333333;stroke:#231F20;stroke-width:0.8183;stroke-miterlimit:10;}
	.st3{fill:none;}
	.st4{fill:#FFFFFF;}
	.st5{fill:#FF5072;}
	.st6{fill:#231F20;stroke:#231F20;stroke-width:0.8146;}
	.st7{fill:#84CD1A;}
	.st8{fill:#231F20;stroke:#231F20;stroke-miterlimit:10;}
</style>
<g>
	<g>
		<g>
			<path class="st0" d="M4.1,185.3c40.8,0,81.7,0,122.5,0c5.7,0,11.4,0,17.2,0c2.4,0,4.5-2.1,4.5-4.5c0-30.7,0-61.4,0-92.1
				c0-4.4,0-8.8,0-13.2c0-2.4-2.1-4.5-4.5-4.5c-40.8,0-81.7,0-122.5,0c-5.7,0-11.4,0-17.2,0c-2.4,0-4.5,2.1-4.5,4.5
				c0,30.7,0,61.4,0,92.1c0,4.4,0,8.8,0,13.2c0,5.8,9,5.8,9,0c0-30.7,0-61.4,0-92.1c0-4.4,0-8.8,0-13.2c-1.5,1.5-3,3-4.5,4.5
				c40.8,0,81.7,0,122.5,0c5.7,0,11.4,0,17.2,0c-1.5-1.5-3-3-4.5-4.5c0,30.7,0,61.4,0,92.1c0,4.4,0,8.8,0,13.2c1.5-1.5,3-3,4.5-4.5
				c-40.8,0-81.7,0-122.5,0c-5.7,0-11.4,0-17.2,0C-1.7,176.3-1.7,185.3,4.1,185.3z"/>
		</g>
	</g>
	<g>
		<g>
			<path class="st0" d="M33.1,71.4c-0.2-18.5,4-42.1,18.3-55.1c10.5-9.5,27.1-10.1,38.8-2.5c11,7.1,16.9,20.4,20.3,32.6
				c2.3,8.2,3.9,16.6,4.2,25c0.2,5.8,9.2,5.8,9,0c-0.8-22-7.8-49-25.9-63.1C85-1.8,65.8-3.4,51.6,5.1c-13,7.7-19.9,22.3-23.6,36.4
				c-2.5,9.6-4,19.9-3.9,29.9C24.2,77.2,33.2,77.2,33.1,71.4L33.1,71.4z"/>
		</g>
	</g>
	<g>
		<ellipse class="st0" cx="74" cy="118.3" rx="14" ry="13.2"/>
		<g>
			<path class="st0" d="M64.5,118.3c0.6-11.3,19-11.4,19,0C83.4,129.8,65.1,129.6,64.5,118.3c-0.3-5.8-9.3-5.8-9,0
				c0.5,9.9,8.4,17.7,18.5,17.7c9.7,0,18.5-7.8,18.5-17.7c0-9.9-8.8-17.7-18.5-17.7c-10.1,0-18,7.8-18.5,17.7
				C55.2,124.1,64.2,124.1,64.5,118.3z"/>
		</g>
	</g>
	<g>
		<path class="st0" d="M74,155.7L74,155.7c-2.7,0-4.9-2.2-4.9-4.9v-21.3c0-2.7,2.2-4.9,4.9-4.9h0c2.7,0,4.9,2.2,4.9,4.9v21.3
			C78.9,153.5,76.7,155.7,74,155.7z"/>
		<g>
			<path class="st0" d="M74,151.2c-0.7,0-0.7-21.9,0-21.9c0.8,0,0.4,10,0.4,10.9c0,2.4,0,4.9,0,7.3c0,2,0.7,3.6-1.6,3.9
				c-5.7,0.8-3.3,9.4,2.4,8.7c10.2-1.4,8.2-13.5,8.2-20.9c0-7.3,1.1-19.8-10-19c-10.6,0.8-8.8,13-8.8,20.4c0,7.3-1.4,19.5,9.4,19.5
				C79.8,160.2,79.8,151.2,74,151.2z"/>
		</g>
	</g>
</g>
</svg>
