<?xml version="1.0" encoding="utf-8"?>
<!-- Generator: Adobe Illustrator 19.2.0, SVG Export Plug-In . SVG Version: 6.00 Build 0)  -->
<svg version="1.1" id="Laag_1" xmlns="http://www.w3.org/2000/svg" xmlns:xlink="http://www.w3.org/1999/xlink" x="0px" y="0px"
	 viewBox="0 0 246.6 153.2" style="enable-background:new 0 0 246.6 153.2;" xml:space="preserve">
<style type="text/css">
	.st0{fill:#231F20;}
	.st1{fill:#7D3C8C;}
	.st2{fill:#333333;stroke:#231F20;stroke-width:0.8183;stroke-miterlimit:10;}
	.st3{fill:none;}
	.st4{fill:#FFFFFF;}
	.st5{fill:#FF5072;}
	.st6{fill:#231F20;stroke:#231F20;stroke-width:0.8146;}
	.st7{fill:#84CD1A;}
	.st8{fill:#231F20;stroke:#231F20;stroke-miterlimit:10;}
</style>
<g>
	<g>
		<path class="st0" d="M17.6,18.1c22.5,0,45,0,67.5,0c35.9,0,71.8,0,107.7,0c8.3,0,16.5,0,24.8,0c-1.5-1.5-3-3-4.5-4.5
			c0,38.1,0,76.2,0,114.3c0,5.4,0,10.7,0,16.1c1.5-1.5,3-3,4.5-4.5c-22.5,0-45,0-67.5,0c-35.9,0-71.8,0-107.7,0
			c-8.3,0-16.5,0-24.8,0c1.5,1.5,3,3,4.5,4.5c0-38.1,0-76.2,0-114.3c0-5.4,0-10.7,0-16.1c0-5.8-9-5.8-9,0c0,38.1,0,76.2,0,114.3
			c0,5.4,0,10.7,0,16.1c0,2.4,2.1,4.5,4.5,4.5c22.5,0,45,0,67.5,0c35.9,0,71.8,0,107.7,0c8.3,0,16.5,0,24.8,0c2.4,0,4.5-2.1,4.5-4.5
			c0-38.1,0-76.2,0-114.3c0-5.4,0-10.7,0-16.1c0-2.4-2.1-4.5-4.5-4.5c-22.5,0-45,0-67.5,0c-35.9,0-71.8,0-107.7,0
			c-8.3,0-16.5,0-24.8,0C11.9,9.1,11.8,18.1,17.6,18.1z"/>
	</g>
</g>
<g>
	<g>
		<path class="st0" d="M15.4,18.5c29.2,21.3,58.4,42.6,87.6,63.9c4.1,3,8.3,6.1,12.4,9.1c1.2,0.9,3.4,0.9,4.5,0
			c29.2-21.3,58.4-42.6,87.6-63.9c4.1-3,8.3-6.1,12.4-9.1c4.6-3.4,0.1-11.2-4.5-7.8C186.2,32,157,53.3,127.8,74.6
			c-4.1,3-8.3,6.1-12.4,9.1c1.5,0,3,0,4.5,0C90.7,62.4,61.5,41.1,32.3,19.8c-4.1-3-8.3-6.1-12.4-9.1C15.2,7.3,10.7,15.1,15.4,18.5
			L15.4,18.5z"/>
	</g>
</g>
</svg>
