<?xml version="1.0" encoding="utf-8"?>
<!-- Generator: Adobe Illustrator 19.2.0, SVG Export Plug-In . SVG Version: 6.00 Build 0)  -->
<svg version="1.1" id="Laag_1" xmlns="http://www.w3.org/2000/svg" xmlns:xlink="http://www.w3.org/1999/xlink" x="0px" y="0px"
	 viewBox="0 0 152.9 103.3" style="enable-background:new 0 0 152.9 103.3;" xml:space="preserve">
<style type="text/css">
	.st0{fill:#231F20;}
	.st1{fill:#7D3C8C;}
	.st2{fill:#333333;stroke:#231F20;stroke-width:0.8183;stroke-miterlimit:10;}
	.st3{fill:none;}
	.st4{fill:#FFFFFF;}
	.st5{fill:#FF5072;}
	.st6{fill:#231F20;stroke:#231F20;stroke-width:0.8146;}
	.st7{fill:#84CD1A;}
	.st8{fill:#231F20;stroke:#231F20;stroke-miterlimit:10;}
</style>
<g>
	<g>
		<g>
			<path class="st0" d="M55.7,10.5c26.7,0,53.3,0,80,0c3.8,0,7.6,0,11.4,0c5.8,0,5.8-9,0-9c-26.7,0-53.3,0-80,0c-3.8,0-7.6,0-11.4,0
				C49.9,1.5,49.9,10.5,55.7,10.5L55.7,10.5z"/>
		</g>
	</g>
	<g>
		<g>
			<path class="st0" d="M55.7,41.4c17,0,33.9,0,50.9,0c5.8,0,5.8-9,0-9c-17,0-33.9,0-50.9,0C49.9,32.4,49.9,41.4,55.7,41.4
				L55.7,41.4z"/>
		</g>
	</g>
	<g>
		<g>
			<path class="st0" d="M5.8,10.5c5.9,0,11.8,0,17.7,0c5.8,0,5.8-9,0-9c-5.9,0-11.8,0-17.7,0C0,1.5,0,10.5,5.8,10.5L5.8,10.5z"/>
		</g>
	</g>
	<g>
		<g>
			<path class="st0" d="M5.8,41.4c5.9,0,11.8,0,17.7,0c5.8,0,5.8-9,0-9c-5.9,0-11.8,0-17.7,0C0,32.4,0,41.4,5.8,41.4L5.8,41.4z"/>
		</g>
	</g>
	<g>
		<g>
			<path class="st0" d="M55.7,72.7c26.7,0,53.3,0,80,0c3.8,0,7.6,0,11.4,0c5.8,0,5.8-9,0-9c-26.7,0-53.3,0-80,0c-3.8,0-7.6,0-11.4,0
				C49.9,63.7,49.9,72.7,55.7,72.7L55.7,72.7z"/>
		</g>
	</g>
	<g>
		<g>
			<path class="st0" d="M5.8,72.7c5.9,0,11.8,0,17.7,0c5.8,0,5.8-9,0-9c-5.9,0-11.8,0-17.7,0C0,63.7,0,72.7,5.8,72.7L5.8,72.7z"/>
		</g>
	</g>
	<g>
		<g>
			<path class="st0" d="M5.8,101.8c5.9,0,11.8,0,17.7,0c5.8,0,5.8-9,0-9c-5.9,0-11.8,0-17.7,0C0,92.8,0,101.8,5.8,101.8L5.8,101.8z"
				/>
		</g>
	</g>
	<g>
		<g>
			<path class="st0" d="M55.7,101.8c21.1,0,42.1,0,63.2,0c5.8,0,5.8-9,0-9c-21.1,0-42.1,0-63.2,0C49.9,92.8,49.9,101.8,55.7,101.8
				L55.7,101.8z"/>
		</g>
	</g>
</g>
</svg>
