<?xml version="1.0" encoding="utf-8"?>
<!-- Generator: Adobe Illustrator 19.2.0, SVG Export Plug-In . SVG Version: 6.00 Build 0)  -->
<svg version="1.1" id="Laag_1" xmlns="http://www.w3.org/2000/svg" xmlns:xlink="http://www.w3.org/1999/xlink" x="0px" y="0px"
	 viewBox="0 0 191.6 191.6" style="enable-background:new 0 0 191.6 191.6;" xml:space="preserve">
<style type="text/css">
	.st0{fill:#231F20;}
	.st1{fill:#7D3C8C;}
	.st2{fill:#333333;stroke:#231F20;stroke-width:0.8183;stroke-miterlimit:10;}
	.st3{fill:none;}
	.st4{fill:#FFFFFF;}
	.st5{fill:#FF5072;}
	.st6{fill:#231F20;stroke:#231F20;stroke-width:0.8146;}
	.st7{fill:#84CD1A;}
	.st8{fill:#231F20;stroke:#231F20;stroke-miterlimit:10;}
</style>
<g>
	<g>
		<g>
			<g>
				<path class="st0" d="M9.9,95.8C10.2,60.1,32.6,27.1,66.5,15c34.1-12.3,72.8-1.6,95.9,26.3c22.9,27.7,25.7,68.2,7.2,98.9
					c-18.4,30.6-55.1,47.1-90.2,40.1C39.3,172.2,10.2,136.5,9.9,95.8c0-5.8-9-5.8-9,0c0.3,39.7,25.2,75.6,62.6,89.3
					c37.4,13.8,81.1,1.6,106.1-29.4c24.9-30.9,28.3-75.3,7.5-109.4C156.3,12.5,115.9-5,77,2.7c-44,8.7-75.7,48.6-76,93.1
					C0.9,101.6,9.9,101.6,9.9,95.8z"/>
			</g>
		</g>
	</g>
</g>
<g>
	<g>
		<path class="st0" d="M100.1,154.4c0-25.6,0-51.3,0-76.9c0-5.8-9-5.8-9,0c0,25.6,0,51.3,0,76.9C91.1,160.2,100.1,160.2,100.1,154.4
			L100.1,154.4z"/>
	</g>
</g>
<g>
	<circle class="st0" cx="95.8" cy="47.3" r="10"/>
</g>
</svg>
