<?xml version="1.0" encoding="utf-8"?>
<!-- Generator: Adobe Illustrator 19.2.0, SVG Export Plug-In . SVG Version: 6.00 Build 0)  -->
<svg version="1.1" id="Laag_1" xmlns="http://www.w3.org/2000/svg" xmlns:xlink="http://www.w3.org/1999/xlink" x="0px" y="0px"
	 viewBox="0 0 193.3 197.3" style="enable-background:new 0 0 193.3 197.3;" xml:space="preserve">
<style type="text/css">
	.st0{fill:#231F20;}
	.st1{fill:#7D3C8C;}
	.st2{fill:#333333;stroke:#231F20;stroke-width:0.8183;stroke-miterlimit:10;}
	.st3{fill:none;}
	.st4{fill:#FFFFFF;}
	.st5{fill:#FF5072;}
	.st6{fill:#231F20;stroke:#231F20;stroke-width:0.8146;}
	.st7{fill:#84CD1A;}
	.st8{fill:#231F20;stroke:#231F20;stroke-miterlimit:10;}
</style>
<g>
	<g>
		<g>
			<path class="st0" d="M10.8,98.6C11,62.9,33.5,30,67.3,17.8c34.1-12.3,72.8-1.6,95.9,26.3c22.9,27.7,25.7,68.2,7.2,98.9
				C152,173.6,115.3,190,80.2,183C40.1,175.1,11.1,139.4,10.8,98.6c0-5.8-9-5.8-9,0c0.3,39.7,25.2,75.6,62.6,89.3
				c37.4,13.8,81.1,1.6,106.1-29.4c24.9-30.9,28.3-75.3,7.5-109.4C157.1,15.3,116.7-2.2,77.8,5.6c-44,8.7-75.7,48.6-76,93.1
				C1.7,104.4,10.7,104.4,10.8,98.6z"/>
		</g>
	</g>
</g>
<circle class="st6" cx="91.2" cy="150.4" r="8.1"/>
<g>
	<g>
		<path class="st0" d="M78.3,65.8c5.6-9.1,15.9-15.8,27-14.2c11.1,1.6,15.9,12.3,15,22.7c-0.4,4.6-1.9,10.2-5.7,13.2
			c-4.6,3.7-11.3,4.1-16.4,7.3c-12.4,8-14.4,22-13.8,35.6c0.3,7.7,12.3,7.7,12,0c-0.2-5.6-0.5-11.4,1.4-16.8
			c2.2-6.3,7.3-9.4,13.3-11.4c10.8-3.7,18.2-10.5,20.5-22c2.1-10.6,0.3-22.3-6.8-30.7c-6.4-7.7-16.6-10.7-26.4-9.7
			c-12.9,1.4-23.7,9.2-30.5,20.1C63.9,66.3,74.3,72.4,78.3,65.8L78.3,65.8z"/>
	</g>
</g>
</svg>
