<?xml version="1.0" encoding="utf-8"?>
<!-- Generator: Adobe Illustrator 19.2.0, SVG Export Plug-In . SVG Version: 6.00 Build 0)  -->
<svg version="1.1" id="Laag_1" xmlns="http://www.w3.org/2000/svg" xmlns:xlink="http://www.w3.org/1999/xlink" x="0px" y="0px"
	 viewBox="0 0 187.9 200" style="enable-background:new 0 0 187.9 200;" xml:space="preserve">
<style type="text/css">
	.st0{fill:#231F20;}
	.st1{fill:#7D3C8C;}
	.st2{fill:#333333;stroke:#231F20;stroke-width:0.8183;stroke-miterlimit:10;}
	.st3{fill:none;}
	.st4{fill:#FFFFFF;}
	.st5{fill:#FF5072;}
	.st6{fill:#231F20;stroke:#231F20;stroke-width:0.8146;}
	.st7{fill:#84CD1A;}
	.st8{fill:#231F20;stroke:#231F20;stroke-miterlimit:10;}
</style>
<g>
	<g>
		<path class="st0" d="M175.2,184.7c0-16,0-32.1,0-48.1c0-2.4-2.1-4.5-4.5-4.5c-42.3,0-84.5,0-126.8,0c-6,0-12,0-18,0
			c-2.4,0-4.5,2.1-4.5,4.5c0,16,0,32,0,48c0,2.4,2.1,4.5,4.5,4.5c42.3,0,84.5,0,126.8,0c6,0,12,0,18,0c5.8,0,5.8-9,0-9
			c-42.3,0-84.5,0-126.8,0c-6,0-12,0-18,0c1.5,1.5,3,3,4.5,4.5c0-16,0-32,0-48c-1.5,1.5-3,3-4.5,4.5c42.3,0,84.5,0,126.8,0
			c6,0,12,0,18,0c-1.5-1.5-3-3-4.5-4.5c0,16,0,32.1,0,48.1C166.2,190.5,175.2,190.5,175.2,184.7z"/>
	</g>
</g>
<g>
	<g>
		<path class="st0" d="M57.8,97.4c12,7.2,24.1,14.3,36.1,21.5c1.4,0.8,3.2,0.8,4.5,0c11.7-7.2,23.4-14.3,35.1-21.5
			c4.9-3,0.4-10.8-4.5-7.8c-11.7,7.2-23.4,14.3-35.1,21.5c1.5,0,3,0,4.5,0c-12-7.2-24.1-14.3-36.1-21.5
			C57.3,86.6,52.8,94.4,57.8,97.4L57.8,97.4z"/>
	</g>
</g>
<g>
	<g>
		<path class="st0" d="M100.7,114c0-26.4,0-52.9,0-79.3c0-3.8,0-7.7,0-11.5c0-5.8-9-5.8-9,0c0,26.4,0,52.9,0,79.3
			c0,3.8,0,7.7,0,11.5C91.7,119.8,100.7,119.8,100.7,114L100.7,114z"/>
	</g>
</g>
<g>
	<g>
		<path class="st0" d="M150.1,157.5c5.8,0,5.8-9,0-9C144.3,148.5,144.3,157.5,150.1,157.5L150.1,157.5z"/>
	</g>
</g>
</svg>
