<?xml version="1.0" encoding="utf-8"?>
<!-- Generator: Adobe Illustrator 19.2.0, SVG Export Plug-In . SVG Version: 6.00 Build 0)  -->
<svg version="1.1" id="Laag_1" xmlns="http://www.w3.org/2000/svg" xmlns:xlink="http://www.w3.org/1999/xlink" x="0px" y="0px"
	 viewBox="0 0 192.8 192.8" style="enable-background:new 0 0 192.8 192.8;" xml:space="preserve">
<style type="text/css">
	.st0{fill:#231F20;}
	.st1{fill:#7D3C8C;}
	.st2{fill:#333333;stroke:#231F20;stroke-width:0.8183;stroke-miterlimit:10;}
	.st3{fill:none;}
	.st4{fill:#FFFFFF;}
	.st5{fill:#FF5072;}
	.st6{fill:#231F20;stroke:#231F20;stroke-width:0.8146;}
	.st7{fill:#84CD1A;}
	.st8{fill:#231F20;stroke:#231F20;stroke-miterlimit:10;}
</style>
<g>
	<g>
		<path class="st0" d="M154,98.4C121,81,88.1,63.6,55.1,46.3c-4.6-2.4-9.2-4.9-13.8-7.3c-3-1.6-6.8,0.4-6.8,3.9
			c0,31.7,0,63.4,0,95.1c0,6.2,0,12.4,0,18.6c0,3.6,3.8,5.3,6.8,3.9c32.9-15.9,65.7-31.7,98.6-47.6c4.7-2.3,9.4-4.5,14-6.8
			c5.2-2.5,0.7-10.3-4.5-7.8c-32.9,15.9-65.7,31.7-98.6,47.6c-4.7,2.3-9.4,4.5-14,6.8c2.3,1.3,4.5,2.6,6.8,3.9c0-28.5,0-57,0-85.5
			c0-9.4,0-18.8,0-28.2c-2.3,1.3-4.5,2.6-6.8,3.9c33,17.4,65.9,34.7,98.9,52.1c4.6,2.4,9.2,4.9,13.8,7.3
			C154.5,108.8,159.1,101.1,154,98.4z"/>
	</g>
</g>
<g>
	<g>
		<path class="st0" d="M151.7,97.7c-32.9,0-65.8,0-98.6,0c-4.7,0-9.4,0-14,0c-5.8,0-5.8,9,0,9c32.9,0,65.8,0,98.6,0
			c4.7,0,9.4,0,14,0C157.5,106.7,157.5,97.7,151.7,97.7L151.7,97.7z"/>
	</g>
</g>
</svg>
