<?xml version="1.0" encoding="utf-8"?>
<!-- Generator: Adobe Illustrator 19.2.0, SVG Export Plug-In . SVG Version: 6.00 Build 0)  -->
<svg version="1.1" id="Laag_1" xmlns="http://www.w3.org/2000/svg" xmlns:xlink="http://www.w3.org/1999/xlink" x="0px" y="0px"
	 viewBox="0 0 192.8 192.8" style="enable-background:new 0 0 192.8 192.8;" xml:space="preserve">
<style type="text/css">
	.st0{fill:#231F20;}
	.st1{fill:#7D3C8C;}
	.st2{fill:#333333;stroke:#231F20;stroke-width:0.8183;stroke-miterlimit:10;}
	.st3{fill:none;}
	.st4{fill:#FFFFFF;}
	.st5{fill:#FF5072;}
	.st6{fill:#231F20;stroke:#231F20;stroke-width:0.8146;}
	.st7{fill:#84CD1A;}
	.st8{fill:#231F20;stroke:#231F20;stroke-miterlimit:10;}
</style>
<g>
	<g>
		<path class="st0" d="M162.2,104.4c0.6-5.4,0.6-10.7,0-16.1c-0.4,1.1-0.9,2.1-1.3,3.2c5.2-4.1,10.4-8.1,15.5-12.2
			c5.6-4.4,5.2-9.5,1.9-15.2c-3.9-6.8-7.9-13.7-11.8-20.5c-3.1-5.4-6.3-11.2-13.7-8.7c-6.8,2.3-13.3,5.4-19.9,8
			c1.2,0.2,2.3,0.3,3.5,0.5c-4.4-3.3-9-6-13.9-8.1c0.7,0.9,1.4,1.8,2.1,2.7c-0.9-6.5-1.8-13-2.8-19.5c-1-7-5.7-9.2-12.2-9.2
			c-7.9,0-15.8,0-23.7,0c-6.2,0-12.9-0.2-14.4,7.4c-1.5,6.9-2,14.2-3,21.2c0.7-0.9,1.4-1.8,2.1-2.7c-5,2.2-9.6,4.8-13.9,8.1
			c1.2-0.2,2.3-0.3,3.5-0.5c-6.1-2.5-12.2-4.9-18.3-7.4c-6.6-2.7-10.8,0.2-14.1,5.9c-3.9,6.8-7.9,13.7-11.8,20.5
			c-3.1,5.4-6.6,11.1-0.7,16.3c5.3,4.7,11.3,8.9,16.9,13.2c-0.4-1.1-0.9-2.1-1.3-3.2c-0.6,5.4-0.6,10.7,0,16.1
			c0.4-1.1,0.9-2.1,1.3-3.2c-5.2,4.1-10.3,8.1-15.5,12.2c-5.6,4.4-5.2,9.5-1.9,15.2c3.9,6.8,7.9,13.7,11.8,20.5
			c3.1,5.4,6.3,11.2,13.7,8.7c6.8-2.3,13.3-5.4,19.9-8c-1.2-0.2-2.3-0.3-3.5-0.5c4.4,3.3,9,6,13.9,8.1c-0.7-0.9-1.4-1.8-2.1-2.7
			c0.9,6.5,1.8,13,2.8,19.5c1,7,5.7,9.2,12.2,9.2c7.9,0,15.8,0,23.7,0c6.2,0,12.9,0.2,14.4-7.4c1.5-6.9,2-14.2,3-21.2
			c-0.7,0.9-1.4,1.8-2.1,2.7c5-2.2,9.6-4.8,13.9-8.1c-1.2,0.2-2.3,0.3-3.5,0.5c6.1,2.5,12.2,4.9,18.3,7.4c6.6,2.7,10.8-0.2,14.1-5.9
			c3.9-6.8,7.9-13.7,11.8-20.5c3.1-5.4,6.6-11.1,0.7-16.3c-5.3-4.7-11.3-8.9-16.9-13.2c-4.5-3.5-10.9,2.8-6.4,6.4
			c3.7,2.9,7.3,5.7,11,8.6c1.8,1.4,3.8,2.7,5.4,4.2c1.2,1.2,1,0.2,0.8,1.4c-0.2,1.5-2.3,4.1-3.1,5.4c-1.6,2.7-3.1,5.4-4.7,8.1
			c-2.4,4.1-4.5,9.6-7.6,13.2c-1.2,1.3,0.1,0.7-1.4,0.5c-2.2-0.3-4.8-1.9-6.8-2.7c-4.1-1.6-8.6-4.3-12.9-5.2
			c-4-0.8-8.3,3.9-11.6,5.7c-3.1,1.7-6.9,2.3-8,6c-1.4,4.7-1.5,10.3-2.1,15.1c-0.2,1.3,0,4.9-0.9,6c-0.3,0.5-0.7,0.4-2,0.4
			c-5.6,0-11.1,0-16.7,0c-2.8,0-5.7,0-8.5,0c-0.9,0-4.4,0.6-5.2,0c-1-0.7-1.3-8.8-1.6-10.6c-0.5-3.5-0.1-10.7-2.8-13.4
			c-1.8-1.8-5.2-2.6-7.4-3.9c-2.1-1.2-4-2.6-6-3.9c-2.8-1.8-4.1-1.8-6.9-0.7c-5.2,2.1-10.5,4.2-15.7,6.3c-0.4,0.1-3,1.4-2.8,1.4
			c-0.6-0.2-1.9-3.3-2.2-3.8c-3-5.2-6-10.3-8.9-15.5c-1-1.7-5.4-7.9-5-9.1c0.3-0.9,2.9-2.3,3.6-2.8c2.5-1.9,4.9-3.8,7.4-5.8
			c1.8-1.4,3.7-2.7,5.4-4.2c2.7-2.4,2.2-4.5,1.9-8c-0.2-2.4-0.2-4.9-0.1-7.3c0.1-2.2,1-5-0.1-7.1c-0.8-1.4-2.5-2.3-3.7-3.3
			c-4.4-3.4-8.8-6.9-13.2-10.3c-1.1-0.9-1.2-0.6-1.2-1.3c0-1.3,2.2-3.8,2.9-5c3-5.3,6.1-10.6,9.1-15.8c1.1-1.9,2.1-3.9,3.3-5.8
			c0.9-1.4,0.4-1,1.3-1c1.5-0.1,4.5,1.8,5.8,2.4c2.9,1.2,5.9,2.4,8.8,3.5c1.7,0.7,3.5,1.7,5.3,2.1c3.9,0.9,7.2-3,10.4-4.9
			c3.1-1.8,8.2-2.8,9.4-6.4c0.6-1.9,0.6-4.2,0.9-6.1c0.4-2.8,0.8-5.7,1.2-8.5c0.3-1.8,0-5.1,0.9-6.7c0.6-0.9-0.4-0.3,1.4-0.6
			c2.3-0.4,5,0,7.3,0c5.9,0,11.9,0,17.8,0c1.4,0,4.3-0.6,5.6,0c0.8,0.4,0.7,0.4,0.8,2c0.5,5.4,1.5,10.9,2.3,16.3
			c0.2,1.4,0.2,3,0.8,4.3c1,2.1,2.9,2.6,4.8,3.5c2.9,1.4,5.7,3.1,8.4,4.9c2.4,1.7,3.9,3,6.9,2c2.3-0.7,4.6-1.8,6.8-2.7
			c2.8-1.1,5.5-2.2,8.3-3.3c0.9-0.4,3.7-2.1,4.7-1.9c1.1,0.2,4.4,7.4,5.3,9c3,5.3,6.1,10.5,9.1,15.8c0.3,0.6,2.1,2.7,2,3.4
			c0-0.1-2.3,1.6-2.7,1.9c-4.5,3.5-9.2,7-13.6,10.6c-1.5,1.3-2.5,2.1-2.8,4.3c-0.3,2.5,0.6,5.5,0.6,8c0,2.7-0.3,5.4-0.6,8
			C152.5,110.2,161.5,110.1,162.2,104.4z"/>
	</g>
</g>
<g>
	<g>
		<path class="st0" d="M76.7,96.4c0.3-10.7,8.7-19.7,19.7-19.7c10.8,0,19.7,9,19.7,19.7c0,10.8-9,19.7-19.7,19.7
			C85.5,116.1,77,107.2,76.7,96.4c-0.2-5.8-9.2-5.8-9,0c0.3,12.1,7.5,22.8,19,27c11.2,4.1,24.1,0.5,31.7-8.6
			c16.9-20.3-1.4-51.3-27.3-46.6c-13.7,2.5-23.1,14.6-23.5,28.2C67.6,102.2,76.6,102.2,76.7,96.4z"/>
	</g>
</g>
</svg>
