<?xml version="1.0" encoding="utf-8"?>
<!-- Generator: Adobe Illustrator 19.2.0, SVG Export Plug-In . SVG Version: 6.00 Build 0)  -->
<svg version="1.1" id="Laag_1" xmlns="http://www.w3.org/2000/svg" xmlns:xlink="http://www.w3.org/1999/xlink" x="0px" y="0px"
	 viewBox="0 0 192.8 192.8" style="enable-background:new 0 0 192.8 192.8;" xml:space="preserve">
<style type="text/css">
	.st0{fill:#231F20;}
	.st1{fill:#7D3C8C;}
	.st2{fill:#333333;stroke:#231F20;stroke-width:0.8183;stroke-miterlimit:10;}
	.st3{fill:none;}
	.st4{fill:#FFFFFF;}
	.st5{fill:#FF5072;}
	.st6{fill:#231F20;stroke:#231F20;stroke-width:0.8146;}
	.st7{fill:#84CD1A;}
	.st8{fill:#231F20;stroke:#231F20;stroke-miterlimit:10;}
</style>
<g>
	<g>
		<path class="st0" d="M152.5,63.4c-7.6-8.4-16.9-14.7-27-18.9v9.8c4.4,2.1,8.5,4.6,12.4,7.7c25.9,20.5,32,57.7,15.4,85.9
			c-14.7,23.7-43.6,36.8-71.1,30.4c-25.4-5.8-45.2-26.5-50.5-52c-5.4-25.9,6.7-53.8,28.8-68.2c2.2-1.5,4.5-2.7,6.9-3.9v-9.8
			c-0.3,0.1-0.6,0.2-0.9,0.3C38.8,56.6,20,86.3,21.4,116.5c1.4,29.8,20.6,56.5,48.3,67.4c33.6,13.2,72.5-1.1,91.3-31.5
			C177.5,124.3,174.4,87.7,152.5,63.4z"/>
	</g>
</g>
<g>
	<g>
		<path class="st0" d="M91.9,12.7c0,24.2,0,48.5,0,72.7c0,5.8,9,5.8,9,0c0-24.2,0-48.5,0-72.7C100.9,6.9,91.9,6.9,91.9,12.7
			L91.9,12.7z"/>
	</g>
</g>
</svg>
