<?xml version="1.0" encoding="utf-8"?>
<!-- Generator: Adobe Illustrator 19.2.0, SVG Export Plug-In . SVG Version: 6.00 Build 0)  -->
<svg version="1.1" id="Laag_1" xmlns="http://www.w3.org/2000/svg" xmlns:xlink="http://www.w3.org/1999/xlink" x="0px" y="0px"
	 viewBox="0 0 118.2 155.7" style="enable-background:new 0 0 118.2 155.7;" xml:space="preserve">
<style type="text/css">
	.st0{fill:#231F20;}
	.st1{fill:#7D3C8C;}
	.st2{fill:#333333;stroke:#231F20;stroke-width:0.8183;stroke-miterlimit:10;}
	.st3{fill:none;}
	.st4{fill:#FFFFFF;}
	.st5{fill:#FF5072;}
	.st6{fill:#231F20;stroke:#231F20;stroke-width:0.8146;}
	.st7{fill:#84CD1A;}
	.st8{fill:#231F20;stroke:#231F20;stroke-miterlimit:10;}
</style>
<g>
	<g>
		<path class="st0" d="M-0.7,95.5c0,18.8,0,37.6,0,56.4c0,2.4,2.1,4.5,4.5,4.5c32.3,0,64.6,0,96.9,0c4.6,0,9.1,0,13.7,0
			c2.4,0,4.5-2.1,4.5-4.5c0-17.9,0-35.7,0-53.6c0-5.8-9-5.8-9,0c0,17.9,0,35.7,0,53.6c1.5-1.5,3-3,4.5-4.5c-32.3,0-64.6,0-96.9,0
			c-4.6,0-9.1,0-13.7,0c1.5,1.5,3,3,4.5,4.5c0-18.8,0-37.6,0-56.4C8.3,89.8-0.7,89.7-0.7,95.5L-0.7,95.5z"/>
	</g>
</g>
<g>
	<g>
		<path class="st0" d="M97.9,29.4C85.8,20,73.8,10.6,61.7,1.2c-2.1-1.6-4.3-1.7-6.4,0C43.7,10.6,32,20,20.3,29.4
			c-4.5,3.6,1.9,10,6.4,6.4C38.3,26.4,50,16.9,61.7,7.5c-2.1,0-4.2,0-6.4,0c12,9.4,24.1,18.8,36.1,28.2C96,39.3,102.4,33,97.9,29.4
			L97.9,29.4z"/>
	</g>
</g>
<g>
	<g>
		<path class="st0" d="M54.1,5.6c0,34.8,0,69.5,0,104.3c0,5,0,10,0,15.1c0,5.8,9,5.8,9,0c0-34.8,0-69.5,0-104.3c0-5,0-10,0-15.1
			C63.1-0.2,54.1-0.2,54.1,5.6L54.1,5.6z"/>
	</g>
</g>
</svg>
