<?xml version="1.0" encoding="utf-8"?>
<!-- Generator: Adobe Illustrator 19.2.0, SVG Export Plug-In . SVG Version: 6.00 Build 0)  -->
<svg version="1.1" id="Laag_1" xmlns="http://www.w3.org/2000/svg" xmlns:xlink="http://www.w3.org/1999/xlink" x="0px" y="0px"
	 viewBox="0 0 198.3 200" style="enable-background:new 0 0 198.3 200;" xml:space="preserve">
<style type="text/css">
	.st0{fill:#231F20;}
	.st1{fill:#7D3C8C;}
	.st2{fill:#333333;stroke:#231F20;stroke-width:0.8183;stroke-miterlimit:10;}
	.st3{fill:none;}
	.st4{fill:#FFFFFF;}
	.st5{fill:#FF5072;}
	.st6{fill:#231F20;stroke:#231F20;stroke-width:0.8146;}
	.st7{fill:#84CD1A;}
	.st8{fill:#231F20;stroke:#231F20;stroke-miterlimit:10;}
</style>
<g>
	<g>
		<path class="st0" d="M17.8,99.9C31.2,84,50.3,71.2,69.8,64.4c32.7-11.4,66.8-2.8,93.7,18.1c6.1,4.8,12.1,10.1,17,16.1
			c0-2.1,0-4.2,0-6.4c-14.7,12.5-34.1,22.7-53,28.2c-31.4,9.3-62.7,1.6-90.6-14.3c-5-2.8-9.8-5.9-14.5-9.2c-2.1-1.5-3.6-2.6-4.8-3.6
			c-4.4-3.6-10.8,2.7-6.4,6.4c16.9,13.8,37.8,24.4,58.8,30c33.4,8.9,66.4,0.7,95.6-16.5c7.4-4.3,14.6-9.2,21.1-14.7
			c2-1.7,1.4-4.6,0-6.4c-14-17.1-34.8-30.4-55.6-37.2c-34.8-11.4-71.1-1.4-99.7,20.2c-7.2,5.4-14.3,11.4-20.2,18.3
			C7.7,97.9,14,104.3,17.8,99.9z"/>
	</g>
</g>
<g>
	<circle class="st0" cx="99.1" cy="84.3" r="29.8"/>
	<g>
		<path class="st0" d="M73.8,84.3C74.2,70.5,85.1,59,99.1,59c13.8,0,25.3,11.5,25.3,25.3c0,13.8-11.5,25.3-25.3,25.3
			C85.1,109.6,74.2,98.1,73.8,84.3c-0.1-5.8-9.1-5.8-9,0c0.3,14.3,8.9,27.1,22.4,32.2c13.5,5,29.2,0.7,38.3-10.3
			c9.1-11.1,10.4-27.2,3-39.5c-7.4-12.3-22-18.6-36.1-15.9c-16.1,3.1-27.2,17.5-27.6,33.6C64.7,90.1,73.7,90.1,73.8,84.3z"/>
	</g>
</g>
</svg>
