<?xml version="1.0" encoding="utf-8"?>
<!-- Generator: Adobe Illustrator 19.2.0, SVG Export Plug-In . SVG Version: 6.00 Build 0)  -->
<svg version="1.1" id="Laag_1" xmlns="http://www.w3.org/2000/svg" xmlns:xlink="http://www.w3.org/1999/xlink" x="0px" y="0px"
	 viewBox="0 0 193.3 197.3" style="enable-background:new 0 0 193.3 197.3;" xml:space="preserve">
<style type="text/css">
	.st0{fill:#231F20;}
	.st1{fill:#7D3C8C;}
	.st2{fill:#333333;stroke:#231F20;stroke-width:0.8183;stroke-miterlimit:10;}
	.st3{fill:none;}
	.st4{fill:#FFFFFF;}
	.st5{fill:#FF5072;}
	.st6{fill:#231F20;stroke:#231F20;stroke-width:0.8146;}
	.st7{fill:#84CD1A;}
	.st8{fill:#231F20;stroke:#231F20;stroke-miterlimit:10;}
</style>
<g>
	<g>
		<path class="st0" d="M92.8-2.3C82.6,19.9,72.4,42.1,62.3,64.2c-16.3,35.5-32.5,71-48.8,106.5c-3.7,8.1-7.4,16.2-11.1,24.3
			c-1.4,3,0.2,6.8,3.9,6.8c20.3,0,40.7,0,61,0c32.5,0,64.9,0,97.4,0c7.5,0,15,0,22.5,0c3.7,0,5.3-3.8,3.9-6.8
			c-10.2-22.2-20.4-44.3-30.5-66.5C144.3,93,128,57.5,111.7,22c-3.7-8.1-7.4-16.2-11.2-24.3C98.1-7.5,90.4-3,92.8,2.3
			c10.2,22.2,20.4,44.3,30.5,66.5c16.3,35.5,32.6,71,48.9,106.5c3.7,8.1,7.4,16.2,11.2,24.3c1.3-2.3,2.6-4.5,3.9-6.8
			c-20.3,0-40.7,0-61,0c-32.5,0-64.9,0-97.4,0c-7.5,0-15,0-22.5,0c1.3,2.3,2.6,4.5,3.9,6.8c10.2-22.2,20.3-44.3,30.5-66.5
			c16.3-35.5,32.5-71,48.8-106.5c3.7-8.1,7.4-16.2,11.1-24.3C102.9-3,95.2-7.5,92.8-2.3z"/>
	</g>
</g>
<g>
	<g>
		<path class="st0" d="M90.8,62.9c0,25.6,0,51.3,0,76.9c0,5.8,9,5.8,9,0c0-25.6,0-51.3,0-76.9C99.8,57.1,90.8,57.1,90.8,62.9
			L90.8,62.9z"/>
	</g>
</g>
<g>
	<circle class="st0" cx="95.4" cy="168.2" r="8.1"/>
	<g>
		<path class="st0" d="M91.8,168.2c0.2-4.6,7.1-4.6,7.1,0C99,172.8,92.1,172.8,91.8,168.2c-0.3-5.8-9.3-5.8-9,0
			c0.4,6.8,5.5,12.6,12.6,12.6c6.8,0,12.5-5.7,12.6-12.6c0-6.7-5.5-12.3-12.1-12.5c-7.3-0.3-12.6,5.6-13,12.5
			C82.5,174,91.5,174,91.8,168.2z"/>
	</g>
</g>
</svg>
